<?xml version="1.0" standalone="no"?>
<!DOCTYPE svg PUBLIC "-//W3C//DTD SVG 1.1//EN" "http://www.w3.org/Graphics/SVG/1.1/DTD/svg11.dtd" >
<svg>
<metadata>
Created by FontForge 20090914 at Fri Jun 26 17:56:22 2015
 By www-data
Copyright (c) 2012, vernon adams (vern@newtypography.co.uk), with Reserved Font Names 'Anaheim'
</metadata>
<defs>
<font id="Anaheim-Regular" horiz-adv-x="984" >
  <font-face 
    font-family="Anaheim"
    font-weight="400"
    font-stretch="normal"
    units-per-em="2048"
    panose-1="2 0 5 3 0 0 0 0 0 0"
    ascent="1638"
    descent="-410"
    x-height="985"
    cap-height="1284"
    bbox="-115 -672 2045 1968"
    underline-thickness="0"
    underline-position="0"
    unicode-range="U+0020-U+FB04"
  />
<missing-glyph horiz-adv-x="355" 
 />
    <glyph glyph-name=".notdef" horiz-adv-x="355" 
 />
    <glyph glyph-name="space" unicode=" " horiz-adv-x="677" 
 />
    <glyph glyph-name="exclam" unicode="!" horiz-adv-x="446" 
d="M157 154h138v-154h-138v154zM151 1284h137l-38 -943h-59z" />
    <glyph glyph-name="quotedbl" unicode="&#x22;" horiz-adv-x="634" 
d="M388 1411h122l-7 -194v-267h-115v461zM125 1411h121v-182l-9 -279h-112v461z" />
    <glyph glyph-name="numbersign" unicode="#" horiz-adv-x="1082" 
d="M630 553l44 375h-224l-42 -375h222zM720 449l-41 -357h-106l42 357h-216l-40 -357h-107l42 357h-168v104h181l43 375h-188v102h198l39 334h105l-38 -334h215l39 334h103l-37 -334h167v-102h-179l-41 -375h185v-104h-198z" />
    <glyph glyph-name="dollar" unicode="$" horiz-adv-x="947" 
d="M538 -188l-78.998 -0.00195312v178c-144 2.66699 -262 28.667 -354 78l28 105c35.333 -15.333 64 -27.166 86 -35.499s55.667 -17.166 101 -26.499s91.666 -14.333 138.999 -15v520l-83 28c-89.333 30 -156.833 70 -202.5 120s-68.5 118.333 -68.5 205
c0 108 32.167 188.833 96.5 242.5s149.833 83.167 256.5 88.5v165h80v-165c116 -4.66699 217.333 -25 304 -61l-23 -102c-96.667 36 -190.334 55.333 -281.001 58v-478c84.667 -30.667 140.334 -53 167.001 -67c81.333 -42.667 132.666 -103.667 153.999 -183
c9.33301 -34 14 -72 14 -114c0 -106 -29.833 -190 -89.5 -252s-141.5 -98 -245.5 -108v-181zM538.002 589.998l0.000976562 -488.999c65.333 10.667 116.166 37 152.499 79s54.5 100.333 54.5 175c0 35.333 -4.16699 65.333 -12.5 90s-22 46 -41 64s-39.833 32.667 -62.5 44
s-53 23.666 -91 36.999zM458.003 745.999v447.002c-150 -14 -225 -87.667 -225 -221c0 -54.667 12.333 -96.834 37 -126.501s73.667 -57.834 147 -84.501z" />
    <glyph glyph-name="percent" unicode="%" horiz-adv-x="1471" 
d="M493 1027c0 58.667 -15.832 104 -47.499 136s-69.834 48 -114.501 48c-44 0 -82.333 -16.333 -115 -49s-49 -77.667 -49 -135c0 -59.333 16.167 -105.333 48.5 -138s70.833 -49 115.5 -49c44 0 82 16.5 114 49.5s48 78.833 48 137.5zM590.001 1027
c0 -86.667 -25.667 -154.167 -77 -202.5s-112 -72.5 -182 -72.5c-70.667 0 -132 24.333 -184 73s-78 116 -78 202c0 86.667 26 154 78 202s113.333 72 184 72s131.5 -24 182.5 -72s76.5 -115.333 76.5 -202zM994.001 1368l94 -31l-566 -1381l-90 34zM1306 265
c0 58.667 -15.832 104 -47.499 136s-69.834 48 -114.501 48c-44 0 -82.333 -16.333 -115 -49s-49 -77.667 -49 -135c0 -59.333 16.167 -105.333 48.5 -138s70.833 -49 115.5 -49c44 0 82 16.5 114 49.5s48 78.833 48 137.5zM1404 265
c0 -86.667 -25.833 -154.167 -77.5 -202.5s-112.5 -72.5 -182.5 -72.5c-70.667 0 -132 24.333 -184 73s-78 116 -78 202c0 86.667 26 154 78 202s113.333 72 184 72s131.667 -24 183 -72s77 -115.333 77 -202z" />
    <glyph glyph-name="ampersand" unicode="&#x26;" horiz-adv-x="1100" 
d="M1024 489c-26 -117.333 -68.001 -216.664 -126.001 -297.997l104 -137l-94 -73l-89 119c-81.333 -73.333 -186 -110 -314 -110c-122.667 0 -216.834 25.833 -282.501 77.5s-98.5 126.167 -98.5 223.5c0 43.333 6.66699 84.166 20 122.499s33.5 74.333 60.5 108
s53 62.167 78 85.5s56.833 50.666 95.5 81.999l-66 89c-68.667 97.333 -103 185 -103 263c0 43.333 8 82.166 24 116.499s37.333 61.666 64 81.999s56.334 35.666 89.001 45.999s67 15.5 103 15.5c82.667 0 149.834 -22.167 201.501 -66.5s77.5 -109.833 77.5 -196.5
c0 -69.333 -20.5 -133.166 -61.5 -191.499s-97.5 -118.166 -169.5 -179.499l287 -379c36 63.333 66.333 141.333 91 234zM464.999 753.002c54.667 46 97.499 91.332 128.499 135.999s46.5 92.667 46.5 144c0 108.667 -49.333 163 -148 163c-48.667 0 -86.667 -13 -114 -39
s-41 -63.667 -41 -113c0 -45.333 8.33301 -87.166 25 -125.499s41.334 -80.5 74.001 -126.5zM448.998 606.001c-40.667 -33.333 -73.999 -63.666 -99.999 -90.999s-48.667 -60.333 -68 -99s-29 -78.334 -29 -119.001c0 -134 89 -201 267 -201
c91.333 0 168.666 31.667 231.999 95z" />
    <glyph glyph-name="quotesingle" unicode="'" horiz-adv-x="371" 
d="M125 1411h123l-9 -199v-262h-114v461z" />
    <glyph glyph-name="parenleft" unicode="(" horiz-adv-x="520" 
d="M382 -305c-101.333 134.667 -178 284.167 -230 448.5s-78 333.166 -78 506.499s26 342 78 506s128.667 313.333 230 448l79 -76c-84 -127.333 -147.667 -266.833 -191 -418.5s-65 -306.5 -65 -464.5c0 -157.333 21.667 -311.166 65 -461.499s107 -288.5 191 -414.5
l-79 -76v2z" />
    <glyph glyph-name="parenright" unicode=")" horiz-adv-x="520" 
d="M141 -305v-2l-79 76c84 126 147.667 264.167 191 414.5s65 304.166 65 461.499c0 158 -21.667 312.833 -65 464.5s-107 291.167 -191 418.5l79 76c101.333 -134.667 178 -284 230 -448s78 -332.667 78 -506s-26 -342.166 -78 -506.499s-128.667 -313.833 -230 -448.5z
" />
    <glyph glyph-name="asterisk" unicode="*" horiz-adv-x="923" 
d="M786 1223l26 -85l-278 -95l174 -236l-73 -54l-175 236l-174 -236l-73 54l173 236l-278 94l26 86l281 -93v295h91v-295z" />
    <glyph glyph-name="plus" unicode="+" horiz-adv-x="996" 
d="M550 1010v-365h334v-104h-334v-365h-105v365h-335v104h335v365h105z" />
    <glyph glyph-name="comma" unicode="," horiz-adv-x="491" 
d="M341 39c0 -60 -11.333 -114 -34 -162s-56.667 -98.333 -102 -151l-47 53c54 83.333 82.667 157 86 221h-95v210h192v-171z" />
    <glyph glyph-name="hyphen" unicode="-" horiz-adv-x="750" 
d="M114 449v116h519v-116h-519z" />
    <glyph glyph-name="period" unicode="." horiz-adv-x="452" 
d="M305 202v-202h-160v202h160z" />
    <glyph glyph-name="slash" unicode="/" horiz-adv-x="888" 
d="M812 1458l-634 -1579l-79 37l632 1581z" />
    <glyph glyph-name="zero" unicode="0" horiz-adv-x="1012" 
d="M507 1195c-34 0 -64.167 -5.33008 -90.5 -15.9971s-48.5 -24.334 -66.5 -41.001s-33.333 -39.334 -46 -68.001s-22.5 -56.834 -29.5 -84.501s-12.5 -62.167 -16.5 -103.5s-6.5 -79 -7.5 -113s-1.5 -75 -1.5 -123c0 -62 1 -114.833 3 -158.5
s6.16699 -87.834 12.5 -132.501s15.5 -81.667 27.5 -111s27.333 -55.833 46 -79.5s42 -41 70 -52s61 -16.5 99 -16.5c35.333 0 66.833 6.33301 94.5 19s50.334 27.834 68.001 45.501s32.834 43.167 45.501 76.5s22 62.833 28 88.5s10.667 61 14 106
s5.16602 80.167 5.49902 105.5s0.5 61.666 0.5 108.999c0 62 -1 114.833 -3 158.5s-6.16699 87.834 -12.5 132.501s-15.333 81.5 -27 110.5s-26.834 55.333 -45.501 79s-42 41 -70 52s-60.667 16.5 -98 16.5zM133 646.003c0 68.667 2.00195 129.497 6.00195 182.497
s10.833 105.333 20.5 157s23.5 95.834 41.5 132.501s40.667 69.334 68 98.001s60.833 50 100.5 64s85.5 21 137.5 21c45.333 0 86.166 -6 122.499 -18s67.333 -28.333 93 -49s47.834 -47 66.501 -79s33.667 -65.667 45 -101s20.5 -76.166 27.5 -122.499
s11.667 -91.666 14 -135.999s3.5 -94.166 3.5 -149.499c0 -54.667 -1.16699 -104.334 -3.5 -149.001s-7 -90.167 -14 -136.5s-16.167 -87.333 -27.5 -123s-26.5 -69.5 -45.5 -101.5s-41.333 -58.333 -67 -79s-56.667 -37 -93 -49s-76.833 -18 -121.5 -18
c-45.333 0 -86.333 6.16699 -123 18.5s-67.834 28.833 -93.501 49.5s-48 47.167 -67 79.5s-34.333 66.166 -46 101.499s-20.834 76.333 -27.501 123s-11.167 92 -13.5 136s-3.5 93.333 -3.5 148z" />
    <glyph glyph-name="one" unicode="1" horiz-adv-x="799" 
d="M512 100h192v-100h-544v100h224v1067l-227 -106l-38 93l-1 1l281 129h113v-1184z" />
    <glyph glyph-name="two" unicode="2" horiz-adv-x="961" 
d="M162 1125l-39.999 100.998c56 26 108 45 156 57s106.333 18 175 18c121.333 0 213.5 -32.5 276.5 -97.5s94.5 -147.5 94.5 -247.5c0 -22.667 -1.5 -44.5 -4.5 -65.5s-8.66699 -42.167 -17 -63.5l-21.5 -55c-6 -15.333 -17.167 -34 -33.5 -56l-36.5 -50
c-8 -11.333 -23.167 -29 -45.5 -53l-46 -49l-53 -53.5l-52.5 -52.5c-74.667 -74.667 -124.334 -127 -149.001 -157c-56.667 -70 -90 -137 -100 -201h533l15 -100h-682c0 35.333 3.66699 70 11 104s16 64.5 26 91.5s24.333 55.333 43 85s35.5 54.667 50.5 75
s35.667 44.5 62 72.5s47.5 49.833 63.5 65.5l68 64.5l27 26c36 34 65 63 87 87s44.833 51.833 68.5 83.5s41.167 63.834 52.5 96.501s17 66.334 17 101.001c0 162 -87.667 243 -263 243c-40.667 0 -83.5 -5.33301 -128.5 -16s-78.333 -20.5 -100 -29.5
s-39.5 -17.167 -53.5 -24.5z" />
    <glyph glyph-name="three" unicode="3" horiz-adv-x="1002" 
d="M441 -10c-116.667 0 -219.667 16.666 -309 49.999l27 105c86.667 -32.667 182.334 -49 287.001 -49c206 0 309 88 309 264c0 86 -29 152 -87 198s-127.333 69 -208 69c-60 0 -118.333 -6.33301 -175 -19l-9 103c70.667 9.33301 129.5 19.5 176.5 30.5
s90.833 26.5 131.5 46.5s70.834 45.833 90.501 77.5s29.5 69.834 29.5 114.501c0 69.333 -22 122.5 -66 159.5s-105.667 55.5 -185 55.5c-96.667 0 -194.667 -17 -294 -51l-27 101c114 37.333 219.333 56 316 56c114.667 0 205.167 -26.333 271.5 -79
s99.5 -128.667 99.5 -228c0 -83.333 -20.667 -148.333 -62 -195s-104 -82.667 -188 -108c81.333 -7.33301 152 -44 212 -110s90 -143.333 90 -232c0 -52.667 -7.83301 -99.667 -23.5 -141s-36.834 -75.5 -63.501 -102.5s-58.5 -49.333 -95.5 -67
s-75.833 -30.167 -116.5 -37.5s-84.334 -11 -131.001 -11z" />
    <glyph glyph-name="four" unicode="4" horiz-adv-x="1002" 
d="M608 0v260h-544v96l347 928h125l-335 -924h407v437h128v-437h160v-100h-160v-260h-128z" />
    <glyph glyph-name="five" unicode="5" horiz-adv-x="999" 
d="M736 371c0 102 -21.501 179.501 -64.501 232.501s-101.167 79.5 -174.5 79.5c-98 0 -180.333 -25 -247 -75l-71 29v647h617v-100h-504l-15 -458c59.333 40.667 133 61 221 61c110.667 0 199.334 -37.667 266.001 -113s100 -177 100 -305
c0 -122 -38.167 -215.667 -114.5 -281s-178.5 -98 -306.5 -98c-48.667 0 -104.667 6 -168 18s-111.333 26 -144 42l26 109c35.333 -16.667 82 -31.334 140 -44.001s109 -19 153 -19c92 0 162.667 23.833 212 71.5s74 115.5 74 203.5z" />
    <glyph glyph-name="six" unicode="6" horiz-adv-x="998" 
d="M231 727c50.667 36 98.001 61.334 142.001 76.001s91 22 141 22c99.333 0 179.833 -34.167 241.5 -102.5s92.5 -168.833 92.5 -301.5c0 -136 -32.5 -241.833 -97.5 -317.5s-155.5 -113.5 -271.5 -113.5c-132.667 0 -229.667 47.167 -291 141.5s-92 234.166 -92 419.499
c0 110 8.66699 205.833 26 287.5s41.833 150 73.5 205s73 100.5 124 136.5s106.667 63.167 167 81.5s131.166 31.5 212.499 39.5l21 -112c-314 -7.33301 -477 -161.333 -489 -462zM224.001 529.001c0 -147.333 19.667 -256.333 59 -327s103 -106 191 -106
c84 0 146 26.333 186 79s60 135 60 247c0 100.667 -18.5 174.667 -55.5 222s-92.167 71 -165.5 71c-44 0 -86 -7.5 -126 -22.5s-89.667 -41.5 -149 -79.5v-84z" />
    <glyph glyph-name="seven" unicode="7" horiz-adv-x="875" 
d="M779 1198c-22.667 -35.333 -54.334 -95.667 -95.001 -181s-84.667 -186 -132 -302s-88 -240 -122 -372s-51 -246.333 -51 -343h-136c4.66699 171.333 40.334 351 107.001 539s162.667 406.667 288 656h-532v106h663z" />
    <glyph glyph-name="eight" unicode="8" horiz-adv-x="1034" 
d="M512 96c74.667 0 136 17.832 184 53.499s72 92.834 72 171.501c0 32 -5.5 62 -16.5 90s-24.833 52 -41.5 72s-38 39.5 -64 58.5s-50.5 34.5 -73.5 46.5s-49.833 24.667 -80.5 38c-157.333 -79.333 -236 -182.333 -236 -309c0 -76 23.333 -131.833 70 -167.5
s108.667 -53.5 186 -53.5zM545 715.999c65.333 22.667 118.831 59.501 160.498 110.501s62.5 104.5 62.5 160.5c0 63.333 -19.833 113.833 -59.5 151.5s-99.167 56.5 -178.5 56.5c-33.333 0 -63.833 -3.33301 -91.5 -10s-53.167 -17.5 -76.5 -32.5s-41.5 -36.333 -54.5 -64
s-19.5 -60.834 -19.5 -99.501c0 -36 6.5 -68 19.5 -96s32.833 -53 59.5 -75s52.834 -40 78.501 -54s58.834 -30 99.501 -48zM159.998 994c0 69.333 17.499 127.667 52.499 175s79.333 81.166 133 101.499s114.5 30.5 182.5 30.5c66.667 0 127.334 -11.167 182.001 -33.5
s99.334 -56.833 134.001 -103.5s52 -102 52 -166c0 -68 -22.167 -132.833 -66.5 -194.5s-102.833 -107.834 -175.5 -138.501c74.667 -39.333 133.667 -87.166 177 -143.499s65 -128.166 65 -215.499c0 -52 -10.833 -98.667 -32.5 -140s-50.667 -74.5 -87 -99.5
s-77 -44 -122 -57s-92.5 -19.5 -142.5 -19.5c-110.667 0 -202.334 27.167 -275.001 81.5s-109 131.833 -109 232.5c0 74 22 145 66 213s107 120.667 189 158c-68.667 35.333 -123 78 -163 128s-60 113.667 -60 191z" />
    <glyph glyph-name="nine" unicode="9" horiz-adv-x="1002" 
d="M720 763c0 147.333 -19.667 256.167 -59 326.5s-103 105.5 -191 105.5c-84 0 -146 -26.167 -186 -78.5s-60 -134.5 -60 -246.5c0 -100.667 18.5 -174.667 55.5 -222s92.167 -71 165.5 -71c44 0 86 7.5 126 22.5s89.667 41.5 149 79.5v84zM713 565.001
c-50.667 -36 -98 -61.332 -142 -75.999s-91 -22 -141 -22c-99.333 0 -179.833 34.167 -241.5 102.5s-92.5 168.833 -92.5 301.5c0 136 32.5 241.667 97.5 317s155.5 113 271.5 113c133.333 0 230.5 -46.667 291.5 -140s91.5 -233.333 91.5 -420
c0 -136 -13.333 -251.833 -40 -347.5s-66.834 -171.834 -120.501 -228.501s-116.167 -98.5 -187.5 -125.5s-156.333 -43.5 -255 -49.5l-21 106c83.333 2 156.833 15.5 220.5 40.5s114.834 59 153.501 102s67.5 91.833 86.5 146.5s28.5 114.667 28.5 180z" />
    <glyph glyph-name="colon" unicode=":" horiz-adv-x="481" 
d="M308 841v-202h-163v202h163zM308 243v-196h-163v196h163z" />
    <glyph glyph-name="semicolon" unicode=";" horiz-adv-x="462" 
d="M323 129c0 -61.333 -11.501 -116 -34.501 -164s-57.833 -98.333 -104.5 -151l-46 53c52.667 82.667 81.334 155.667 86.001 219h-74v216h173v-173zM144.999 846h162v-210h-162v210z" />
    <glyph glyph-name="less" unicode="&#x3c;" horiz-adv-x="1005" 
d="M233 596l641 -446l-55 -89l-711 502v66l711 487l57 -86z" />
    <glyph glyph-name="equal" unicode="=" horiz-adv-x="1025" 
d="M123 467h774v-96h-774v96zM123 780h774v-96h-774v96z" />
    <glyph glyph-name="greater" unicode="&#x3e;" horiz-adv-x="1009" 
d="M774 596l-644 434l56 86l713 -487v-66l-713 -502l-56 89z" />
    <glyph glyph-name="question" unicode="?" horiz-adv-x="881" 
d="M345 135h125v-141h-125v141zM766 1005c0 -38.667 -6.00195 -75.001 -18.002 -109.001s-27.667 -64 -47 -90s-40.666 -51.167 -63.999 -75.5l-70.5 -71.5c-23.667 -23.333 -45.167 -46.833 -64.5 -70.5s-35 -50.667 -47 -81s-18 -62.166 -18 -95.499
c0 -14 2.33301 -53.667 7 -119h-83c-2.66699 8 -5.66699 25.5 -9 52.5s-6 51.833 -8 74.5l-4 35c0 34 7.5 68.167 22.5 102.5s34 65 57 92l74 85.5l74 84c23 26 42 54.833 57 86.5s22.5 62.5 22.5 92.5c0 57.333 -16.333 104.5 -49 141.5s-79.334 55.5 -140.001 55.5
c-62 0 -116.167 -10 -162.5 -30s-92.166 -51.333 -137.499 -94l-56 80c36.667 42 86.334 77.5 149.001 106.5s128.667 43.5 198 43.5c94 0 170.333 -27.167 229 -81.5s88 -125.833 88 -214.5z" />
    <glyph glyph-name="at" unicode="@" horiz-adv-x="1512" 
d="M1100 256c-74.667 0 -132.001 39.6641 -172.001 118.997c-22 -38.667 -51 -70.5 -87 -95.5s-78.667 -37.5 -128 -37.5c-24.667 0 -49 4 -73 12s-47.333 21.333 -70 40s-42.5 41.5 -59.5 68.5s-30.667 60.667 -41 101s-15.5 85.166 -15.5 134.499
c0 112.667 26.5 205.667 79.5 279s126.167 110 219.5 110c18 0 40.667 -1.66699 68 -5s62 -11.833 104 -25.5s75 -31.5 99 -53.5v-497c0 -29.333 26 -44 78 -44c32 0 60.833 17.667 86.5 53s44.667 77.333 57 126s18.5 97.334 18.5 146.001s-5.66699 96.334 -17 143.001
s-30 92.334 -56 137.001s-57.833 83.667 -95.5 117s-85.167 60.166 -142.5 80.499s-120.666 30.5 -189.999 30.5c-66 0 -129.667 -14.667 -191 -44s-114.833 -69.5 -160.5 -120.5s-82.167 -113.333 -109.5 -187s-41 -152.5 -41 -236.5c0 -166 49.167 -302.667 147.5 -410
s221.833 -161 370.5 -161c79.333 0 172.333 19.667 279 59l26 -91c-110 -44.667 -213.667 -67 -311 -67c-82 0 -161.167 16 -237.5 48s-143.833 76.167 -202.5 132.5s-105.5 126.5 -140.5 210.5s-52.5 174.667 -52.5 272c0 104 16.167 200.167 48.5 288.5
s76.166 162.333 131.499 222s120.333 106.334 195 140.001s154.334 50.5 239.001 50.5c85.333 0 163.166 -12 233.499 -36s128.833 -56 175.5 -96s86.167 -86.5 118.5 -139.5s55.5 -107.667 69.5 -164s21 -114.166 21 -173.499c0 -76 -10.333 -146.667 -31 -212
s-52.167 -119 -94.5 -161s-91.166 -63 -146.499 -63zM735.999 325.997c22 0 47.666 7.00195 76.999 21.002s55.333 33.333 78 58c21.333 22.667 32 103.667 32 243v216c-44 22 -98 33 -162 33c-42.667 0 -79.5 -14.667 -110.5 -44s-53.5 -65.833 -67.5 -109.5
s-21 -90.834 -21 -141.501c0 -74.667 15.333 -139.334 46 -194.001s73.334 -82 128.001 -82z" />
    <glyph glyph-name="A" unicode="A" horiz-adv-x="1081" 
d="M769 420l-219 754l-227 -754h446zM897 0l-97 328h-507l-100 -328h-139l400 1284h191l382 -1284h-130z" />
    <glyph glyph-name="B" unicode="B" horiz-adv-x="1041" 
d="M709 687c74.667 -17.333 133.334 -51.833 176.001 -103.5s64 -120.5 64 -206.5c0 -62 -7 -115 -21 -159s-33.333 -80.167 -58 -108.5s-57.667 -50.666 -99 -66.999s-85.666 -27.5 -132.999 -33.5s-104.333 -9 -171 -9h-318v1284h321c77.333 0 141.666 -4.5 192.999 -13.5
s95.666 -25.167 132.999 -48.5s64.5 -55.5 81.5 -96.5s25.5 -92.5 25.5 -154.5c0 -82.667 -14.667 -146.334 -44 -191.001s-79.333 -75.667 -150 -93zM821 375c0 88 -25.998 152.333 -77.998 193s-129.333 61 -232 61h-234v-529h197c47.333 0 87.666 2 120.999 6
s65.166 11.667 95.499 23s54.5 27 72.5 47s32.167 46.5 42.5 79.5s15.5 72.833 15.5 119.5zM510.002 723c98.667 0 170.167 18.332 214.5 54.999s66.5 101 66.5 193c0 78.667 -23 133.834 -69 165.501s-122 47.5 -228 47.5h-217v-461h233z" />
    <glyph glyph-name="C" unicode="C" horiz-adv-x="1014" 
d="M246 638c0 -184 32.6689 -320.332 98.002 -408.999s152.666 -133 261.999 -133c93.333 0 185.666 21.667 276.999 65l40 -97c-103.333 -49.333 -211.666 -74 -324.999 -74c-68.667 0 -131.667 13 -189 39s-107.833 64.833 -151.5 116.5s-77.834 119.667 -102.501 204
s-37 181.5 -37 291.5c0 233.333 37.833 401.666 113.5 504.999s193.834 155 354.501 155c104.667 0 208 -25 310 -75v-242h-109v173c-57.333 25.333 -120.666 38 -189.999 38c-60 0 -110.333 -7.83301 -151 -23.5s-76.834 -43.667 -108.501 -84
s-54.834 -97.5 -69.501 -171.5s-22 -166.667 -22 -278z" />
    <glyph glyph-name="D" unicode="D" horiz-adv-x="1099" 
d="M433 0l-284.002 -0.000976562v1284h273c76 0 142.333 -5 199 -15s105.834 -26.667 147.501 -50s76 -51.333 103 -84s48.667 -74.167 65 -124.5s27.833 -105.166 34.5 -164.499s10 -129.333 10 -210c0 -62 -1.83301 -116.667 -5.5 -164s-10.5 -94 -20.5 -140
s-23.667 -85.333 -41 -118s-39.666 -63.167 -66.999 -91.5s-60.166 -51 -98.499 -68s-83.833 -30.333 -136.5 -40s-112.334 -14.5 -179.001 -14.5zM421.998 1184l-144.997 0.00195312v-1084h156c42.667 0 81.167 2.16699 115.5 6.5s65.166 10.333 92.499 18
s51.333 18.5 72 32.5s38.5 28.833 53.5 44.5s27.667 35.5 38 59.5s18.666 47.833 24.999 71.5s11.166 52.667 14.499 87s5.66602 67.666 6.99902 99.999s2 71.166 2 116.499c0 70.667 -2 130.167 -6 178.5s-11.5 94.333 -22.5 138s-26.333 79 -46 106s-45.667 50.5 -78 70.5
s-71.166 34.167 -116.499 42.5s-99.333 12.5 -162 12.5z" />
    <glyph glyph-name="E" unicode="E" horiz-adv-x="921" 
d="M277 626v-526h545l16 -100h-689v1284h685l-22 -100h-535v-462h501v-96h-501z" />
    <glyph glyph-name="F" unicode="F" horiz-adv-x="852" 
d="M277 697h456v-94h-456v-603h-128v1284h667l-19 -100h-520v-487z" />
    <glyph glyph-name="G" unicode="G" horiz-adv-x="1094" 
d="M964 92c-24.667 -13.333 -45.166 -23.833 -61.499 -31.5s-41.666 -18 -75.999 -31s-72 -22.833 -113 -29.5s-84.167 -10 -129.5 -10c-172.667 0 -294.834 52.167 -366.501 156.5s-107.5 272.166 -107.5 503.499c0 230 40.667 396 122 498s203.666 153 366.999 153
c118 0 228 -25 330 -75v-242h-109v173c-57.333 25.333 -127.333 38 -210 38c-48 0 -89.833 -4.33301 -125.5 -13s-69.834 -24.667 -102.501 -48s-59.167 -54.666 -79.5 -93.999s-36.666 -91 -48.999 -155s-18.5 -139.333 -18.5 -226c0 -202.667 26 -347.167 78 -433.5
s144.333 -129.5 277 -129.5c104 0 190 16.333 258 49v422h-236v98h352v-573z" />
    <glyph glyph-name="H" unicode="H" horiz-adv-x="1134" 
d="M857 1284h128v-1284h-128v602h-580v-602h-128v1284h128v-581h580v581z" />
    <glyph glyph-name="I" unicode="I" horiz-adv-x="730" 
d="M432 1184v-1084h188v-100h-510v100h194v1084h-194v100h506v-100h-184z" />
    <glyph glyph-name="J" unicode="J" horiz-adv-x="643" 
d="M494 1284l-0.000976562 -1193c0 -118 -22.5 -201.333 -67.5 -250s-112.833 -73 -203.5 -73c-61.333 0 -120 10.667 -176 32l15 101c52.667 -18.667 103.334 -28 152.001 -28c56 0 95.333 16.833 118 50.5s34 89.5 34 167.5v1093h-261v100h389z" />
    <glyph glyph-name="K" unicode="K" horiz-adv-x="1032" 
d="M277 0h-128v1284h128v-675l155 169l393 506h150l-425 -563l451 -721h-141l-407 652l-176 -172v-480z" />
    <glyph glyph-name="L" unicode="L" horiz-adv-x="825" 
d="M277 1284v-1184h492l17 -100h-637v1284h128z" />
    <glyph glyph-name="M" unicode="M" horiz-adv-x="1362" 
d="M1012 1099l-273 -661h-115l-283 663l-86 -1101h-118l100 1284h142l302 -702l294 702h141l109 -1284h-118z" />
    <glyph glyph-name="N" unicode="N" horiz-adv-x="1193" 
d="M928 1284h116v-1284h-126l-647 1081v-1081h-122v1284h136l643 -1065v1065z" />
    <glyph glyph-name="O" unicode="O" horiz-adv-x="1128" 
d="M564 1301c68.667 0 128.83 -9.5 180.497 -28.5s94.5 -45.833 128.5 -80.5s61.333 -79.5 82 -134.5s35.334 -115.333 44.001 -181s13 -141.834 13 -228.501c0 -87.333 -4 -163.666 -12 -228.999s-22 -125.833 -42 -181.5s-46.833 -101 -80.5 -136
s-76.5 -62.333 -128.5 -82s-113.667 -29.5 -185 -29.5s-133 9.83301 -185 29.5s-94.833 47 -128.5 82s-60.5 80.333 -80.5 136s-34 116.167 -42 181.5s-12 141.666 -12 228.999c0 86.667 4.33301 162.834 13 228.501s23.334 126 44.001 181s48 99.833 82 134.5
s76.833 61.5 128.5 80.5s111.834 28.5 180.501 28.5zM563.996 96c121.333 0 205 42.167 251 126.5s69 225.166 69 422.499c0 198 -23.167 339.167 -69.5 423.5s-129.833 126.5 -250.5 126.5s-204.167 -42.167 -250.5 -126.5s-69.5 -225.5 -69.5 -423.5
c0 -197.333 23 -338.166 69 -422.499s129.667 -126.5 251 -126.5z" />
    <glyph glyph-name="P" unicode="P" horiz-adv-x="981" 
d="M277 640l84 -0.000976562c70 0 122.667 1 158 3s73.833 7.33301 115.5 16s71.5 22.334 89.5 41.001s33.333 44.5 46 77.5s19 74.833 19 125.5c0 107.333 -22.333 181 -67 221s-116.667 60 -216 60h-229v-544zM498 1284c68 0 126.5 -5.99902 175.5 -17.999
s92.333 -32.167 130 -60.5s66 -67.5 85 -117.5s28.5 -111 28.5 -183c0 -60.667 -7.66699 -112.834 -23 -156.501s-36.833 -79.167 -64.5 -106.5s-64.334 -48.833 -110.001 -64.5s-94.667 -26.5 -147 -32.5s-115.166 -9 -188.499 -9h-107v-536h-128v1284h349z" />
    <glyph glyph-name="Q" unicode="Q" horiz-adv-x="1132" 
d="M566 96c67.333 0 118.333 9.33301 153 28l-123 171l71 56l122 -171c34.667 42 59.5 100.667 74.5 176s22.5 171.666 22.5 288.999c0 198 -23.167 339.333 -69.5 424s-129.833 127 -250.5 127s-204.167 -42.333 -250.5 -127s-69.5 -226 -69.5 -424
c0 -197.333 23 -338.166 69 -422.499s129.667 -126.5 251 -126.5zM922 -159l-135 187.999c-59.333 -30 -133 -45 -221 -45c-71.333 0 -133.166 10 -185.499 30s-95.166 47.833 -128.499 83.5s-60 81.667 -80 138s-34 117.333 -42 183s-12 142.167 -12 229.5
c0 108.667 7.16699 202 21.5 280s38.166 146.333 71.499 205s79.333 102.5 138 131.5s131 43.5 217 43.5s158.333 -14.5 217 -43.5s104.667 -72.833 138 -131.5s57.166 -127 71.499 -205s21.5 -171.333 21.5 -280c0 -140.667 -11.5 -257.667 -34.5 -351
s-62.5 -165.666 -118.5 -216.999l132 -184z" />
    <glyph glyph-name="R" unicode="R" horiz-adv-x="1053" 
d="M789 920c0 34.667 -2.83301 65.3301 -8.5 91.9971s-13.334 49.334 -23.001 68.001s-23.667 34.334 -42 47.001s-36.666 22.834 -54.999 30.501s-42.833 13.5 -73.5 17.5s-59.667 6.5 -87 7.5s-62 1.5 -104 1.5h-119v-522h87c58 0 106.333 1.16699 145 3.5s75 7 109 14
s61 16.333 81 28s37.167 27.167 51.5 46.5s24.333 42.333 30 69s8.5 59 8.5 97zM975 40.9961l-104.997 -65.999c-138 228 -244.667 427.333 -320 598c-48 -4 -102.333 -6 -163 -6h-110v-567h-128v1284h253c61.333 0 113.666 -1.66699 156.999 -5s85.666 -9.5 126.999 -18.5
s75.333 -22 102 -39s50.167 -38.667 70.5 -65s35.166 -59 44.499 -98s14 -84.5 14 -136.5c0 -98 -20.167 -172.833 -60.5 -224.5s-102.833 -87.167 -187.5 -106.5c27.333 -62 66.5 -138.833 117.5 -230.5s95.167 -167.834 132.5 -228.501z" />
    <glyph glyph-name="S" unicode="S" horiz-adv-x="947" 
d="M819 1137c-102.667 38.667 -204.338 58 -305.005 58c-187.333 0 -281 -74.333 -281 -223c0 -54.667 12.333 -96.834 37 -126.501s73.667 -57.834 147 -84.501l114 -41l33 -12c29.333 -10 51.5 -17.833 66.5 -23.5s35.333 -14.667 61 -27s45.5 -23.833 59.5 -34.5
s30 -25.167 48 -43.5s31.5 -37.666 40.5 -57.999s16.833 -45 23.5 -74s10 -60.5 10 -94.5c0 -116 -35.333 -205.5 -106 -268.5s-166 -94.5 -286 -94.5c-154 0 -279.333 26 -376 78l28 105c36 -15.333 65.5 -27.333 88.5 -36s58 -17.667 105 -27s95.167 -14 144.5 -14
c85.333 0 152.333 21.5 201 64.5s73 107.833 73 194.5c0 30.667 -3.66699 57.667 -11 81s-16.666 42.666 -27.999 57.999s-28.666 29.833 -51.999 43.5s-45.666 24.834 -66.999 33.501s-50.666 19.334 -87.999 32.001l-123 41c-89.333 30 -156.833 70 -202.5 120
s-68.5 118.333 -68.5 205c0 59.333 10.167 110.833 30.5 154.5s48.833 78.167 85.5 103.5s77.834 44 123.501 56s96.5 18 152.5 18c130 0 245 -20.667 345 -62z" />
    <glyph glyph-name="T" unicode="T" horiz-adv-x="891" 
d="M35 1184v100h821v-100h-349v-1184h-128v1184h-344z" />
    <glyph glyph-name="U" unicode="U" horiz-adv-x="1080" 
d="M540 96c38.667 0 72.6709 3.66699 102.004 11s54.166 16.666 74.499 27.999s37.5 27.833 51.5 49.5s24.833 43 32.5 64s13.667 48.833 18 83.5s7 66.5 8 95.5s1.5 66.5 1.5 112.5v744h128v-649c0 -57.333 -0.666992 -106.166 -2 -146.499s-4.16602 -83 -8.49902 -128
s-10.833 -82.667 -19.5 -113s-19.834 -60.833 -33.501 -91.5s-30.834 -55.667 -51.501 -75s-45 -36.833 -73 -52.5s-61 -27 -99 -34s-81 -10.5 -129 -10.5s-91 3.5 -129 10.5s-71 18.333 -99 34s-52.333 33.167 -73 52.5s-37.834 44.333 -51.501 75
s-24.834 61.167 -33.501 91.5s-15.167 68 -19.5 113s-7.16602 87.667 -8.49902 128s-2 89.166 -2 146.499v649h128v-744c0 -46 0.5 -83.5 1.5 -112.5s3.66699 -60.833 8 -95.5s10.333 -62.5 18 -83.5s18.5 -42.333 32.5 -64s31.167 -38.167 51.5 -49.5
s45.166 -20.666 74.499 -27.999s63.333 -11 102 -11z" />
    <glyph glyph-name="V" unicode="V" horiz-adv-x="1008" 
d="M188 1285c43.333 -169.333 101.5 -383.833 174.5 -643.5l141.5 -507.5l137.5 500l175.5 651h135l-369 -1285h-158l-369 1285h132z" />
    <glyph glyph-name="W" unicode="W" horiz-adv-x="1337" 
d="M390 185l233 661h115l243 -663l106 1101h118l-120 -1284h-142l-262 702l-254 -702h-141l-129 1284h118z" />
    <glyph glyph-name="X" unicode="X" horiz-adv-x="899" 
d="M70 1284h130l252 -539l250 539h118l-285 -627l320 -657h-128l-274 569l-271 -569h-138l318 658z" />
    <glyph glyph-name="Y" unicode="Y" horiz-adv-x="926" 
d="M399 586l-384 698h142l306 -580l302 580h146l-384 -696v-588h-128v586z" />
    <glyph glyph-name="Z" unicode="Z" horiz-adv-x="927" 
d="M841 100v-100h-716l-21 98l569 1086h-538v100h669l16 -108l-568 -1076h589z" />
    <glyph glyph-name="bracketleft" unicode="[" horiz-adv-x="604" 
d="M288 0h256v-103h-384v1461h384v-104h-256v-1254z" />
    <glyph glyph-name="backslash" unicode="\" horiz-adv-x="884" 
d="M159 1473l625 -1528l-75 -41l-626 1528z" />
    <glyph glyph-name="bracketright" unicode="]" horiz-adv-x="604" 
d="M416 1255h-256v103h384v-1461h-384v104h256v1254z" />
    <glyph glyph-name="asciicircum" unicode="^" horiz-adv-x="943" 
d="M448 1211l-201 -436h-119l252 533h137l251 -532h-114z" />
    <glyph glyph-name="underscore" unicode="_" horiz-adv-x="1066" 
d="M100 -219v94h868v-94h-868z" />
    <glyph glyph-name="grave" unicode="`" horiz-adv-x="486" 
d="M419 1022l-53.001 -49.001c-101.333 88.667 -167.666 152.334 -198.999 191.001l-99 119l106 80z" />
    <glyph glyph-name="a" unicode="a" horiz-adv-x="953" 
d="M229 278c0 -124 72.0039 -186.001 216.004 -186.001c42.667 0 86.167 6.33301 130.5 19s80.833 28.334 109.5 47.001v315h-56c-32 0 -61.333 -0.833008 -88 -2.5s-56.334 -4.5 -89.001 -8.5s-61.334 -10.667 -86.001 -20s-47.834 -20.833 -69.501 -34.5
s-38.334 -31.5 -50.001 -53.5s-17.5 -47.333 -17.5 -76zM166.004 941.999c118 38.667 220.668 57.9961 308.001 57.9961c49.333 0 93.666 -6.83301 132.999 -20.5s74.5 -35 105.5 -64s55 -68.667 72 -119s25.5 -110.166 25.5 -179.499v-617h-92l-20 66
c-24 -19.333 -62.667 -36.833 -116 -52.5s-105.666 -23.5 -156.999 -23.5c-96 0 -172.667 25 -230 75s-86 123 -86 219c0 30.667 4.83301 59.167 14.5 85.5s26.334 51.833 50.001 76.5s53.667 45.834 90 63.501s82.833 31.667 139.5 42s121.334 15.5 194.001 15.5h88v32
c-0.666992 109.333 -19.834 186 -57.501 230s-90.834 66 -159.501 66c-10 0 -20.833 -0.5 -32.5 -1.5s-21.834 -2 -30.501 -3s-20.5 -3 -35.5 -6s-26 -5 -33 -6s-19.5 -3.66699 -37.5 -8s-29.333 -7.16602 -34 -8.49902s-17.5 -4.66602 -38.5 -9.99902l-35.5 -9z" />
    <glyph glyph-name="b" unicode="b" 
d="M268 1358v-434.999c83.333 51.333 174 77 272 77c104.667 0 186.834 -41.333 246.501 -124s89.5 -210.334 89.5 -383.001c0 -178.667 -30.333 -307.167 -91 -385.5s-152.334 -117.5 -275.001 -117.5c-96 0 -181.333 20 -256 60l-10 -50h-104v1358h128zM268 137.001
c58.667 -27.333 123.666 -41 194.999 -41h29c90.667 0 156 30.5 196 91.5s60 162.167 60 303.5c0 138.667 -17.833 240.667 -53.5 306s-92.5 98 -170.5 98c-71.333 0 -156.666 -28.667 -255.999 -86v-672z" />
    <glyph glyph-name="c" unicode="c" horiz-adv-x="864" 
d="M750 170l47.998 -91.002c-81.333 -59.333 -178.333 -89 -291 -89c-116.667 0 -212.334 43.667 -287.001 131s-112 212 -112 374c0 336.667 129.333 505 388 505c90.667 0 178.334 -20 263.001 -60v-258l-102 -10v200c-44 17.333 -98.333 26 -163 26
c-49.333 0 -91.166 -9.66699 -125.499 -29s-61 -47.666 -80 -84.999s-32.5 -79.5 -40.5 -126.5s-12 -101.833 -12 -164.5c0 -127.333 25.833 -225.666 77.5 -294.999s120.834 -104 207.501 -104c78 0 154.333 25.333 229 76z" />
    <glyph glyph-name="d" unicode="d" horiz-adv-x="1010" 
d="M742 1358h128.001v-1358h-104l-10 50c-74.667 -40 -155.334 -60 -242.001 -60c-61.333 0 -116 9.16699 -164 27.5s-90.5 47 -127.5 86s-65.333 91.333 -85 157s-29.5 143.167 -29.5 232.5c0 70 6.66699 133.5 20 190.5s31.5 104.833 54.5 143.5s50.5 71.167 82.5 97.5
s66.333 45.5 103 57.5s75.334 18 116.001 18c45.333 0 87.666 -5.33301 126.999 -16s83 -31 131 -61v435zM742.001 137l-0.00195312 672c-54.667 31.333 -100.167 53.5 -136.5 66.5s-71.5 19.5 -105.5 19.5c-81.333 0 -145.666 -33.833 -192.999 -101.5
s-71 -168.5 -71 -302.5c0 -263.333 98.667 -395 296 -395h28c62.667 0 123.334 13.667 182.001 41z" />
    <glyph glyph-name="e" unicode="e" horiz-adv-x="964" 
d="M508 895c-84 0 -148.333 -29.168 -193 -87.501s-71 -141.166 -79 -248.499h507v50c0 87.333 -21.167 156.833 -63.5 208.5s-99.5 77.5 -171.5 77.5zM525 95.999c102.667 0 196.001 26.668 280.001 80.001l39 -101c-45.333 -28 -96 -49.167 -152 -63.5
s-109.333 -21.5 -160 -21.5c-134.667 0 -239 40.667 -313 122s-111 209.333 -111 384c0 167.333 36 293.166 108 377.499s169 126.5 291 126.5c110 0 196.667 -36 260 -108s95 -168 95 -288c0 -27.333 -2.66699 -72.333 -8 -135h-618
c0.666992 -59.333 6.66699 -111.5 18 -156.5s25.666 -81 42.999 -108s38.833 -48.833 64.5 -65.5s51.5 -28 77.5 -34s54.667 -9 86 -9z" />
    <glyph glyph-name="f" unicode="f" horiz-adv-x="686" 
d="M254 0l-0.00292969 893.002h-192v92h192c0 75.333 3.5 136.833 10.5 184.5s20 88.834 39 123.501s45.333 59.667 79 75s77.167 24 130.5 26c72.667 0 134.334 -8.66699 185.001 -26l-16 -100c-14 4 -36.667 8.5 -68 13.5s-55.666 7.5 -72.999 7.5
c-31.333 0 -56.166 -3.33301 -74.499 -10s-34.333 -20.834 -48 -42.501s-23.167 -52.334 -28.5 -92.001s-8 -92.834 -8 -159.501h224v-92h-224v-893h-128z" />
    <glyph glyph-name="g" unicode="g" horiz-adv-x="1092" 
d="M521 -235c108 0 189.002 18.3311 243.002 54.998s81 80.334 81 131.001c0 38 -9.83301 66.5 -29.5 85.5s-58.834 28.5 -117.501 28.5h-379c-48.667 -46 -73 -94 -73 -144c0 -13.333 0.833008 -24.833 2.5 -34.5s5.16699 -21.167 10.5 -34.5
s14.166 -24.666 26.499 -33.999s28 -18.333 47 -27s44.667 -15.167 77 -19.5s69.5 -6.5 111.5 -6.5zM742.002 976.998h287v-94h-223c34.667 -26 61.334 -58 80.001 -96s28 -75.667 28 -113c0 -90.667 -34 -162.834 -102 -216.501s-157.333 -80.5 -268 -80.5
c-76 0 -144.667 12.333 -206 37c-44 -71.333 -66 -124.666 -66 -159.999c0 -16 2.66699 -31.5 8 -46.5s10.666 -25.833 15.999 -32.5l7 -10h379c105.333 0 178.833 -16.333 220.5 -49s62.5 -85 62.5 -157c0 -27.333 -4.16699 -54 -12.5 -80s-23.166 -52.5 -44.499 -79.5
s-48.333 -50.667 -81 -71s-75.834 -36.833 -129.501 -49.5s-114.5 -19 -182.5 -19c-63.333 0 -119.5 5.83301 -168.5 17.5s-87.5 26 -115.5 43s-50.833 37.167 -68.5 60.5s-29.5 45 -35.5 65s-9 40.333 -9 61c0 37.333 12.5 74.666 37.5 111.999s49.5 63 73.5 77
c-22 14.667 -39.333 35.334 -52 62.001s-19 53 -19 79c0 35.333 7.66699 68.666 23 99.999s42 74 80 128c-74 62 -111 136.333 -111 223c0 104.667 36.167 182.834 108.5 234.501s165.833 77.5 280.5 77.5c30 0 65 -3.83301 105 -11.5s72.667 -11.5 98 -11.5z
M545.002 904.998c-92 0 -159.499 -19.668 -202.499 -59.001s-64.5 -91.666 -64.5 -156.999c0 -69.333 22.667 -122.333 68 -159s108.333 -55 189 -55c85.333 0 150.333 17 195 51s67 84.667 67 152c0 65.333 -21.333 119.5 -64 162.5s-105.334 64.5 -188.001 64.5z" />
    <glyph glyph-name="h" unicode="h" horiz-adv-x="972" 
d="M268 800v-800h-128v1358h128v-447c107.333 59.333 207 89 299 89c94 0 163.667 -26.833 209 -80.5s68 -139.167 68 -256.5v-663h-128v669c0 80.667 -11.667 138.5 -35 173.5s-64 52.5 -122 52.5c-76.667 0 -173.667 -31.667 -291 -95z" />
    <glyph glyph-name="i" unicode="i" horiz-adv-x="677" 
d="M283 1264c0 28 8.66699 50.3311 26 66.998s39 25 65 25c27.333 0 49.166 -7.66699 65.499 -23s24.5 -37.666 24.5 -66.999s-8.16699 -51.666 -24.5 -66.999s-38.166 -23 -65.499 -23c-26.667 0 -48.5 7.83301 -65.5 23.5s-25.5 37.167 -25.5 64.5zM118 894.998v90h320
v-895h192v-90h-512v90h192v805h-192z" />
    <glyph glyph-name="j" unicode="j" horiz-adv-x="626" 
d="M202 -182c54.667 0 91.167 15.332 109.5 45.999s27.5 85.334 27.5 164.001v867h-224v90h352v-967c0 -108.667 -21.667 -188 -65 -238s-108.666 -75 -195.999 -75c-66 0 -122 6.66699 -168 20l16 109c43.333 -10.667 92.666 -16 147.999 -16zM310 1264
c0 28 8.66699 50.3311 26 66.998s39 25 65 25c27.333 0 49.166 -7.66699 65.499 -23s24.5 -37.666 24.5 -66.999s-8.16699 -51.666 -24.5 -66.999s-38.166 -23 -65.499 -23c-26.667 0 -48.5 7.83301 -65.5 23.5s-25.5 37.167 -25.5 64.5z" />
    <glyph glyph-name="k" unicode="k" horiz-adv-x="937" 
d="M140 0v1358h128v-864l451 491h153l-416 -463l452 -522h-148l-179.5 203l-144.5 167l-51 59l-26 29l-91 -81v-377h-128z" />
    <glyph glyph-name="l" unicode="l" horiz-adv-x="682" 
d="M72 1358h349v-1268h211v-90h-562v90h223v1177h-221v91z" />
    <glyph glyph-name="m" unicode="m" horiz-adv-x="1501" 
d="M1080 1000c94 0 166.335 -27.5 217.002 -82.5s76 -137.167 76 -246.5v-671h-128v672c0 148.667 -53.667 223 -161 223c-109.333 0 -198.333 -21.667 -267 -65c1.33301 -8 3.66602 -30.667 6.99902 -68s5 -70 5 -98v-664h-128v668c0 80.667 -11.667 138.667 -35 174
s-64.333 53.333 -123 54h-2c-36 0 -79 -5.83301 -129 -17.5s-98 -30.167 -144 -55.5v-823h-128v985h118l5 -63c94 52 193 78 297 78c103.333 0 173.333 -27.333 210 -82c101.333 54.667 204.666 82 309.999 82z" />
    <glyph glyph-name="n" unicode="n" horiz-adv-x="985" 
d="M268 822l0.000976562 -822h-128v985h105l9 -64c65.333 30.667 120 51.5 164 62.5s91.333 16.5 142 16.5c101.333 0 176.166 -27.667 224.499 -83s72.5 -140 72.5 -254v-663h-128v668c0 81.333 -12.833 139.5 -38.5 174.5s-71.5 52.5 -137.5 52.5
c-101.333 0 -196.333 -24.333 -285 -73z" />
    <glyph glyph-name="o" unicode="o" 
d="M492 -10c-130 0 -226.502 43.833 -289.502 131.5s-94.5 212.167 -94.5 373.5c0 168.667 30.833 295 92.5 379s158.834 126 291.501 126s229.834 -42 291.501 -126s92.5 -210.333 92.5 -379c0 -161.333 -31.5 -285.833 -94.5 -373.5s-159.5 -131.5 -289.5 -131.5z
M491.998 895c-38.667 0 -72.6709 -6.5 -102.004 -19.5s-53.666 -30.833 -72.999 -53.5s-35.166 -51 -47.499 -85s-21 -70.667 -26 -110s-7.5 -83.333 -7.5 -132c0 -62.667 4 -117.167 12 -163.5s21.5 -87.833 40.5 -124.5s45.5 -64.334 79.5 -83.001s75.333 -28 124 -28
s90 9.33301 124 28s60.5 46.334 79.5 83.001s32.5 78.167 40.5 124.5s12 100.833 12 163.5c0 48.667 -2.5 92.667 -7.5 132s-13.667 76 -26 110s-28.166 62.333 -47.499 85s-43.666 40.5 -72.999 53.5s-63.333 19.5 -102 19.5z" />
    <glyph glyph-name="p" unicode="p" horiz-adv-x="982" 
d="M268 43v-431.999h-128v1374h105l12 -69c86 56 180.333 84 283 84c104.667 0 186.834 -41.333 246.501 -124s89.5 -210.334 89.5 -383.001c0 -178.667 -30.333 -307.167 -91 -385.5s-152.334 -117.5 -275.001 -117.5c-90 0 -170.667 17.667 -242 53zM268 809.001
l-0.000976562 -672c58.667 -27.333 123.667 -41 195 -41h29c90.667 0 156 30.5 196 91.5s60 162.167 60 303.5c0 138.667 -17.833 240.667 -53.5 306s-92.5 98 -170.5 98c-71.333 0 -156.666 -28.667 -255.999 -86z" />
    <glyph glyph-name="q" unicode="q" 
d="M716 42c-61.333 -34.667 -139.668 -51.999 -235.001 -51.999c-123.333 0 -216.333 39.333 -279 118s-94 207 -94 385c0 177.333 31.5 306.166 94.5 386.499s149.5 120.5 259.5 120.5c44.667 0 86.334 -5.5 125.001 -16.5s82 -31.167 130 -60.5l21 62h106v-1374h-128v431z
M486.998 96.001c92.667 0 169 13.667 229 41v684c-50.667 29.333 -94.167 49 -130.5 59s-73.5 15 -111.5 15c-158.667 0 -238 -134.667 -238 -404c0 -142 19.333 -243.333 58 -304s103 -91 193 -91z" />
    <glyph glyph-name="r" unicode="r" horiz-adv-x="651" 
d="M273 899c39.333 26.667 89.168 49.667 149.501 69s115.833 30 166.5 32v-107c-58 0 -116.833 -8.83301 -176.5 -26.5s-105.834 -38.5 -138.501 -62.5v-804h-128v985h122z" />
    <glyph glyph-name="s" unicode="s" horiz-adv-x="838" 
d="M150 167c33.333 -18.667 76.5029 -35.1709 129.503 -49.5039s103.833 -21.5 152.5 -21.5c61.333 0 110.833 13.167 148.5 39.5s56.5 69.5 56.5 129.5c0 46.667 -10.667 81.5 -32 104.5s-54.333 41.5 -99 55.5l-150 47c-40 12.667 -72.833 25.167 -98.5 37.5
s-49.5 28.333 -71.5 48s-38 44 -48 73s-15 63.833 -15 104.5c0 89.333 30.667 155.833 92 199.5s138.666 65.5 231.999 65.5s182 -19.333 266 -58l-38 -96c-68.667 32.667 -141.667 49 -219 49c-62 0 -112.667 -13.167 -152 -39.5s-59 -68.166 -59 -125.499
c0 -42.667 10.833 -72.667 32.5 -90s60.5 -35 116.5 -53l147 -47c54 -17.333 96.167 -36.166 126.5 -56.499s53.666 -47.666 69.999 -81.999s24.5 -77.833 24.5 -130.5c0 -50 -8.66699 -93.667 -26 -131s-41.5 -66.666 -72.5 -87.999s-65.167 -37 -102.5 -47
s-78.333 -15 -123 -15c-110.667 0 -220.334 26.333 -329.001 79z" />
    <glyph glyph-name="t" unicode="t" horiz-adv-x="742" 
d="M472 -10c-53.333 1.33301 -97.1689 10.001 -131.502 26.001s-61.166 41.167 -80.499 75.5s-32.666 74.666 -39.999 120.999s-11 104.833 -11 175.5v507h-153v90h157l25 282h99v-282h308v-90h-308v-509c0 -64 3.5 -116 10.5 -156s18.667 -69.5 35 -88.5
s33.5 -31.333 51.5 -37s42 -8.5 72 -8.5c68.667 0 118.667 2.33301 150 7l5 -103c-53.333 -6.66699 -116.333 -10 -189 -10z" />
    <glyph glyph-name="u" unicode="u" horiz-adv-x="986" 
d="M717 163l-0.00195312 822h128v-985h-105l-9 64c-63.333 -30 -117.166 -49.833 -161.499 -59.5s-93.5 -14.5 -147.5 -14.5c-101.333 0 -175.666 26.667 -222.999 80s-71 137 -71 251v664h128v-669c0 -80 13.167 -136.667 39.5 -170s72.833 -50 139.5 -50
c33.333 0 60.5 0.833008 81.5 2.5s50.333 7.66699 88 18s75.167 25.833 112.5 46.5z" />
    <glyph glyph-name="v" unicode="v" horiz-adv-x="912" 
d="M463 137l253 848h131l-316 -985h-137l-329 985h130z" />
    <glyph glyph-name="w" unicode="w" horiz-adv-x="1298" 
d="M716 763l214 -650l178 872h125l-224 -985h-140l-212 627l-211 -627h-142l-239 985h125l191 -872l217 650h118z" />
    <glyph glyph-name="x" unicode="x" horiz-adv-x="844" 
d="M664 0l-236 423l-240 -423h-130l297 504l-285 481h126l231 -406l212 406h128l-266 -482l285 -503h-122z" />
    <glyph glyph-name="y" unicode="y" horiz-adv-x="963" 
d="M285 -390c-49.333 0 -104.331 11.6709 -164.998 35.0039l20 102l1 1c60 -18 105 -27 135 -27c10 0 19.333 1.16699 28 3.5s16.667 6.33301 24 12s13.833 11.167 19.5 16.5s11.5 13.333 17.5 24l15 27c4 7.33301 8.5 18.166 13.5 32.499l12 33.5
c3 8 7.16699 20.5 12.5 37.5l12 37.5l27 81l-405 959h137l324 -819l265 819h136l-346 -1001c-19.333 -56 -35.166 -99.833 -47.499 -131.5s-27.333 -65.334 -45 -101.001s-34.834 -62.334 -51.501 -80.001s-36.834 -32.334 -60.501 -44.001s-49.834 -17.5 -78.501 -17.5z
" />
    <glyph glyph-name="z" unicode="z" horiz-adv-x="799" 
d="M571 895h-441v90h570l10 -85l-450 -810h465v-90h-592l-14 96z" />
    <glyph glyph-name="braceleft" unicode="{" horiz-adv-x="620" 
d="M64 712l146 89.002c4 52 6 113.333 6 184v32l-1 129c0 40 0.833008 74.167 2.5 102.5s5 54.666 10 78.999s10.667 44.333 17 60s16.166 29.667 29.499 42s27.166 21.833 41.499 28.5s33.666 12 57.999 16s49.333 6.66699 75 8s57.5 2 95.5 2l8 -92h-25
c-35.333 0 -61.333 -0.333008 -78 -1s-34.667 -4 -54 -10s-32.5 -13.667 -39.5 -23s-14 -24.333 -21 -45s-11.167 -44.5 -12.5 -71.5s-2 -62.5 -2 -106.5v-386l-145 -85l145 -85v-386c0 -44 0.666992 -79.5 2 -106.5s5.5 -50.833 12.5 -71.5s14 -35.667 21 -45
s20.167 -17 39.5 -23s37.333 -9.33301 54 -10s42.667 -1 78 -1h25l-8 -92c-38 0 -69.833 0.666992 -95.5 2s-50.667 4 -75 8s-43.666 9.33301 -57.999 16s-28.166 16.167 -41.499 28.5s-23.166 26.333 -29.499 42s-12 35.667 -17 60s-8.33301 50.666 -10 78.999
s-2.5 62.5 -2.5 102.5l1 129v32c0 70.667 -2 132 -6 184l-146 89v96z" />
    <glyph glyph-name="bar" unicode="|" horiz-adv-x="423" 
d="M162 -65v1396h107v-1396h-107z" />
    <glyph glyph-name="braceright" unicode="}" horiz-adv-x="620" 
d="M558 616l-146 -89.002c-4 -52 -6 -113.333 -6 -184v-32l1 -129c0 -40 -0.833008 -74.167 -2.5 -102.5s-5 -54.666 -10 -78.999s-10.667 -44.333 -17 -60s-16.166 -29.667 -29.499 -42s-27.166 -21.833 -41.499 -28.5s-33.666 -12 -57.999 -16s-49.333 -6.66699 -75 -8
s-57.5 -2 -95.5 -2l-8 92h25c35.333 0 61.333 0.333008 78 1s34.667 4 54 10s32.5 13.667 39.5 23s14 24.333 21 45s11.167 44.5 12.5 71.5s2 62.5 2 106.5v386l145 85l-145 85v386c0 44 -0.666992 79.5 -2 106.5s-5.5 50.833 -12.5 71.5s-14 35.667 -21 45
s-20.167 17 -39.5 23s-37.333 9.33301 -54 10s-42.667 1 -78 1h-25l8 92c38 0 69.833 -0.666992 95.5 -2s50.667 -4 75 -8s43.666 -9.33301 57.999 -16s28.166 -16.167 41.499 -28.5s23.166 -26.333 29.499 -42s12 -35.667 17 -60s8.33301 -50.666 10 -78.999
s2.5 -62.5 2.5 -102.5l-1 -129v-32c0 -70.667 2 -132 6 -184l146 -89v-96z" />
    <glyph glyph-name="asciitilde" unicode="~" horiz-adv-x="1038" 
d="M108 530c39.333 60.667 76.499 107.001 111.499 139.001s73.167 48 114.5 48c25.333 0 51.166 -5.83301 77.499 -17.5s74.166 -37.5 143.499 -77.5c79.333 -46 130 -69 152 -69c22.667 0 45.167 10.167 67.5 30.5s48.833 52.166 79.5 95.499l76 -59
c-16.667 -27.333 -30.667 -49 -42 -65s-26.666 -34.5 -45.999 -55.5s-40.666 -36.667 -63.999 -47s-48.333 -15.5 -75 -15.5c-28 0 -55.833 6.16699 -83.5 18.5s-73.167 37.5 -136.5 75.5c-71.333 45.333 -119.666 68 -144.999 68s-49.5 -10 -72.5 -30
s-50.5 -53.333 -82.5 -100l-78 61h3z" />
    <glyph glyph-name="uni00A0" unicode="&#xa0;" horiz-adv-x="667" 
 />
    <glyph glyph-name="exclamdown" unicode="&#xa1;" horiz-adv-x="446" 
d="M289 998h-138v154h138v-154zM295 -132h-137l38 943h59z" />
    <glyph glyph-name="cent" unicode="&#xa2;" horiz-adv-x="878" 
d="M445 -15c-107.333 12.667 -187.667 62.502 -241 149.502s-80 204.167 -80 351.5c0 305.333 105.667 470.666 317 495.999v143h98v-141c68 -6.66699 128 -19.334 180 -38.001l-23 -102c-68 24.667 -136 37 -204 37c-48 0 -89.333 -10.167 -124 -30.5
s-61.834 -48.833 -81.501 -85.5s-34.167 -78 -43.5 -124s-14 -97.333 -14 -154c0 -127.333 22.167 -226 66.5 -296s109.833 -105 196.5 -105c58 0 135 19 231 57l28 -102c-71.333 -30 -140.666 -49 -207.999 -57v-131h-98v132z" />
    <glyph glyph-name="sterling" unicode="&#xa3;" horiz-adv-x="913" 
d="M156 -1l-39 117.999c96 100.667 144 213.334 144 338.001c0 52 -7 105.667 -21 161h-155v96h133c-26.667 90 -40 170.667 -40 242c0 113.333 32.333 199.833 97 259.5s156 89.5 274 89.5c90 0 172.667 -27.333 248 -82l-42 -93c-63.333 44.667 -131.333 67 -204 67
c-173.333 0 -260 -85.667 -260 -257c0 -62 12.333 -137.333 37 -226h337v-96h-315c16 -85.333 24 -153 24 -203c0 -126 -41.333 -231.667 -124 -317h572l1 -96z" />
    <glyph glyph-name="currency" unicode="&#xa4;" horiz-adv-x="1048" 
d="M209 333l-77 78.999l113 114c-41.333 52.667 -62 117.334 -62 194.001s20.667 141.334 62 194.001l-113 116l77 79l120 -123c55.333 43.333 120.333 65 195 65c73.333 0 138.333 -21.667 195 -65l119 123l78 -79l-115 -116c42 -52.667 63 -117.334 63 -194.001
c0 -76 -21 -140.667 -63 -194l115 -114l-78 -79l-119 121c-55.333 -44 -120.333 -66 -195 -66c-75.333 0 -140.333 22 -195 66zM767 719.999c0 77.333 -24 137.666 -72 180.999s-105 65 -171 65s-123.167 -21.833 -171.5 -65.5s-72.5 -104.167 -72.5 -181.5
s24.167 -137.666 72.5 -180.999s105.5 -65 171.5 -65s123 21.667 171 65s72 104 72 182z" />
    <glyph glyph-name="yen" unicode="&#xa5;" horiz-adv-x="1132" 
d="M239 559v96h234l-356 629h142l306 -580l302 580h146l-357 -629h231l-1 -96h-257v-107h257v-97h-257v-355h-128v355h-262v97h262v107h-262z" />
    <glyph glyph-name="brokenbar" unicode="&#xa6;" horiz-adv-x="423" 
d="M162 -65v592h107v-592h-107zM162 776v555h107v-555h-107z" />
    <glyph glyph-name="section" unicode="&#xa7;" horiz-adv-x="935" 
d="M769 200c0 -94 -26.833 -164.001 -80.5 -210.001s-130.5 -69 -230.5 -69c-72.667 0 -133.5 8 -182.5 24s-93.5 43 -133.5 81l43 90c84.667 -60 176.334 -90 275.001 -90c131.333 0 197 53.667 197 161c0 42 -7.83301 73.333 -23.5 94s-43.5 40 -83.5 58l-140 61l-70 30.5
c-16 7 -34.833 16 -56.5 27s-37.5 20.167 -47.5 27.5s-21.667 16.5 -35 27.5s-22.833 21.667 -28.5 32s-11.5 22.666 -17.5 36.999s-9.83301 29.5 -11.5 45.5s-2.5 34.333 -2.5 55c0 95.333 46.333 169 139 221c-76.667 48.667 -115 122.334 -115 221.001
c0 95.333 27.167 166.333 81.5 213s131.166 70 230.499 70c125.333 0 222.333 -31.333 291 -94l-46 -88c-77.333 52 -158.333 78 -243 78c-68 0 -118.833 -13.333 -152.5 -40s-50.5 -70 -50.5 -130c0 -46.667 11.5 -82 34.5 -106s58.833 -46.667 107.5 -68
c25.333 -11.333 55.166 -24 89.499 -38l79.5 -32.5c18.667 -7.66699 40.334 -17.5 65.001 -29.5s43.167 -22.667 55.5 -32s25.833 -21.166 40.5 -35.499s25.167 -29.5 31.5 -45.5s11.833 -34.833 16.5 -56.5s7 -46.167 7 -73.5c0 -84 -38.667 -157.667 -116 -221
c54 -42 81 -107.333 81 -196zM633 475.999c15.333 18 26.167 31.333 32.5 40s12.833 22.167 19.5 40.5s10 38.5 10 60.5c0 37.333 -12.167 67.833 -36.5 91.5s-56.166 44.5 -95.499 62.5c-8.66699 4 -42.5 18.167 -101.5 42.5s-95.167 39.5 -108.5 45.5
c-67.333 -41.333 -101 -95 -101 -161c0 -42.667 9.16699 -75 27.5 -97s48.5 -40.667 90.5 -56l109 -45c73.333 -30 115.666 -48 126.999 -54v-2z" />
    <glyph glyph-name="dieresis" unicode="&#xa8;" horiz-adv-x="450" 
d="M139 1126v-126h-139v126h139zM451 1126v-126h-137v126h137z" />
    <glyph glyph-name="copyright" unicode="&#xa9;" horiz-adv-x="1583" 
d="M237 646c0 -102 24.667 -195.996 74 -281.996s116.5 -154.167 201.5 -204.5s177.5 -75.5 277.5 -75.5c100.667 0 193.5 25.167 278.5 75.5s152.333 118.666 202 204.999s74.5 180.166 74.5 281.499s-24.833 195.166 -74.5 281.499s-117 154.666 -202 204.999
s-177.833 75.5 -278.5 75.5c-100 0 -192.5 -25.167 -277.5 -75.5s-152.167 -118.5 -201.5 -204.5s-74 -180 -74 -282zM140 646.004c0 88 17.167 172.167 51.5 252.5s80.5 149.666 138.5 207.999s127.167 104.666 207.5 138.999s164.5 51.5 252.5 51.5
s172.333 -17.167 253 -51.5s150 -80.666 208 -138.999s104.333 -127.666 139 -207.999s52 -164.5 52 -252.5s-17.333 -172.167 -52 -252.5s-81 -149.666 -139 -207.999s-127.333 -104.666 -208 -138.999s-165 -51.5 -253 -51.5s-172.167 17.167 -252.5 51.5
s-149.5 80.666 -207.5 138.999s-104.167 127.666 -138.5 207.999s-51.5 164.5 -51.5 252.5zM814 292.004c70.667 0 139.667 17.999 207 53.999l33 -73c-78 -41.333 -160.333 -62 -247 -62c-127.333 0 -227.166 40.333 -299.499 121s-108.5 183.334 -108.5 308.001
c0 58 8.16699 113 24.5 165s40.166 99.167 71.499 141.5s73.166 76 125.499 101s111.5 37.5 177.5 37.5c78 0 156 -20.667 234 -62v-198h-89v153c-44.667 17.333 -94 26 -148 26c-62.667 0 -116.667 -18 -162 -54s-78.166 -81 -98.499 -135s-30.5 -113 -30.5 -177
c0 -104 27 -187.667 81 -251s130.333 -95 229 -95z" />
    <glyph glyph-name="ordfeminine" unicode="&#xaa;" horiz-adv-x="740" 
d="M496 863l-0.000976562 143.999l-72 -3h-15c-21.333 0 -38 -0.333008 -50 -1s-26.5 -2 -43.5 -4s-30.333 -5.66699 -40 -11s-19.167 -12.166 -28.5 -20.499s-16.166 -19.333 -20.499 -33s-6.5 -29.834 -6.5 -48.501c0 -43.333 9 -73.666 27 -90.999s48.333 -26 91 -26
c69.333 0 122 31.333 158 94zM358.999 1265c-43.333 -4 -78.168 -11.0039 -104.501 -21.0039s-47.5 -25.667 -63.5 -47l-42 68c56 58.667 132.667 88 230 88c79.333 0 133.666 -20 162.999 -60s44 -113 44 -219v-229v-10v-8.5v-7c0 -3 0.166992 -5.16699 0.5 -6.5
s0.666016 -3.16602 0.999023 -5.49902s0.833008 -4.16602 1.5 -5.49902s1.33398 -2.83301 2.00098 -4.5s1.66699 -3.16699 3 -4.5l4 -4l7 -96c-34 -6.66699 -57 -10 -69 -10c-19.333 16 -30.333 42.333 -33 79c-58.667 -54.667 -121 -82 -187 -82
c-60 0 -106.333 17.5 -139 52.5s-49 84.5 -49 148.5c0 69.333 18.167 119.833 54.5 151.5s91.833 49.167 166.5 52.5c11.333 0 36.5 -0.333008 75.5 -1s62.833 -1 71.5 -1c-0.666992 26.667 -1.66699 48 -3 64s-4.16602 32.333 -8.49902 49s-10.666 29.334 -18.999 38.001
s-19.5 15.834 -33.5 21.501s-31 8.5 -51 8.5h-21z" />
    <glyph glyph-name="guillemotleft" unicode="&#xab;" horiz-adv-x="967" 
d="M834 817l-273 -272l273 -266l-28 -119l-359 360l22 80l337 336zM493 817l-274 -272l274 -266l-30 -119l-357 360l22 80l335 336z" />
    <glyph glyph-name="logicalnot" unicode="&#xac;" horiz-adv-x="1151" 
d="M148 725v106h851v-509h-118v403h-733z" />
    <glyph glyph-name="uni00AD" unicode="&#xad;" horiz-adv-x="1040" 
d="M153 725v106h733v-106h-733z" />
    <glyph glyph-name="registered" unicode="&#xae;" horiz-adv-x="1583" 
d="M1027 853c0 22 -2.83203 40.8311 -8.49902 56.498s-15.5 28.834 -29.5 39.501s-28.833 19 -44.5 25s-37.667 10.5 -66 13.5s-55.333 5 -81 6s-59.167 1.5 -100.5 1.5h-62v-292h35c141.333 0 236.166 9.33301 284.499 28s72.5 59.334 72.5 122.001zM1102 272.998
l-98 -46.998c-76.667 152.667 -136 286.667 -178 402c-44.667 -3.33301 -90.334 -5 -137.001 -5h-54v-396h-108v852h195c56.667 0 104.334 -1.5 143.001 -4.5s76.334 -9.16699 113.001 -18.5s65.5 -22.333 86.5 -39s37.833 -38.834 50.5 -66.501s19 -61.167 19 -100.5
c0 -62 -17.5 -109.833 -52.5 -143.5s-86.833 -56.834 -155.5 -69.501c16 -41.333 38.667 -92.333 68 -153s54.666 -111 75.999 -151zM237.001 646c0 -102 24.667 -195.996 74 -281.996s116.5 -154.167 201.5 -204.5s177.5 -75.5 277.5 -75.5
c100.667 0 193.5 25.167 278.5 75.5s152.333 118.666 202 204.999s74.5 180.166 74.5 281.499s-24.833 195.166 -74.5 281.499s-117 154.666 -202 204.999s-177.833 75.5 -278.5 75.5c-100 0 -192.5 -25.167 -277.5 -75.5s-152.167 -118.5 -201.5 -204.5s-74 -180 -74 -282z
M140.001 646.004c0 88 17.167 172.167 51.5 252.5s80.5 149.666 138.5 207.999s127.167 104.666 207.5 138.999s164.5 51.5 252.5 51.5s172.333 -17.167 253 -51.5s150 -80.666 208 -138.999s104.333 -127.666 139 -207.999s52 -164.5 52 -252.5
s-17.333 -172.167 -52 -252.5s-81 -149.666 -139 -207.999s-127.333 -104.666 -208 -138.999s-165 -51.5 -253 -51.5s-172.167 17.167 -252.5 51.5s-149.5 80.666 -207.5 138.999s-104.167 127.666 -138.5 207.999s-51.5 164.5 -51.5 252.5z" />
    <glyph glyph-name="macron" unicode="&#xaf;" horiz-adv-x="608" 
d="M64 1078v106h480v-106h-480z" />
    <glyph glyph-name="degree" unicode="&#xb0;" horiz-adv-x="699" 
d="M486 1168c0 48.667 -12.333 87.501 -37 116.501s-58.667 43.5 -102 43.5c-42 0 -74.833 -14.167 -98.5 -42.5s-35.5 -66.833 -35.5 -115.5s11.833 -87.334 35.5 -116.001s56.5 -43 98.5 -43s75.667 14.5 101 43.5s38 66.833 38 113.5zM350 917.001
c-70.667 0 -127.999 23.168 -171.999 69.501s-66 107.166 -66 182.499c0 76.667 22.5 137.834 67.5 183.501s102.5 68.5 172.5 68.5c69.333 0 125.666 -23.333 168.999 -70s65 -107.334 65 -182.001c0 -75.333 -22 -136 -66 -182s-100.333 -69 -169 -69z" />
    <glyph glyph-name="plusminus" unicode="&#xb1;" horiz-adv-x="1176" 
d="M641 1042v-323h383v-109h-383v-311h-107v311h-383v109h383v323h107zM151 82v106h873v-106h-873z" />
    <glyph glyph-name="uni00B2" unicode="&#xb2;" horiz-adv-x="775" 
d="M658 946c0 -46 -12.166 -90.501 -36.499 -133.501s-54.666 -81.833 -90.999 -116.5l-110.5 -101.5c-37.333 -33 -72 -69.167 -104 -108.5s-53 -78.333 -63 -117h384v-105h-515c0 28.667 3 56.334 9 83.001s12.5 50.167 19.5 70.5s18.5 42.5 34.5 66.5l38 55.5
c9.33301 13 25.5 31.333 48.5 55s39.167 39.667 48.5 48l53 48.5c27.333 24.667 48.666 45 63.999 61s31.666 34.833 48.999 56.5s29.833 43.167 37.5 64.5s11.5 43.333 11.5 66c0 53.333 -13 93.5 -39 120.5s-69.333 40.5 -130 40.5c-77.333 0 -151.666 -26 -222.999 -78
l-41 100c48 26 91.167 45 129.5 57s85.166 18 140.499 18c92.667 0 163.5 -23.667 212.5 -71s73.5 -107.333 73.5 -180z" />
    <glyph glyph-name="uni00B3" unicode="&#xb3;" horiz-adv-x="736" 
d="M82 1158c94 28.667 176.667 42.999 248 42.999c87.333 0 156.833 -19.5 208.5 -58.5s77.5 -94.833 77.5 -167.5c0 -53.333 -12.833 -96.333 -38.5 -129s-62.834 -58.667 -111.501 -78c54.667 -15.333 99.834 -45.166 135.501 -89.499s53.5 -94.833 53.5 -151.5
c0 -47.333 -9.16699 -88.5 -27.5 -123.5s-43.5 -62.167 -75.5 -81.5s-66.833 -33.5 -104.5 -42.5s-78.5 -13.5 -122.5 -13.5c-88 0 -169 13 -243 39l26 96c69.333 -25.333 142.666 -38 219.999 -38c32 0 60.333 2.66699 85 8s47.334 14.166 68.001 26.499s36.5 30 47.5 53
s16.5 51.167 16.5 84.5c0 56 -20 99 -60 129s-88.667 45 -146 45c-42.667 0 -89.334 -5.33301 -140.001 -16l-10 96c53.333 6.66699 97.5 13.667 132.5 21s67.5 17.5 97.5 30.5s52.167 29.833 66.5 50.5s21.5 45.667 21.5 75c0 44.667 -14.833 78.834 -44.5 102.501
s-72.5 35.5 -128.5 35.5c-69.333 0 -144.666 -13.333 -225.999 -40z" />
    <glyph glyph-name="acute" unicode="&#xb4;" horiz-adv-x="410" 
d="M113 1022l245 340.999l106 -80l-97 -109c-14 -17.333 -37.667 -42.666 -71 -75.999l-90 -88l-40 -37z" />
    <glyph glyph-name="paragraph" unicode="&#xb6;" horiz-adv-x="1039" 
d="M564 547l0.00195312 695.002c-32.667 0 -61.167 -0.833008 -85.5 -2.5s-50.333 -5.33398 -78 -11.001s-51.334 -13.334 -71.001 -23.001s-39.167 -23 -58.5 -40s-34.833 -37.167 -46.5 -60.5s-21 -52 -28 -86s-10.5 -72.333 -10.5 -115c0 -52.667 5.5 -98.5 16.5 -137.5
s26.167 -71.5 45.5 -97.5s45.166 -47.5 77.499 -64.5s67.333 -29.833 105 -38.5s82.167 -15 133.5 -19zM889.002 0.00195312l-65 -0.00292969v1241h-195v-1241h-65v482c-73.333 6 -135 16.333 -185 31s-95.5 37.334 -136.5 68.001s-71.5 72.834 -91.5 126.501
s-30 119.834 -30 198.501c0 76.667 9.66699 141 29 193s48.833 92.667 88.5 122s85.5 50 137.5 62s114.667 18 188 18h325v-1301z" />
    <glyph glyph-name="periodcentered" unicode="&#xb7;" horiz-adv-x="452" 
d="M375 746v-192h-160v192h160z" />
    <glyph glyph-name="cedilla" unicode="&#xb8;" horiz-adv-x="936" 
d="M481 -137c58 -0.666992 103.499 -13.168 136.499 -37.501s49.5 -59.166 49.5 -104.499c0 -59.333 -17.167 -104.5 -51.5 -135.5s-78.5 -46.5 -132.5 -46.5c-44 0 -88 10 -132 30l15 80c35.333 -16 67.666 -24 96.999 -24c28 0 50.333 7.5 67 22.5s25 37.833 25 68.5
c0 10 -0.833008 19 -2.5 27s-4.83398 15 -9.50098 21s-9 11.167 -13 15.5s-10.167 8.16602 -18.5 11.499l-20.5 8c-5.33301 2 -13.666 3.83301 -24.999 5.5s-19.666 2.83398 -24.999 3.50098s-14.666 1.66699 -27.999 3s-22.333 2.33301 -27 3l1 116h104z" />
    <glyph glyph-name="uni00B9" unicode="&#xb9;" horiz-adv-x="653" 
d="M410 373h146v-93h-427v93h169v712l-165 -71l-44 85l227 97h94v-823z" />
    <glyph glyph-name="ordmasculine" unicode="&#xba;" horiz-adv-x="754" 
d="M373 1349c88.667 0 153 -27.333 193 -82s60 -138 60 -250c0 -110 -20 -193.833 -60 -251.5s-104.333 -86.5 -193 -86.5c-166.667 0 -250 112 -250 336c0 223.333 83.333 335 250 335v-1zM534 1016c0 88.667 -11.333 152.167 -34 190.5s-65 57.5 -127 57.5
c-61.333 0 -103 -18.667 -125 -56s-33 -101.333 -33 -192c0 -85.333 11 -148 33 -188s63.667 -60 125 -60c63.333 0 106 18.667 128 56s33 101.333 33 192z" />
    <glyph glyph-name="guillemotright" unicode="&#xbb;" horiz-adv-x="968" 
d="M497 600l21 -80l-359 -360l-28 119l273 266l-273 272l28 119zM831 608l28 -88l-357 -360l-30 119l275 266l-275 272l30 119z" />
    <glyph glyph-name="onequarter" unicode="&#xbc;" horiz-adv-x="1863" 
d="M408 373h146v-93h-427v93h169v712l-165 -71l-44 85l227 97h94v-823zM1138 1332l-526 -1452l-99 6l523 1446h102zM1498 0v260h-493v83l358 787h114l-349 -783h370v315h111v-315h160v-87h-160v-260h-111z" />
    <glyph glyph-name="onehalf" unicode="&#xbd;" horiz-adv-x="1686" 
d="M1120 1332l-526 -1452l-99 6l523 1446h102zM1614 667c0 -46 -12.166 -90.501 -36.499 -133.501s-54.666 -81.833 -90.999 -116.5l-110.5 -101.5c-37.333 -33 -72 -69.167 -104 -108.5s-53 -78.333 -63 -117h384v-105h-515c0 28.667 3 56.334 9 83.001
s12.5 50.167 19.5 70.5s18.5 42.5 34.5 66.5l38 55.5c9.33301 13 25.5 31.333 48.5 55s39.167 39.667 48.5 48l53 48.5c27.333 24.667 48.666 45 63.999 61s31.666 34.833 48.999 56.5s29.833 43.167 37.5 64.5s11.5 43.333 11.5 66c0 53.333 -13 93.5 -39 120.5
s-69.333 40.5 -130 40.5c-77.333 0 -151.666 -26 -222.999 -78l-41 100c48 26 91.167 45 129.5 57s85.166 18 140.499 18c92.667 0 163.5 -23.667 212.5 -71s73.5 -107.333 73.5 -180zM382.001 372.999h146v-93h-427v93h169v712l-165 -71l-44 85l227 97h94v-823z" />
    <glyph glyph-name="threequarters" unicode="&#xbe;" horiz-adv-x="2036" 
d="M132 1158c94 28.667 176.667 42.999 248 42.999c87.333 0 156.833 -19.5 208.5 -58.5s77.5 -94.833 77.5 -167.5c0 -53.333 -12.833 -96.333 -38.5 -129s-62.834 -58.667 -111.501 -78c54.667 -15.333 99.834 -45.166 135.501 -89.499s53.5 -94.833 53.5 -151.5
c0 -47.333 -9.16699 -88.5 -27.5 -123.5s-43.5 -62.167 -75.5 -81.5s-66.833 -33.5 -104.5 -42.5s-78.5 -13.5 -122.5 -13.5c-88 0 -169 13 -243 39l26 96c69.333 -25.333 142.666 -38 219.999 -38c32 0 60.333 2.66699 85 8s47.334 14.166 68.001 26.499s36.5 30 47.5 53
s16.5 51.167 16.5 84.5c0 56 -20 99 -60 129s-88.667 45 -146 45c-42.667 0 -89.334 -5.33301 -140.001 -16l-10 96c53.333 6.66699 97.5 13.667 132.5 21s67.5 17.5 97.5 30.5s52.167 29.833 66.5 50.5s21.5 45.667 21.5 75c0 44.667 -14.833 78.834 -44.5 102.501
s-72.5 35.5 -128.5 35.5c-69.333 0 -144.666 -13.333 -225.999 -40zM1279 1332l-526 -1452l-99 6l523 1446h102zM1639 -0.000976562v260h-493v83l358 787h114l-349 -783h370v315h111v-315h160v-87h-160v-260h-111z" />
    <glyph glyph-name="questiondown" unicode="&#xbf;" horiz-adv-x="881" 
d="M523 998h-125v141h125v-141zM102 128c0 38.667 6.00195 75.001 18.002 109.001s27.667 64 47 90s40.666 51.167 63.999 75.5l70.5 71.5c23.667 23.333 45.167 46.833 64.5 70.5s35 50.667 47 81s18 62.166 18 95.499c0 14 -2.33301 53.667 -7 119h83
c2.66699 -8 5.66699 -25.5 9 -52.5s6 -51.833 8 -74.5l4 -35c0 -34 -7.5 -68.167 -22.5 -102.5s-34 -65 -57 -92l-74 -85.5l-74 -84c-23 -26 -42 -54.833 -57 -86.5s-22.5 -62.5 -22.5 -92.5c0 -57.333 16.333 -104.5 49 -141.5s79.334 -55.5 140.001 -55.5
c62 0 116.167 10 162.5 30s92.166 51.333 137.499 94l56 -80c-36.667 -42 -86.334 -77.5 -149.001 -106.5s-128.667 -43.5 -198 -43.5c-94 0 -170.333 27.167 -229 81.5s-88 125.833 -88 214.5z" />
    <glyph glyph-name="Agrave" unicode="&#xc0;" horiz-adv-x="1081" 
d="M593 1513l-53.001 -49.001c-101.333 88.667 -167.666 152.334 -198.999 191.001l-99 119l106 80zM768.999 419.999l-219 754l-227 -754h446zM896.999 -0.000976562l-97 328h-507l-100 -328h-139l400 1284h191l382 -1284h-130z" />
    <glyph glyph-name="Aacute" unicode="&#xc1;" horiz-adv-x="1081" 
d="M487 1513l245 340.999l106 -80l-97 -109c-14 -17.333 -37.667 -42.666 -71 -75.999l-90 -88l-40 -37zM769 419.999l-219 754l-227 -754h446zM897 -0.000976562l-97 328h-507l-100 -328h-139l400 1284h191l382 -1284h-130z" />
    <glyph glyph-name="Acircumflex" unicode="&#xc2;" horiz-adv-x="1081" 
d="M541 1702l-213 -238l-86 80c103.333 115.333 185.333 202.333 246 261h105c60.667 -58.667 142.667 -145.667 246 -261l-86 -80zM769 420l-219 754l-227 -754h446zM897 0l-97 328h-507l-100 -328h-139l400 1284h191l382 -1284h-130z" />
    <glyph glyph-name="Atilde" unicode="&#xc3;" horiz-adv-x="1081" 
d="M859 1623c-26 -56 -51.833 -96.001 -77.5 -120.001s-56.167 -36 -91.5 -36c-40.667 0 -100.667 18 -180 54c-55.333 26 -92.333 39 -111 39c-17.333 0 -33 -7.16699 -47 -21.5s-30.333 -39.166 -49 -74.499l-81 46h3c29.333 61.333 55.833 104.333 79.5 129
s51.5 37 83.5 37c32.667 0 95 -19.667 187 -59c62 -24 99.667 -36 113 -36c16 0 30.333 6.16699 43 18.5s28.667 34.833 48 67.5zM769 419.999l-219 754l-227 -754h446zM897 -0.000976562l-97 328h-507l-100 -328h-139l400 1284h191l382 -1284h-130z" />
    <glyph glyph-name="Adieresis" unicode="&#xc4;" horiz-adv-x="1081" 
d="M454 1590v-126h-139v126h139zM766 1590v-126h-137v126h137zM769 420l-219 754l-227 -754h446zM897 0l-97 328h-507l-100 -328h-139l400 1284h191l382 -1284h-130z" />
    <glyph glyph-name="Aring" unicode="&#xc5;" horiz-adv-x="1081" 
d="M686 1489c0 42.667 -11.833 76.502 -35.5 101.502s-57.167 37.5 -100.5 37.5c-42 0 -75.333 -12.667 -100 -38s-37 -59 -37 -101c0 -42.667 12.167 -76.334 36.5 -101.001s57.833 -37 100.5 -37c42 0 75.167 12.667 99.5 38s36.5 58.666 36.5 99.999zM550 1267
c-70 0 -126.501 20.501 -169.501 61.501s-64.5 94.5 -64.5 160.5c0 68 21.833 122.167 65.5 162.5s99.834 60.5 168.501 60.5c68 0 123.667 -20.667 167 -62s65 -95 65 -161c0 -66.667 -21.667 -120.334 -65 -161.001s-99 -61 -167 -61zM768.999 420.003l-219 754l-227 -754
h446zM896.999 0.00292969l-97 328h-507l-100 -328h-139l400 1284h191l382 -1284h-130z" />
    <glyph glyph-name="AE" unicode="&#xc6;" horiz-adv-x="1381" 
d="M817 626v-526h465l16 -100h-609v328h-411l-164 -328h-140l642 1284h678l-22 -100h-455v-462h421v-96h-421zM689 1194l-373 -774h373v774z" />
    <glyph glyph-name="Ccedilla" unicode="&#xc7;" horiz-adv-x="1014" 
d="M639 -67c58 -0.666992 103.499 -13.168 136.499 -37.501s49.5 -59.166 49.5 -104.499c0 -59.333 -17.167 -104.5 -51.5 -135.5s-78.5 -46.5 -132.5 -46.5c-44 0 -88 10 -132 30l15 80c35.333 -16 67.666 -24 96.999 -24c28 0 50.333 7.5 67 22.5s25 37.833 25 68.5
c0 10 -0.833008 19 -2.5 27s-4.83398 15 -9.50098 21s-9 11.167 -13 15.5s-10.167 8.16602 -18.5 11.499l-20.5 8c-5.33301 2 -13.666 3.83301 -24.999 5.5s-19.666 2.83398 -24.999 3.50098s-14.666 1.66699 -27.999 3s-22.333 2.33301 -27 3l1 116h104zM245.999 637.999
c0 -184 32.6689 -320.332 98.002 -408.999s152.666 -133 261.999 -133c93.333 0 185.666 21.667 276.999 65l40 -97c-103.333 -49.333 -211.666 -74 -324.999 -74c-68.667 0 -131.667 13 -189 39s-107.833 64.833 -151.5 116.5s-77.834 119.667 -102.501 204
s-37 181.5 -37 291.5c0 233.333 37.833 401.666 113.5 504.999s193.834 155 354.501 155c104.667 0 208 -25 310 -75v-242h-109v173c-57.333 25.333 -120.666 38 -189.999 38c-60 0 -110.333 -7.83301 -151 -23.5s-76.834 -43.667 -108.501 -84
s-54.834 -97.5 -69.501 -171.5s-22 -166.667 -22 -278z" />
    <glyph glyph-name="Egrave" unicode="&#xc8;" horiz-adv-x="921" 
d="M547 1513l-53.001 -49.001c-101.333 88.667 -167.666 152.334 -198.999 191.001l-99 119l106 80zM276.999 625.999v-526h545l16 -100h-689v1284h685l-22 -100h-535v-462h501v-96h-501z" />
    <glyph glyph-name="Eacute" unicode="&#xc9;" horiz-adv-x="921" 
d="M441 1513l245 340.999l106 -80l-97 -109c-14 -17.333 -37.667 -42.666 -71 -75.999l-90 -88l-40 -37zM277 625.999v-526h545l16 -100h-689v1284h685l-22 -100h-535v-462h501v-96h-501z" />
    <glyph glyph-name="Ecircumflex" unicode="&#xca;" horiz-adv-x="921" 
d="M494 1702l-213 -238l-86 80c103.333 115.333 185.333 202.333 246 261h105c60.667 -58.667 142.667 -145.667 246 -261l-86 -80zM277 626v-526h545l16 -100h-689v1284h685l-22 -100h-535v-462h501v-96h-501z" />
    <glyph glyph-name="Edieresis" unicode="&#xcb;" horiz-adv-x="921" 
d="M407 1590v-126h-139v126h139zM719 1590v-126h-137v126h137zM277 626v-526h545l16 -100h-689v1284h685l-22 -100h-535v-462h501v-96h-501z" />
    <glyph glyph-name="Igrave" unicode="&#xcc;" horiz-adv-x="730" 
d="M418 1513l-53.001 -49.001c-101.333 88.667 -167.666 152.334 -198.999 191.001l-99 119l106 80zM431.999 1184v-1084h188v-100h-510v100h194v1084h-194v100h506v-100h-184z" />
    <glyph glyph-name="Iacute" unicode="&#xcd;" horiz-adv-x="730" 
d="M312 1513l245 340.999l106 -80l-97 -109c-14 -17.333 -37.667 -42.666 -71 -75.999l-90 -88l-40 -37zM432 1184v-1084h188v-100h-510v100h194v1084h-194v100h506v-100h-184z" />
    <glyph glyph-name="Icircumflex" unicode="&#xce;" horiz-adv-x="730" 
d="M365 1702l-213 -238l-86 80c103.333 115.333 185.333 202.333 246 261h105c60.667 -58.667 142.667 -145.667 246 -261l-86 -80zM432 1184v-1084h188v-100h-510v100h194v1084h-194v100h506v-100h-184z" />
    <glyph glyph-name="Idieresis" unicode="&#xcf;" horiz-adv-x="730" 
d="M279 1590v-126h-139v126h139zM591 1590v-126h-137v126h137zM432 1184v-1084h188v-100h-510v100h194v1084h-194v100h506v-100h-184z" />
    <glyph glyph-name="Eth" unicode="&#xd0;" horiz-adv-x="1099" 
d="M422 1184l-144.997 -0.000976562v-472h203v-103h-203v-505h156c42.667 0 81.167 2.16699 115.5 6.5s65.166 10.333 92.499 18s51.333 18.5 72 32.5s38.5 28.667 53.5 44s27.667 34.833 38 58.5s18.666 47.334 24.999 71.001s11.166 52.5 14.499 86.5
s5.66602 67.167 6.99902 99.5s2 70.833 2 115.5c0 70.667 -2 130.167 -6 178.5s-11.5 94.333 -22.5 138s-26.333 79 -46 106s-45.667 50.5 -78 70.5s-71.166 34.167 -116.499 42.5s-99.333 12.5 -162 12.5zM0.00292969 608.999l-0.00195312 102.999h149v572h273
c76 0 142.333 -5 199 -15s105.834 -26.667 147.501 -50s76 -51.333 103 -84s48.667 -74.167 65 -124.5s27.833 -105.166 34.5 -164.499s10 -129.333 10 -210c0 -62 -1.83301 -116.667 -5.5 -164s-10.5 -94 -20.5 -140s-23.667 -85.333 -41 -118
s-39.666 -63.167 -66.999 -91.5s-60.166 -51 -98.499 -68s-83.833 -30.333 -136.5 -40s-112.334 -14.5 -179.001 -14.5h-284v609h-149z" />
    <glyph glyph-name="Ntilde" unicode="&#xd1;" horiz-adv-x="1193" 
d="M915 1623c-26 -56 -51.833 -96.001 -77.5 -120.001s-56.167 -36 -91.5 -36c-40.667 0 -100.667 18 -180 54c-55.333 26 -92.333 39 -111 39c-17.333 0 -33 -7.16699 -47 -21.5s-30.333 -39.166 -49 -74.499l-81 46h3c29.333 61.333 55.833 104.333 79.5 129
s51.5 37 83.5 37c32.667 0 95 -19.667 187 -59c62 -24 99.667 -36 113 -36c16 0 30.333 6.16699 43 18.5s28.667 34.833 48 67.5zM928 1284h116v-1284h-126l-647 1081v-1081h-122v1284h136l643 -1065v1065z" />
    <glyph glyph-name="Ograve" unicode="&#xd2;" horiz-adv-x="1128" 
d="M617 1513l-53.001 -49.001c-101.333 88.667 -167.666 152.334 -198.999 191.001l-99 119l106 80zM563.999 1301c68.667 0 128.83 -9.5 180.497 -28.5s94.5 -45.833 128.5 -80.5s61.333 -79.5 82 -134.5s35.334 -115.333 44.001 -181s13 -141.834 13 -228.501
c0 -87.333 -4 -163.666 -12 -228.999s-22 -125.833 -42 -181.5s-46.833 -101 -80.5 -136s-76.5 -62.333 -128.5 -82s-113.667 -29.5 -185 -29.5s-133 9.83301 -185 29.5s-94.833 47 -128.5 82s-60.5 80.333 -80.5 136s-34 116.167 -42 181.5s-12 141.666 -12 228.999
c0 86.667 4.33301 162.834 13 228.501s23.334 126 44.001 181s48 99.833 82 134.5s76.833 61.5 128.5 80.5s111.834 28.5 180.501 28.5zM563.995 95.999c121.333 0 205 42.167 251 126.5s69 225.166 69 422.499c0 198 -23.167 339.167 -69.5 423.5
s-129.833 126.5 -250.5 126.5s-204.167 -42.167 -250.5 -126.5s-69.5 -225.5 -69.5 -423.5c0 -197.333 23 -338.166 69 -422.499s129.667 -126.5 251 -126.5z" />
    <glyph glyph-name="Oacute" unicode="&#xd3;" horiz-adv-x="1128" 
d="M511 1513l245 340.999l106 -80l-97 -109c-14 -17.333 -37.667 -42.666 -71 -75.999l-90 -88l-40 -37zM564 1301c68.667 0 128.83 -9.5 180.497 -28.5s94.5 -45.833 128.5 -80.5s61.333 -79.5 82 -134.5s35.334 -115.333 44.001 -181s13 -141.834 13 -228.501
c0 -87.333 -4 -163.666 -12 -228.999s-22 -125.833 -42 -181.5s-46.833 -101 -80.5 -136s-76.5 -62.333 -128.5 -82s-113.667 -29.5 -185 -29.5s-133 9.83301 -185 29.5s-94.833 47 -128.5 82s-60.5 80.333 -80.5 136s-34 116.167 -42 181.5s-12 141.666 -12 228.999
c0 86.667 4.33301 162.834 13 228.501s23.334 126 44.001 181s48 99.833 82 134.5s76.833 61.5 128.5 80.5s111.834 28.5 180.501 28.5zM563.996 95.999c121.333 0 205 42.167 251 126.5s69 225.166 69 422.499c0 198 -23.167 339.167 -69.5 423.5
s-129.833 126.5 -250.5 126.5s-204.167 -42.167 -250.5 -126.5s-69.5 -225.5 -69.5 -423.5c0 -197.333 23 -338.166 69 -422.499s129.667 -126.5 251 -126.5z" />
    <glyph glyph-name="Ocircumflex" unicode="&#xd4;" horiz-adv-x="1128" 
d="M565 1702l-213 -238l-86 80c103.333 115.333 185.333 202.333 246 261h105c60.667 -58.667 142.667 -145.667 246 -261l-86 -80zM564 1301c68.667 0 128.83 -9.5 180.497 -28.5s94.5 -45.833 128.5 -80.5s61.333 -79.5 82 -134.5s35.334 -115.333 44.001 -181
s13 -141.834 13 -228.501c0 -87.333 -4 -163.666 -12 -228.999s-22 -125.833 -42 -181.5s-46.833 -101 -80.5 -136s-76.5 -62.333 -128.5 -82s-113.667 -29.5 -185 -29.5s-133 9.83301 -185 29.5s-94.833 47 -128.5 82s-60.5 80.333 -80.5 136s-34 116.167 -42 181.5
s-12 141.666 -12 228.999c0 86.667 4.33301 162.834 13 228.501s23.334 126 44.001 181s48 99.833 82 134.5s76.833 61.5 128.5 80.5s111.834 28.5 180.501 28.5zM563.996 96c121.333 0 205 42.167 251 126.5s69 225.166 69 422.499c0 198 -23.167 339.167 -69.5 423.5
s-129.833 126.5 -250.5 126.5s-204.167 -42.167 -250.5 -126.5s-69.5 -225.5 -69.5 -423.5c0 -197.333 23 -338.166 69 -422.499s129.667 -126.5 251 -126.5z" />
    <glyph glyph-name="Otilde" unicode="&#xd5;" horiz-adv-x="1128" 
d="M883 1623c-26 -56 -51.833 -96.001 -77.5 -120.001s-56.167 -36 -91.5 -36c-40.667 0 -100.667 18 -180 54c-55.333 26 -92.333 39 -111 39c-17.333 0 -33 -7.16699 -47 -21.5s-30.333 -39.166 -49 -74.499l-81 46h3c29.333 61.333 55.833 104.333 79.5 129
s51.5 37 83.5 37c32.667 0 95 -19.667 187 -59c62 -24 99.667 -36 113 -36c16 0 30.333 6.16699 43 18.5s28.667 34.833 48 67.5zM564 1301c68.667 0 128.83 -9.5 180.497 -28.5s94.5 -45.833 128.5 -80.5s61.333 -79.5 82 -134.5s35.334 -115.333 44.001 -181
s13 -141.834 13 -228.501c0 -87.333 -4 -163.666 -12 -228.999s-22 -125.833 -42 -181.5s-46.833 -101 -80.5 -136s-76.5 -62.333 -128.5 -82s-113.667 -29.5 -185 -29.5s-133 9.83301 -185 29.5s-94.833 47 -128.5 82s-60.5 80.333 -80.5 136s-34 116.167 -42 181.5
s-12 141.666 -12 228.999c0 86.667 4.33301 162.834 13 228.501s23.334 126 44.001 181s48 99.833 82 134.5s76.833 61.5 128.5 80.5s111.834 28.5 180.501 28.5zM563.996 95.999c121.333 0 205 42.167 251 126.5s69 225.166 69 422.499c0 198 -23.167 339.167 -69.5 423.5
s-129.833 126.5 -250.5 126.5s-204.167 -42.167 -250.5 -126.5s-69.5 -225.5 -69.5 -423.5c0 -197.333 23 -338.166 69 -422.499s129.667 -126.5 251 -126.5z" />
    <glyph glyph-name="Odieresis" unicode="&#xd6;" horiz-adv-x="1128" 
d="M477 1590v-126h-139v126h139zM789 1590v-126h-137v126h137zM564 1301c68.667 0 128.83 -9.5 180.497 -28.5s94.5 -45.833 128.5 -80.5s61.333 -79.5 82 -134.5s35.334 -115.333 44.001 -181s13 -141.834 13 -228.501c0 -87.333 -4 -163.666 -12 -228.999
s-22 -125.833 -42 -181.5s-46.833 -101 -80.5 -136s-76.5 -62.333 -128.5 -82s-113.667 -29.5 -185 -29.5s-133 9.83301 -185 29.5s-94.833 47 -128.5 82s-60.5 80.333 -80.5 136s-34 116.167 -42 181.5s-12 141.666 -12 228.999c0 86.667 4.33301 162.834 13 228.501
s23.334 126 44.001 181s48 99.833 82 134.5s76.833 61.5 128.5 80.5s111.834 28.5 180.501 28.5zM563.996 96c121.333 0 205 42.167 251 126.5s69 225.166 69 422.499c0 198 -23.167 339.167 -69.5 423.5s-129.833 126.5 -250.5 126.5s-204.167 -42.167 -250.5 -126.5
s-69.5 -225.5 -69.5 -423.5c0 -197.333 23 -338.166 69 -422.499s129.667 -126.5 251 -126.5z" />
    <glyph glyph-name="multiply" unicode="&#xd7;" horiz-adv-x="996" 
d="M755 925l74 -74l-257 -258l257 -258l-74 -74l-258 258l-257 -258l-74 74l257 258l-257 258l74 74l258 -258z" />
    <glyph glyph-name="Oslash" unicode="&#xd8;" horiz-adv-x="1160" 
d="M564 1301c68.667 0 128.83 -9.5 180.497 -28.5s94.5 -45.833 128.5 -80.5s61.333 -79.5 82 -134.5s35.334 -115.333 44.001 -181s13 -141.834 13 -228.501c0 -87.333 -4 -163.666 -12 -228.999s-22 -125.833 -42 -181.5s-46.833 -101 -80.5 -136
s-76.5 -62.333 -128.5 -82s-113.667 -29.5 -185 -29.5s-133 9.83301 -185 29.5s-94.833 47 -128.5 82s-60.5 80.333 -80.5 136s-34 116.167 -42 181.5s-12 141.666 -12 228.999c0 86.667 4.33301 162.834 13 228.501s23.334 126 44.001 181s48 99.833 82 134.5
s76.833 61.5 128.5 80.5s111.834 28.5 180.501 28.5zM563.996 96c121.333 0 205 42.167 251 126.5s69 225.166 69 422.499c0 198 -23.167 339.167 -69.5 423.5s-129.833 126.5 -250.5 126.5s-204.167 -42.167 -250.5 -126.5s-69.5 -225.5 -69.5 -423.5
c0 -197.333 23 -338.166 69 -422.499s129.667 -126.5 251 -126.5zM934.996 1412l-634 -1579l-79 37l632 1581z" />
    <glyph glyph-name="Ugrave" unicode="&#xd9;" horiz-adv-x="1080" 
d="M593 1513l-53.001 -49.001c-101.333 88.667 -167.666 152.334 -198.999 191.001l-99 119l106 80zM539.999 95.999c38.667 0 72.6709 3.66699 102.004 11s54.166 16.666 74.499 27.999s37.5 27.833 51.5 49.5s24.833 43 32.5 64s13.667 48.833 18 83.5s7 66.5 8 95.5
s1.5 66.5 1.5 112.5v744h128v-649c0 -57.333 -0.666992 -106.166 -2 -146.499s-4.16602 -83 -8.49902 -128s-10.833 -82.667 -19.5 -113s-19.834 -60.833 -33.501 -91.5s-30.834 -55.667 -51.501 -75s-45 -36.833 -73 -52.5s-61 -27 -99 -34s-81 -10.5 -129 -10.5
s-91 3.5 -129 10.5s-71 18.333 -99 34s-52.333 33.167 -73 52.5s-37.834 44.333 -51.501 75s-24.834 61.167 -33.501 91.5s-15.167 68 -19.5 113s-7.16602 87.667 -8.49902 128s-2 89.166 -2 146.499v649h128v-744c0 -46 0.5 -83.5 1.5 -112.5s3.66699 -60.833 8 -95.5
s10.333 -62.5 18 -83.5s18.5 -42.333 32.5 -64s31.167 -38.167 51.5 -49.5s45.166 -20.666 74.499 -27.999s63.333 -11 102 -11z" />
    <glyph glyph-name="Uacute" unicode="&#xda;" horiz-adv-x="1080" 
d="M487 1513l245 340.999l106 -80l-97 -109c-14 -17.333 -37.667 -42.666 -71 -75.999l-90 -88l-40 -37zM540 95.999c38.667 0 72.6709 3.66699 102.004 11s54.166 16.666 74.499 27.999s37.5 27.833 51.5 49.5s24.833 43 32.5 64s13.667 48.833 18 83.5s7 66.5 8 95.5
s1.5 66.5 1.5 112.5v744h128v-649c0 -57.333 -0.666992 -106.166 -2 -146.499s-4.16602 -83 -8.49902 -128s-10.833 -82.667 -19.5 -113s-19.834 -60.833 -33.501 -91.5s-30.834 -55.667 -51.501 -75s-45 -36.833 -73 -52.5s-61 -27 -99 -34s-81 -10.5 -129 -10.5
s-91 3.5 -129 10.5s-71 18.333 -99 34s-52.333 33.167 -73 52.5s-37.834 44.333 -51.501 75s-24.834 61.167 -33.501 91.5s-15.167 68 -19.5 113s-7.16602 87.667 -8.49902 128s-2 89.166 -2 146.499v649h128v-744c0 -46 0.5 -83.5 1.5 -112.5s3.66699 -60.833 8 -95.5
s10.333 -62.5 18 -83.5s18.5 -42.333 32.5 -64s31.167 -38.167 51.5 -49.5s45.166 -20.666 74.499 -27.999s63.333 -11 102 -11z" />
    <glyph glyph-name="Ucircumflex" unicode="&#xdb;" horiz-adv-x="1080" 
d="M541 1702l-213 -238l-86 80c103.333 115.333 185.333 202.333 246 261h105c60.667 -58.667 142.667 -145.667 246 -261l-86 -80zM540 96c38.667 0 72.6709 3.66699 102.004 11s54.166 16.666 74.499 27.999s37.5 27.833 51.5 49.5s24.833 43 32.5 64
s13.667 48.833 18 83.5s7 66.5 8 95.5s1.5 66.5 1.5 112.5v744h128v-649c0 -57.333 -0.666992 -106.166 -2 -146.499s-4.16602 -83 -8.49902 -128s-10.833 -82.667 -19.5 -113s-19.834 -60.833 -33.501 -91.5s-30.834 -55.667 -51.501 -75s-45 -36.833 -73 -52.5
s-61 -27 -99 -34s-81 -10.5 -129 -10.5s-91 3.5 -129 10.5s-71 18.333 -99 34s-52.333 33.167 -73 52.5s-37.834 44.333 -51.501 75s-24.834 61.167 -33.501 91.5s-15.167 68 -19.5 113s-7.16602 87.667 -8.49902 128s-2 89.166 -2 146.499v649h128v-744
c0 -46 0.5 -83.5 1.5 -112.5s3.66699 -60.833 8 -95.5s10.333 -62.5 18 -83.5s18.5 -42.333 32.5 -64s31.167 -38.167 51.5 -49.5s45.166 -20.666 74.499 -27.999s63.333 -11 102 -11z" />
    <glyph glyph-name="Udieresis" unicode="&#xdc;" horiz-adv-x="1080" 
d="M453 1590v-126h-139v126h139zM765 1590v-126h-137v126h137zM540 96c38.667 0 72.6709 3.66699 102.004 11s54.166 16.666 74.499 27.999s37.5 27.833 51.5 49.5s24.833 43 32.5 64s13.667 48.833 18 83.5s7 66.5 8 95.5s1.5 66.5 1.5 112.5v744h128v-649
c0 -57.333 -0.666992 -106.166 -2 -146.499s-4.16602 -83 -8.49902 -128s-10.833 -82.667 -19.5 -113s-19.834 -60.833 -33.501 -91.5s-30.834 -55.667 -51.501 -75s-45 -36.833 -73 -52.5s-61 -27 -99 -34s-81 -10.5 -129 -10.5s-91 3.5 -129 10.5s-71 18.333 -99 34
s-52.333 33.167 -73 52.5s-37.834 44.333 -51.501 75s-24.834 61.167 -33.501 91.5s-15.167 68 -19.5 113s-7.16602 87.667 -8.49902 128s-2 89.166 -2 146.499v649h128v-744c0 -46 0.5 -83.5 1.5 -112.5s3.66699 -60.833 8 -95.5s10.333 -62.5 18 -83.5
s18.5 -42.333 32.5 -64s31.167 -38.167 51.5 -49.5s45.166 -20.666 74.499 -27.999s63.333 -11 102 -11z" />
    <glyph glyph-name="Yacute" unicode="&#xdd;" horiz-adv-x="926" 
d="M410 1513l245 340.999l106 -80l-97 -109c-14 -17.333 -37.667 -42.666 -71 -75.999l-90 -88l-40 -37zM399 585.999l-384 698h142l306 -580l302 580h146l-384 -696v-588h-128v586z" />
    <glyph glyph-name="Thorn" unicode="&#xde;" horiz-adv-x="981" 
d="M278 1284l-0.000976562 -231.996h189c55.333 0 104.166 -2.83301 146.499 -8.5s83.333 -16.334 123 -32.001s72.167 -36.334 97.5 -62.001s45.5 -59.834 60.5 -102.501s22.5 -92.667 22.5 -150c0 -60.667 -8.16699 -112.834 -24.5 -156.501s-39 -79.167 -68 -106.5
s-67.167 -49 -114.5 -65s-97.666 -27 -150.999 -33s-116.666 -9 -189.999 -9h-92v-327h-128v1284h129zM276.999 431.004l89.002 0.000976562c47.333 0 85.833 0.5 115.5 1.5s61.167 3.5 94.5 7.5s59.666 9.66699 78.999 17s38.666 17.333 57.999 30s33.833 28.5 43.5 47.5
s17.5 41.667 23.5 68s9 57.166 9 92.499c0 54.667 -7.16699 99.5 -21.5 134.5s-36.5 61.167 -66.5 78.5s-62.167 29 -96.5 35s-77.5 9 -129.5 9h-198v-521z" />
    <glyph glyph-name="germandbls" unicode="&#xdf;" horiz-adv-x="997" 
d="M802 279c0 32 -7.16992 60.166 -21.5029 84.499s-33 44.333 -56 60s-48.333 29.834 -76 42.501l-83.5 37c-28 12 -53.5 24.667 -76.5 38s-41.667 30.5 -56 51.5s-21.5 44.833 -21.5 71.5c0 13.333 1.83301 26.166 5.5 38.499s8 23.666 13 33.999s12.333 21 22 32
s18.834 20.5 27.501 28.5s20.5 17 35.5 27l39 25.5c11 7 25.833 15.333 44.5 25l46 23.5l49 24c0 102 -15 173 -45 213s-87 60 -171 60c-76.667 0 -131.834 -23.667 -165.501 -71s-50.5 -121.666 -50.5 -222.999v-901h-128v912c0 130.667 28.667 228.167 86 292.5
s144.666 96.5 261.999 96.5c69.333 0 127 -9 173 -27s81.833 -46.667 107.5 -86s43.5 -85.166 53.5 -137.499s15 -117.5 15 -195.5c-195.333 -62.667 -293 -123 -293 -181c0 -14 5.66699 -27.167 17 -39.5s26.333 -23.166 45 -32.499l63.5 -31.5l72.5 -34.5
c24.667 -11.333 48.834 -25.5 72.501 -42.5s44.834 -35.333 63.501 -55s33.667 -44 45 -73s17 -60.833 17 -95.5c0 -110 -43.667 -189.333 -131 -238c-51.333 -28 -111.333 -42 -180 -42c-84.667 0 -165.334 25.333 -242.001 76l38 90
c20.667 -12.667 41.834 -23.667 63.501 -33s43.5 -16.333 65.5 -21s43.333 -7 64 -7c26.667 0 51.334 3.66699 74.001 11s42.834 18.166 60.501 32.499s31.5 33.5 41.5 57.5s15 51.667 15 83z" />
    <glyph glyph-name="agrave" unicode="&#xe0;" horiz-adv-x="953" 
d="M514 1212l-53.001 -49.001c-101.333 88.667 -167.666 152.334 -198.999 191.001l-99 119l106 80zM228.999 277.999c0 -124 72.0039 -186.001 216.004 -186.001c42.667 0 86.167 6.33301 130.5 19s80.833 28.334 109.5 47.001v315h-56c-32 0 -61.333 -0.833008 -88 -2.5
s-56.334 -4.5 -89.001 -8.5s-61.334 -10.667 -86.001 -20s-47.834 -20.833 -69.501 -34.5s-38.334 -31.5 -50.001 -53.5s-17.5 -47.333 -17.5 -76zM166.003 941.998c118 38.667 220.668 57.9961 308.001 57.9961c49.333 0 93.666 -6.83301 132.999 -20.5s74.5 -35 105.5 -64
s55 -68.667 72 -119s25.5 -110.166 25.5 -179.499v-617h-92l-20 66c-24 -19.333 -62.667 -36.833 -116 -52.5s-105.666 -23.5 -156.999 -23.5c-96 0 -172.667 25 -230 75s-86 123 -86 219c0 30.667 4.83301 59.167 14.5 85.5s26.334 51.833 50.001 76.5
s53.667 45.834 90 63.501s82.833 31.667 139.5 42s121.334 15.5 194.001 15.5h88v32c-0.666992 109.333 -19.834 186 -57.501 230s-90.834 66 -159.501 66c-10 0 -20.833 -0.5 -32.5 -1.5s-21.834 -2 -30.501 -3s-20.5 -3 -35.5 -6s-26 -5 -33 -6s-19.5 -3.66699 -37.5 -8
s-29.333 -7.16602 -34 -8.49902s-17.5 -4.66602 -38.5 -9.99902l-35.5 -9z" />
    <glyph glyph-name="aacute" unicode="&#xe1;" horiz-adv-x="953" 
d="M408 1212l245 340.999l106 -80l-97 -109c-14 -17.333 -37.667 -42.666 -71 -75.999l-90 -88l-40 -37zM229 277.999c0 -124 72.0039 -186.001 216.004 -186.001c42.667 0 86.167 6.33301 130.5 19s80.833 28.334 109.5 47.001v315h-56c-32 0 -61.333 -0.833008 -88 -2.5
s-56.334 -4.5 -89.001 -8.5s-61.334 -10.667 -86.001 -20s-47.834 -20.833 -69.501 -34.5s-38.334 -31.5 -50.001 -53.5s-17.5 -47.333 -17.5 -76zM166.004 941.998c118 38.667 220.668 57.9961 308.001 57.9961c49.333 0 93.666 -6.83301 132.999 -20.5s74.5 -35 105.5 -64
s55 -68.667 72 -119s25.5 -110.166 25.5 -179.499v-617h-92l-20 66c-24 -19.333 -62.667 -36.833 -116 -52.5s-105.666 -23.5 -156.999 -23.5c-96 0 -172.667 25 -230 75s-86 123 -86 219c0 30.667 4.83301 59.167 14.5 85.5s26.334 51.833 50.001 76.5
s53.667 45.834 90 63.501s82.833 31.667 139.5 42s121.334 15.5 194.001 15.5h88v32c-0.666992 109.333 -19.834 186 -57.501 230s-90.834 66 -159.501 66c-10 0 -20.833 -0.5 -32.5 -1.5s-21.834 -2 -30.501 -3s-20.5 -3 -35.5 -6s-26 -5 -33 -6s-19.5 -3.66699 -37.5 -8
s-29.333 -7.16602 -34 -8.49902s-17.5 -4.66602 -38.5 -9.99902l-35.5 -9z" />
    <glyph glyph-name="acircumflex" unicode="&#xe2;" horiz-adv-x="953" 
d="M461 1401l-213 -238l-86 80c103.333 115.333 185.333 202.333 246 261h105c60.667 -58.667 142.667 -145.667 246 -261l-86 -80zM229 278c0 -124 72.0039 -186.001 216.004 -186.001c42.667 0 86.167 6.33301 130.5 19s80.833 28.334 109.5 47.001v315h-56
c-32 0 -61.333 -0.833008 -88 -2.5s-56.334 -4.5 -89.001 -8.5s-61.334 -10.667 -86.001 -20s-47.834 -20.833 -69.501 -34.5s-38.334 -31.5 -50.001 -53.5s-17.5 -47.333 -17.5 -76zM166.004 941.999c118 38.667 220.668 57.9961 308.001 57.9961
c49.333 0 93.666 -6.83301 132.999 -20.5s74.5 -35 105.5 -64s55 -68.667 72 -119s25.5 -110.166 25.5 -179.499v-617h-92l-20 66c-24 -19.333 -62.667 -36.833 -116 -52.5s-105.666 -23.5 -156.999 -23.5c-96 0 -172.667 25 -230 75s-86 123 -86 219
c0 30.667 4.83301 59.167 14.5 85.5s26.334 51.833 50.001 76.5s53.667 45.834 90 63.501s82.833 31.667 139.5 42s121.334 15.5 194.001 15.5h88v32c-0.666992 109.333 -19.834 186 -57.501 230s-90.834 66 -159.501 66c-10 0 -20.833 -0.5 -32.5 -1.5
s-21.834 -2 -30.501 -3s-20.5 -3 -35.5 -6s-26 -5 -33 -6s-19.5 -3.66699 -37.5 -8s-29.333 -7.16602 -34 -8.49902s-17.5 -4.66602 -38.5 -9.99902l-35.5 -9z" />
    <glyph glyph-name="atilde" unicode="&#xe3;" horiz-adv-x="953" 
d="M780 1322c-26 -56 -51.833 -96.001 -77.5 -120.001s-56.167 -36 -91.5 -36c-40.667 0 -100.667 18 -180 54c-55.333 26 -92.333 39 -111 39c-17.333 0 -33 -7.16699 -47 -21.5s-30.333 -39.166 -49 -74.499l-81 46h3c29.333 61.333 55.833 104.333 79.5 129
s51.5 37 83.5 37c32.667 0 95 -19.667 187 -59c62 -24 99.667 -36 113 -36c16 0 30.333 6.16699 43 18.5s28.667 34.833 48 67.5zM229 277.999c0 -124 72.0039 -186.001 216.004 -186.001c42.667 0 86.167 6.33301 130.5 19s80.833 28.334 109.5 47.001v315h-56
c-32 0 -61.333 -0.833008 -88 -2.5s-56.334 -4.5 -89.001 -8.5s-61.334 -10.667 -86.001 -20s-47.834 -20.833 -69.501 -34.5s-38.334 -31.5 -50.001 -53.5s-17.5 -47.333 -17.5 -76zM166.004 941.998c118 38.667 220.668 57.9961 308.001 57.9961
c49.333 0 93.666 -6.83301 132.999 -20.5s74.5 -35 105.5 -64s55 -68.667 72 -119s25.5 -110.166 25.5 -179.499v-617h-92l-20 66c-24 -19.333 -62.667 -36.833 -116 -52.5s-105.666 -23.5 -156.999 -23.5c-96 0 -172.667 25 -230 75s-86 123 -86 219
c0 30.667 4.83301 59.167 14.5 85.5s26.334 51.833 50.001 76.5s53.667 45.834 90 63.501s82.833 31.667 139.5 42s121.334 15.5 194.001 15.5h88v32c-0.666992 109.333 -19.834 186 -57.501 230s-90.834 66 -159.501 66c-10 0 -20.833 -0.5 -32.5 -1.5
s-21.834 -2 -30.501 -3s-20.5 -3 -35.5 -6s-26 -5 -33 -6s-19.5 -3.66699 -37.5 -8s-29.333 -7.16602 -34 -8.49902s-17.5 -4.66602 -38.5 -9.99902l-35.5 -9z" />
    <glyph glyph-name="adieresis" unicode="&#xe4;" horiz-adv-x="953" 
d="M375 1289v-126h-139v126h139zM687 1289v-126h-137v126h137zM229 278c0 -124 72.0039 -186.001 216.004 -186.001c42.667 0 86.167 6.33301 130.5 19s80.833 28.334 109.5 47.001v315h-56c-32 0 -61.333 -0.833008 -88 -2.5s-56.334 -4.5 -89.001 -8.5
s-61.334 -10.667 -86.001 -20s-47.834 -20.833 -69.501 -34.5s-38.334 -31.5 -50.001 -53.5s-17.5 -47.333 -17.5 -76zM166.004 941.999c118 38.667 220.668 57.9961 308.001 57.9961c49.333 0 93.666 -6.83301 132.999 -20.5s74.5 -35 105.5 -64s55 -68.667 72 -119
s25.5 -110.166 25.5 -179.499v-617h-92l-20 66c-24 -19.333 -62.667 -36.833 -116 -52.5s-105.666 -23.5 -156.999 -23.5c-96 0 -172.667 25 -230 75s-86 123 -86 219c0 30.667 4.83301 59.167 14.5 85.5s26.334 51.833 50.001 76.5s53.667 45.834 90 63.501
s82.833 31.667 139.5 42s121.334 15.5 194.001 15.5h88v32c-0.666992 109.333 -19.834 186 -57.501 230s-90.834 66 -159.501 66c-10 0 -20.833 -0.5 -32.5 -1.5s-21.834 -2 -30.501 -3s-20.5 -3 -35.5 -6s-26 -5 -33 -6s-19.5 -3.66699 -37.5 -8
s-29.333 -7.16602 -34 -8.49902s-17.5 -4.66602 -38.5 -9.99902l-35.5 -9z" />
    <glyph glyph-name="aring" unicode="&#xe5;" horiz-adv-x="953" 
d="M596 1385c0 42.667 -11.833 76.502 -35.5 101.502s-57.167 37.5 -100.5 37.5c-42 0 -75.333 -12.667 -100 -38s-37 -59 -37 -101c0 -42.667 12.167 -76.334 36.5 -101.001s57.833 -37 100.5 -37c42 0 75.167 12.667 99.5 38s36.5 58.666 36.5 99.999zM460 1163
c-70 0 -126.501 20.501 -169.501 61.501s-64.5 94.5 -64.5 160.5c0 68 21.833 122.167 65.5 162.5s99.834 60.5 168.501 60.5c68 0 123.667 -20.667 167 -62s65 -95 65 -161c0 -66.667 -21.667 -120.334 -65 -161.001s-99 -61 -167 -61zM228.999 278.003
c0 -124 72.0039 -186.001 216.004 -186.001c42.667 0 86.167 6.33301 130.5 19s80.833 28.334 109.5 47.001v315h-56c-32 0 -61.333 -0.833008 -88 -2.5s-56.334 -4.5 -89.001 -8.5s-61.334 -10.667 -86.001 -20s-47.834 -20.833 -69.501 -34.5s-38.334 -31.5 -50.001 -53.5
s-17.5 -47.333 -17.5 -76zM166.003 942.002c118 38.667 220.668 57.9961 308.001 57.9961c49.333 0 93.666 -6.83301 132.999 -20.5s74.5 -35 105.5 -64s55 -68.667 72 -119s25.5 -110.166 25.5 -179.499v-617h-92l-20 66c-24 -19.333 -62.667 -36.833 -116 -52.5
s-105.666 -23.5 -156.999 -23.5c-96 0 -172.667 25 -230 75s-86 123 -86 219c0 30.667 4.83301 59.167 14.5 85.5s26.334 51.833 50.001 76.5s53.667 45.834 90 63.501s82.833 31.667 139.5 42s121.334 15.5 194.001 15.5h88v32c-0.666992 109.333 -19.834 186 -57.501 230
s-90.834 66 -159.501 66c-10 0 -20.833 -0.5 -32.5 -1.5s-21.834 -2 -30.501 -3s-20.5 -3 -35.5 -6s-26 -5 -33 -6s-19.5 -3.66699 -37.5 -8s-29.333 -7.16602 -34 -8.49902s-17.5 -4.66602 -38.5 -9.99902l-35.5 -9z" />
    <glyph glyph-name="ae" unicode="&#xe6;" horiz-adv-x="1541" 
d="M813 559l313 -0.000976562c64 0 112.5 14.167 145.5 42.5s49.5 63.5 49.5 105.5c0 48.667 -20.5 92.334 -61.5 131.001s-94.5 58 -160.5 58c-88.667 0 -156.5 -29.333 -203.5 -88s-74.5 -141.667 -82.5 -249zM229 277.999c0 -124 72.0039 -186 216.004 -186
c56.667 0 106.167 8.5 148.5 25.5s88.5 49.833 138.5 98.5c-29.333 68.667 -45 154 -47 256v1h-56c-32 0 -61.333 -0.833008 -88 -2.5s-56.334 -4.5 -89.001 -8.5s-61.334 -10.667 -86.001 -20s-47.834 -20.833 -69.501 -34.5s-38.334 -31.5 -50.001 -53.5
s-17.5 -47.333 -17.5 -76zM166.004 941.999c118 38.667 220.668 57.9971 308.001 57.9971c44 0 84.833 -6.5 122.5 -19.5s71.834 -35.833 102.501 -68.5s51.667 -73.667 63 -123c62 140.667 170.333 211 325 211c96.667 0 177.834 -30.667 243.501 -92
s98.5 -128.333 98.5 -201c0 -68.667 -25 -125.5 -75 -170.5s-125.333 -67.5 -226 -67.5h-315c0.666992 -59.333 6.66699 -111.5 18 -156.5s25.666 -81 42.999 -108s38.833 -48.833 64.5 -65.5s51.5 -28 77.5 -34s54.667 -9 86 -9c102.667 0 196 26.667 280 80l39 -101
c-45.333 -28 -96 -49.167 -152 -63.5s-109.333 -21.5 -160 -21.5c-156.667 0 -270.334 53 -341.001 159c-34 -50 -76.833 -89 -128.5 -117s-123.167 -42 -214.5 -42c-96 0 -172.667 25 -230 75s-86 123 -86 219c0 30.667 4.83301 59.167 14.5 85.5
s26.334 51.833 50.001 76.5s53.667 45.834 90 63.501s82.833 31.667 139.5 42s121.334 15.5 194.001 15.5h88v32c-0.666992 109.333 -19.834 186 -57.501 230s-90.834 66 -159.501 66c-10 0 -20.833 -0.5 -32.5 -1.5s-21.834 -2 -30.501 -3s-20.5 -3 -35.5 -6s-26 -5 -33 -6
s-19.5 -3.66699 -37.5 -8s-29.333 -7.16602 -34 -8.49902s-17.5 -4.66602 -38.5 -9.99902l-35.5 -9z" />
    <glyph glyph-name="ccedilla" unicode="&#xe7;" horiz-adv-x="864" 
d="M548 -67c58 -0.666992 103.499 -13.168 136.499 -37.501s49.5 -59.166 49.5 -104.499c0 -59.333 -17.167 -104.5 -51.5 -135.5s-78.5 -46.5 -132.5 -46.5c-44 0 -88 10 -132 30l15 80c35.333 -16 67.666 -24 96.999 -24c28 0 50.333 7.5 67 22.5s25 37.833 25 68.5
c0 10 -0.833008 19 -2.5 27s-4.83398 15 -9.50098 21s-9 11.167 -13 15.5s-10.167 8.16602 -18.5 11.499l-20.5 8c-5.33301 2 -13.666 3.83301 -24.999 5.5s-19.666 2.83398 -24.999 3.50098s-14.666 1.66699 -27.999 3s-22.333 2.33301 -27 3l1 116h104zM749.999 169.999
l47.998 -91.002c-81.333 -59.333 -178.333 -89 -291 -89c-116.667 0 -212.334 43.667 -287.001 131s-112 212 -112 374c0 336.667 129.333 505 388 505c90.667 0 178.334 -20 263.001 -60v-258l-102 -10v200c-44 17.333 -98.333 26 -163 26
c-49.333 0 -91.166 -9.66699 -125.499 -29s-61 -47.666 -80 -84.999s-32.5 -79.5 -40.5 -126.5s-12 -101.833 -12 -164.5c0 -127.333 25.833 -225.666 77.5 -294.999s120.834 -104 207.501 -104c78 0 154.333 25.333 229 76z" />
    <glyph glyph-name="egrave" unicode="&#xe8;" horiz-adv-x="964" 
d="M538 1212l-53.001 -49.001c-101.333 88.667 -167.666 152.334 -198.999 191.001l-99 119l106 80zM507.999 894.999c-84 0 -148.333 -29.168 -193 -87.501s-71 -141.166 -79 -248.499h507v50c0 87.333 -21.167 156.833 -63.5 208.5s-99.5 77.5 -171.5 77.5z
M524.999 95.998c102.667 0 196.001 26.668 280.001 80.001l39 -101c-45.333 -28 -96 -49.167 -152 -63.5s-109.333 -21.5 -160 -21.5c-134.667 0 -239 40.667 -313 122s-111 209.333 -111 384c0 167.333 36 293.166 108 377.499s169 126.5 291 126.5
c110 0 196.667 -36 260 -108s95 -168 95 -288c0 -27.333 -2.66699 -72.333 -8 -135h-618c0.666992 -59.333 6.66699 -111.5 18 -156.5s25.666 -81 42.999 -108s38.833 -48.833 64.5 -65.5s51.5 -28 77.5 -34s54.667 -9 86 -9z" />
    <glyph glyph-name="eacute" unicode="&#xe9;" horiz-adv-x="964" 
d="M432 1212l245 340.999l106 -80l-97 -109c-14 -17.333 -37.667 -42.666 -71 -75.999l-90 -88l-40 -37zM508 894.999c-84 0 -148.333 -29.168 -193 -87.501s-71 -141.166 -79 -248.499h507v50c0 87.333 -21.167 156.833 -63.5 208.5s-99.5 77.5 -171.5 77.5zM525 95.998
c102.667 0 196.001 26.668 280.001 80.001l39 -101c-45.333 -28 -96 -49.167 -152 -63.5s-109.333 -21.5 -160 -21.5c-134.667 0 -239 40.667 -313 122s-111 209.333 -111 384c0 167.333 36 293.166 108 377.499s169 126.5 291 126.5c110 0 196.667 -36 260 -108
s95 -168 95 -288c0 -27.333 -2.66699 -72.333 -8 -135h-618c0.666992 -59.333 6.66699 -111.5 18 -156.5s25.666 -81 42.999 -108s38.833 -48.833 64.5 -65.5s51.5 -28 77.5 -34s54.667 -9 86 -9z" />
    <glyph glyph-name="ecircumflex" unicode="&#xea;" horiz-adv-x="964" 
d="M485 1401l-213 -238l-86 80c103.333 115.333 185.333 202.333 246 261h105c60.667 -58.667 142.667 -145.667 246 -261l-86 -80zM508 895c-84 0 -148.333 -29.168 -193 -87.501s-71 -141.166 -79 -248.499h507v50c0 87.333 -21.167 156.833 -63.5 208.5
s-99.5 77.5 -171.5 77.5zM525 95.999c102.667 0 196.001 26.668 280.001 80.001l39 -101c-45.333 -28 -96 -49.167 -152 -63.5s-109.333 -21.5 -160 -21.5c-134.667 0 -239 40.667 -313 122s-111 209.333 -111 384c0 167.333 36 293.166 108 377.499s169 126.5 291 126.5
c110 0 196.667 -36 260 -108s95 -168 95 -288c0 -27.333 -2.66699 -72.333 -8 -135h-618c0.666992 -59.333 6.66699 -111.5 18 -156.5s25.666 -81 42.999 -108s38.833 -48.833 64.5 -65.5s51.5 -28 77.5 -34s54.667 -9 86 -9z" />
    <glyph glyph-name="edieresis" unicode="&#xeb;" horiz-adv-x="964" 
d="M399 1289v-126h-139v126h139zM711 1289v-126h-137v126h137zM508 895c-84 0 -148.333 -29.168 -193 -87.501s-71 -141.166 -79 -248.499h507v50c0 87.333 -21.167 156.833 -63.5 208.5s-99.5 77.5 -171.5 77.5zM525 95.999c102.667 0 196.001 26.668 280.001 80.001
l39 -101c-45.333 -28 -96 -49.167 -152 -63.5s-109.333 -21.5 -160 -21.5c-134.667 0 -239 40.667 -313 122s-111 209.333 -111 384c0 167.333 36 293.166 108 377.499s169 126.5 291 126.5c110 0 196.667 -36 260 -108s95 -168 95 -288c0 -27.333 -2.66699 -72.333 -8 -135
h-618c0.666992 -59.333 6.66699 -111.5 18 -156.5s25.666 -81 42.999 -108s38.833 -48.833 64.5 -65.5s51.5 -28 77.5 -34s54.667 -9 86 -9z" />
    <glyph glyph-name="igrave" unicode="&#xec;" horiz-adv-x="673" 
d="M412 1212l-53.001 -49.001c-101.333 88.667 -167.666 152.334 -198.999 191.001l-99 119l106 80zM110.999 894.999v90h320v-895h192v-90h-512v90h192v805h-192z" />
    <glyph glyph-name="iacute" unicode="&#xed;" horiz-adv-x="673" 
d="M306 1212l245 340.999l106 -80l-97 -109c-14 -17.333 -37.667 -42.666 -71 -75.999l-90 -88l-40 -37zM111 894.999v90h320v-895h192v-90h-512v90h192v805h-192z" />
    <glyph glyph-name="icircumflex" unicode="&#xee;" horiz-adv-x="673" 
d="M359 1401l-213 -238l-86 80c103.333 115.333 185.333 202.333 246 261h105c60.667 -58.667 142.667 -145.667 246 -261l-86 -80zM111 895v90h320v-895h192v-90h-512v90h192v805h-192z" />
    <glyph glyph-name="idieresis" unicode="&#xef;" horiz-adv-x="673" 
d="M273 1289v-126h-139v126h139zM585 1289v-126h-137v126h137zM111 895v90h320v-895h192v-90h-512v90h192v805h-192z" />
    <glyph glyph-name="eth" unicode="&#xf0;" horiz-adv-x="998" 
d="M761 672c-3.33301 78 -21.3311 162.332 -53.998 252.999s-72.334 152 -119.001 184l-206 -142l-52 68l183 126c-80.667 46 -177 74 -289 84l21 106c156.667 -25.333 279 -66 367 -122l210 148l52 -68l-190 -134c62 -56 110 -138.833 144 -248.5s51 -237.167 51 -382.5
c0 -183.333 -32.167 -321.5 -96.5 -414.5s-163.5 -139.5 -297.5 -139.5c-120.667 0 -217 34.333 -289 103s-108 169 -108 301c0 67.333 10.5 127.5 31.5 180.5s49.667 96 86 129s77.333 58 123 75s94.5 25.5 146.5 25.5c59.333 0 114.166 -11.667 164.499 -35
s90.833 -55.666 121.5 -96.999zM751.002 449.999c0 38 -6.49902 72.167 -19.499 102.5s-29.5 54.5 -49.5 72.5s-43 33 -69 45s-50.833 20.167 -74.5 24.5s-46.834 6.5 -69.501 6.5c-74.667 0 -135.5 -26.167 -182.5 -78.5s-70.5 -128.166 -70.5 -227.499
c0 -107.333 23.333 -184 70 -230s114.667 -69 204 -69c90 0 156 28.167 198 84.5s63 146.166 63 269.499z" />
    <glyph glyph-name="ntilde" unicode="&#xf1;" horiz-adv-x="985" 
d="M817 1322c-26 -56 -51.833 -96.001 -77.5 -120.001s-56.167 -36 -91.5 -36c-40.667 0 -100.667 18 -180 54c-55.333 26 -92.333 39 -111 39c-17.333 0 -33 -7.16699 -47 -21.5s-30.333 -39.166 -49 -74.499l-81 46h3c29.333 61.333 55.833 104.333 79.5 129
s51.5 37 83.5 37c32.667 0 95 -19.667 187 -59c62 -24 99.667 -36 113 -36c16 0 30.333 6.16699 43 18.5s28.667 34.833 48 67.5zM268 821.999l0.000976562 -822h-128v985h105l9 -64c65.333 30.667 120 51.5 164 62.5s91.333 16.5 142 16.5
c101.333 0 176.166 -27.667 224.499 -83s72.5 -140 72.5 -254v-663h-128v668c0 81.333 -12.833 139.5 -38.5 174.5s-71.5 52.5 -137.5 52.5c-101.333 0 -196.333 -24.333 -285 -73z" />
    <glyph glyph-name="ograve" unicode="&#xf2;" 
d="M545 1212l-53.001 -49.001c-101.333 88.667 -167.666 152.334 -198.999 191.001l-99 119l106 80zM491.999 -10.001c-130 0 -226.502 43.833 -289.502 131.5s-94.5 212.167 -94.5 373.5c0 168.667 30.833 295 92.5 379s158.834 126 291.501 126s229.834 -42 291.501 -126
s92.5 -210.333 92.5 -379c0 -161.333 -31.5 -285.833 -94.5 -373.5s-159.5 -131.5 -289.5 -131.5zM491.997 894.999c-38.667 0 -72.6709 -6.5 -102.004 -19.5s-53.666 -30.833 -72.999 -53.5s-35.166 -51 -47.499 -85s-21 -70.667 -26 -110s-7.5 -83.333 -7.5 -132
c0 -62.667 4 -117.167 12 -163.5s21.5 -87.833 40.5 -124.5s45.5 -64.334 79.5 -83.001s75.333 -28 124 -28s90 9.33301 124 28s60.5 46.334 79.5 83.001s32.5 78.167 40.5 124.5s12 100.833 12 163.5c0 48.667 -2.5 92.667 -7.5 132s-13.667 76 -26 110
s-28.166 62.333 -47.499 85s-43.666 40.5 -72.999 53.5s-63.333 19.5 -102 19.5z" />
    <glyph glyph-name="oacute" unicode="&#xf3;" 
d="M439 1212l245 340.999l106 -80l-97 -109c-14 -17.333 -37.667 -42.666 -71 -75.999l-90 -88l-40 -37zM492 -10.001c-130 0 -226.502 43.833 -289.502 131.5s-94.5 212.167 -94.5 373.5c0 168.667 30.833 295 92.5 379s158.834 126 291.501 126s229.834 -42 291.501 -126
s92.5 -210.333 92.5 -379c0 -161.333 -31.5 -285.833 -94.5 -373.5s-159.5 -131.5 -289.5 -131.5zM491.998 894.999c-38.667 0 -72.6709 -6.5 -102.004 -19.5s-53.666 -30.833 -72.999 -53.5s-35.166 -51 -47.499 -85s-21 -70.667 -26 -110s-7.5 -83.333 -7.5 -132
c0 -62.667 4 -117.167 12 -163.5s21.5 -87.833 40.5 -124.5s45.5 -64.334 79.5 -83.001s75.333 -28 124 -28s90 9.33301 124 28s60.5 46.334 79.5 83.001s32.5 78.167 40.5 124.5s12 100.833 12 163.5c0 48.667 -2.5 92.667 -7.5 132s-13.667 76 -26 110
s-28.166 62.333 -47.499 85s-43.666 40.5 -72.999 53.5s-63.333 19.5 -102 19.5z" />
    <glyph glyph-name="ocircumflex" unicode="&#xf4;" 
d="M493 1401l-213 -238l-86 80c103.333 115.333 185.333 202.333 246 261h105c60.667 -58.667 142.667 -145.667 246 -261l-86 -80zM492 -10c-130 0 -226.502 43.833 -289.502 131.5s-94.5 212.167 -94.5 373.5c0 168.667 30.833 295 92.5 379s158.834 126 291.501 126
s229.834 -42 291.501 -126s92.5 -210.333 92.5 -379c0 -161.333 -31.5 -285.833 -94.5 -373.5s-159.5 -131.5 -289.5 -131.5zM491.998 895c-38.667 0 -72.6709 -6.5 -102.004 -19.5s-53.666 -30.833 -72.999 -53.5s-35.166 -51 -47.499 -85s-21 -70.667 -26 -110
s-7.5 -83.333 -7.5 -132c0 -62.667 4 -117.167 12 -163.5s21.5 -87.833 40.5 -124.5s45.5 -64.334 79.5 -83.001s75.333 -28 124 -28s90 9.33301 124 28s60.5 46.334 79.5 83.001s32.5 78.167 40.5 124.5s12 100.833 12 163.5c0 48.667 -2.5 92.667 -7.5 132
s-13.667 76 -26 110s-28.166 62.333 -47.499 85s-43.666 40.5 -72.999 53.5s-63.333 19.5 -102 19.5z" />
    <glyph glyph-name="otilde" unicode="&#xf5;" 
d="M811 1322c-26 -56 -51.833 -96.001 -77.5 -120.001s-56.167 -36 -91.5 -36c-40.667 0 -100.667 18 -180 54c-55.333 26 -92.333 39 -111 39c-17.333 0 -33 -7.16699 -47 -21.5s-30.333 -39.166 -49 -74.499l-81 46h3c29.333 61.333 55.833 104.333 79.5 129
s51.5 37 83.5 37c32.667 0 95 -19.667 187 -59c62 -24 99.667 -36 113 -36c16 0 30.333 6.16699 43 18.5s28.667 34.833 48 67.5zM492 -10.001c-130 0 -226.502 43.833 -289.502 131.5s-94.5 212.167 -94.5 373.5c0 168.667 30.833 295 92.5 379s158.834 126 291.501 126
s229.834 -42 291.501 -126s92.5 -210.333 92.5 -379c0 -161.333 -31.5 -285.833 -94.5 -373.5s-159.5 -131.5 -289.5 -131.5zM491.998 894.999c-38.667 0 -72.6709 -6.5 -102.004 -19.5s-53.666 -30.833 -72.999 -53.5s-35.166 -51 -47.499 -85s-21 -70.667 -26 -110
s-7.5 -83.333 -7.5 -132c0 -62.667 4 -117.167 12 -163.5s21.5 -87.833 40.5 -124.5s45.5 -64.334 79.5 -83.001s75.333 -28 124 -28s90 9.33301 124 28s60.5 46.334 79.5 83.001s32.5 78.167 40.5 124.5s12 100.833 12 163.5c0 48.667 -2.5 92.667 -7.5 132
s-13.667 76 -26 110s-28.166 62.333 -47.499 85s-43.666 40.5 -72.999 53.5s-63.333 19.5 -102 19.5z" />
    <glyph glyph-name="odieresis" unicode="&#xf6;" 
d="M405 1289v-126h-139v126h139zM717 1289v-126h-137v126h137zM492 -10c-130 0 -226.502 43.833 -289.502 131.5s-94.5 212.167 -94.5 373.5c0 168.667 30.833 295 92.5 379s158.834 126 291.501 126s229.834 -42 291.501 -126s92.5 -210.333 92.5 -379
c0 -161.333 -31.5 -285.833 -94.5 -373.5s-159.5 -131.5 -289.5 -131.5zM491.998 895c-38.667 0 -72.6709 -6.5 -102.004 -19.5s-53.666 -30.833 -72.999 -53.5s-35.166 -51 -47.499 -85s-21 -70.667 -26 -110s-7.5 -83.333 -7.5 -132c0 -62.667 4 -117.167 12 -163.5
s21.5 -87.833 40.5 -124.5s45.5 -64.334 79.5 -83.001s75.333 -28 124 -28s90 9.33301 124 28s60.5 46.334 79.5 83.001s32.5 78.167 40.5 124.5s12 100.833 12 163.5c0 48.667 -2.5 92.667 -7.5 132s-13.667 76 -26 110s-28.166 62.333 -47.499 85
s-43.666 40.5 -72.999 53.5s-63.333 19.5 -102 19.5z" />
    <glyph glyph-name="divide" unicode="&#xf7;" horiz-adv-x="978" 
d="M110 548v98h756v-98h-756zM453 771c-34.667 16.667 -52 53.333 -52 110c0 49.333 17.333 78.333 52 87h61c34 -17.333 51 -54.333 51 -111c0 -49.333 -17 -78 -51 -86h-61zM401 281.999c0 65.333 17.334 109.332 52.001 131.999c53.333 0 90.666 -20.667 111.999 -62
c0 -65.333 -17 -109.666 -51 -132.999c-55.333 0 -93 20.667 -113 62v1z" />
    <glyph glyph-name="oslash" unicode="&#xf8;" horiz-adv-x="1016" 
d="M492 -10c-130 0 -226.502 43.833 -289.502 131.5s-94.5 212.167 -94.5 373.5c0 168.667 30.833 295 92.5 379s158.834 126 291.501 126s229.834 -42 291.501 -126s92.5 -210.333 92.5 -379c0 -161.333 -31.5 -285.833 -94.5 -373.5s-159.5 -131.5 -289.5 -131.5z
M491.998 895c-38.667 0 -72.6709 -6.5 -102.004 -19.5s-53.666 -30.833 -72.999 -53.5s-35.166 -51 -47.499 -85s-21 -70.667 -26 -110s-7.5 -83.333 -7.5 -132c0 -62.667 4 -117.167 12 -163.5s21.5 -87.833 40.5 -124.5s45.5 -64.334 79.5 -83.001s75.333 -28 124 -28
s90 9.33301 124 28s60.5 46.334 79.5 83.001s32.5 78.167 40.5 124.5s12 100.833 12 163.5c0 48.667 -2.5 92.667 -7.5 132s-13.667 76 -26 110s-28.166 62.333 -47.499 85s-43.666 40.5 -72.999 53.5s-63.333 19.5 -102 19.5z" />
    <glyph glyph-name="ugrave" unicode="&#xf9;" horiz-adv-x="986" 
d="M539 1212l-53.001 -49.001c-101.333 88.667 -167.666 152.334 -198.999 191.001l-99 119l106 80zM716.999 162.999l-0.00195312 822h128v-985h-105l-9 64c-63.333 -30 -117.166 -49.833 -161.499 -59.5s-93.5 -14.5 -147.5 -14.5c-101.333 0 -175.666 26.667 -222.999 80
s-71 137 -71 251v664h128v-669c0 -80 13.167 -136.667 39.5 -170s72.833 -50 139.5 -50c33.333 0 60.5 0.833008 81.5 2.5s50.333 7.66699 88 18s75.167 25.833 112.5 46.5z" />
    <glyph glyph-name="uacute" unicode="&#xfa;" horiz-adv-x="986" 
d="M433 1212l245 340.999l106 -80l-97 -109c-14 -17.333 -37.667 -42.666 -71 -75.999l-90 -88l-40 -37zM717 162.999l-0.00195312 822h128v-985h-105l-9 64c-63.333 -30 -117.166 -49.833 -161.499 -59.5s-93.5 -14.5 -147.5 -14.5c-101.333 0 -175.666 26.667 -222.999 80
s-71 137 -71 251v664h128v-669c0 -80 13.167 -136.667 39.5 -170s72.833 -50 139.5 -50c33.333 0 60.5 0.833008 81.5 2.5s50.333 7.66699 88 18s75.167 25.833 112.5 46.5z" />
    <glyph glyph-name="ucircumflex" unicode="&#xfb;" horiz-adv-x="986" 
d="M487 1401l-213 -238l-86 80c103.333 115.333 185.333 202.333 246 261h105c60.667 -58.667 142.667 -145.667 246 -261l-86 -80zM717 163l-0.00195312 822h128v-985h-105l-9 64c-63.333 -30 -117.166 -49.833 -161.499 -59.5s-93.5 -14.5 -147.5 -14.5
c-101.333 0 -175.666 26.667 -222.999 80s-71 137 -71 251v664h128v-669c0 -80 13.167 -136.667 39.5 -170s72.833 -50 139.5 -50c33.333 0 60.5 0.833008 81.5 2.5s50.333 7.66699 88 18s75.167 25.833 112.5 46.5z" />
    <glyph glyph-name="udieresis" unicode="&#xfc;" horiz-adv-x="986" 
d="M400 1289v-126h-139v126h139zM712 1289v-126h-137v126h137zM717 163l-0.00195312 822h128v-985h-105l-9 64c-63.333 -30 -117.166 -49.833 -161.499 -59.5s-93.5 -14.5 -147.5 -14.5c-101.333 0 -175.666 26.667 -222.999 80s-71 137 -71 251v664h128v-669
c0 -80 13.167 -136.667 39.5 -170s72.833 -50 139.5 -50c33.333 0 60.5 0.833008 81.5 2.5s50.333 7.66699 88 18s75.167 25.833 112.5 46.5z" />
    <glyph glyph-name="yacute" unicode="&#xfd;" horiz-adv-x="963" 
d="M430 1212l245 340.999l106 -80l-97 -109c-14 -17.333 -37.667 -42.666 -71 -75.999l-90 -88l-40 -37zM285 -390.001c-49.333 0 -104.331 11.6709 -164.998 35.0039l20 102l1 1c60 -18 105 -27 135 -27c10 0 19.333 1.16699 28 3.5s16.667 6.33301 24 12
s13.833 11.167 19.5 16.5s11.5 13.333 17.5 24l15 27c4 7.33301 8.5 18.166 13.5 32.499l12 33.5c3 8 7.16699 20.5 12.5 37.5l12 37.5l27 81l-405 959h137l324 -819l265 819h136l-346 -1001c-19.333 -56 -35.166 -99.833 -47.499 -131.5s-27.333 -65.334 -45 -101.001
s-34.834 -62.334 -51.501 -80.001s-36.834 -32.334 -60.501 -44.001s-49.834 -17.5 -78.501 -17.5z" />
    <glyph glyph-name="thorn" unicode="&#xfe;" horiz-adv-x="982" 
d="M268 43l-0.000976562 -431.999h-128v1690h128v-385c82.667 56 173.334 84 272.001 84c104.667 0 186.834 -41.333 246.501 -124s89.5 -210.334 89.5 -383.001c0 -178.667 -30.333 -307.167 -91 -385.5s-152.334 -117.5 -275.001 -117.5c-90 0 -170.667 17.667 -242 53z
M267.999 809.001l-0.000976562 -672c58.667 -27.333 123.667 -41 195 -41h29c90.667 0 156 30.5 196 91.5s60 162.167 60 303.5c0 138.667 -17.833 240.667 -53.5 306s-92.5 98 -170.5 98c-71.333 0 -156.666 -28.667 -255.999 -86z" />
    <glyph glyph-name="ydieresis" unicode="&#xff;" horiz-adv-x="963" 
d="M397 1289v-126h-139v126h139zM709 1289v-126h-137v126h137zM285 -390c-49.333 0 -104.331 11.6709 -164.998 35.0039l20 102l1 1c60 -18 105 -27 135 -27c10 0 19.333 1.16699 28 3.5s16.667 6.33301 24 12s13.833 11.167 19.5 16.5s11.5 13.333 17.5 24l15 27
c4 7.33301 8.5 18.166 13.5 32.499l12 33.5c3 8 7.16699 20.5 12.5 37.5l12 37.5l27 81l-405 959h137l324 -819l265 819h136l-346 -1001c-19.333 -56 -35.166 -99.833 -47.499 -131.5s-27.333 -65.334 -45 -101.001s-34.834 -62.334 -51.501 -80.001
s-36.834 -32.334 -60.501 -44.001s-49.834 -17.5 -78.501 -17.5z" />
    <glyph glyph-name="Amacron" unicode="&#x100;" horiz-adv-x="1081" 
d="M300 1464v106h480v-106h-480zM769 420l-219 754l-227 -754h446zM897 0l-97 328h-507l-100 -328h-139l400 1284h191l382 -1284h-130z" />
    <glyph glyph-name="amacron" unicode="&#x101;" horiz-adv-x="953" 
d="M221 1163v106h480v-106h-480zM229 278c0 -124 72.0039 -186.001 216.004 -186.001c42.667 0 86.167 6.33301 130.5 19s80.833 28.334 109.5 47.001v315h-56c-32 0 -61.333 -0.833008 -88 -2.5s-56.334 -4.5 -89.001 -8.5s-61.334 -10.667 -86.001 -20
s-47.834 -20.833 -69.501 -34.5s-38.334 -31.5 -50.001 -53.5s-17.5 -47.333 -17.5 -76zM166.004 941.999c118 38.667 220.668 57.9961 308.001 57.9961c49.333 0 93.666 -6.83301 132.999 -20.5s74.5 -35 105.5 -64s55 -68.667 72 -119s25.5 -110.166 25.5 -179.499v-617
h-92l-20 66c-24 -19.333 -62.667 -36.833 -116 -52.5s-105.666 -23.5 -156.999 -23.5c-96 0 -172.667 25 -230 75s-86 123 -86 219c0 30.667 4.83301 59.167 14.5 85.5s26.334 51.833 50.001 76.5s53.667 45.834 90 63.501s82.833 31.667 139.5 42
s121.334 15.5 194.001 15.5h88v32c-0.666992 109.333 -19.834 186 -57.501 230s-90.834 66 -159.501 66c-10 0 -20.833 -0.5 -32.5 -1.5s-21.834 -2 -30.501 -3s-20.5 -3 -35.5 -6s-26 -5 -33 -6s-19.5 -3.66699 -37.5 -8s-29.333 -7.16602 -34 -8.49902
s-17.5 -4.66602 -38.5 -9.99902l-35.5 -9z" />
    <glyph glyph-name="Abreve" unicode="&#x102;" horiz-adv-x="1081" 
d="M732 1689l77.001 -76c-88.667 -99.333 -178.334 -149 -269.001 -149c-90 0 -179.333 49.667 -268 149l77 76c55.333 -76.667 118 -115 188 -115c70.667 0 135.667 38.333 195 115zM769.001 420l-219 754l-227 -754h446zM897.001 0l-97 328h-507l-100 -328h-139l400 1284
h191l382 -1284h-130z" />
    <glyph glyph-name="abreve" unicode="&#x103;" horiz-adv-x="953" 
d="M652 1388l77.001 -76c-88.667 -99.333 -178.334 -149 -269.001 -149c-90 0 -179.333 49.667 -268 149l77 76c55.333 -76.667 118 -115 188 -115c70.667 0 135.667 38.333 195 115zM229.001 278c0 -124 72.0039 -186.001 216.004 -186.001
c42.667 0 86.167 6.33301 130.5 19s80.833 28.334 109.5 47.001v315h-56c-32 0 -61.333 -0.833008 -88 -2.5s-56.334 -4.5 -89.001 -8.5s-61.334 -10.667 -86.001 -20s-47.834 -20.833 -69.501 -34.5s-38.334 -31.5 -50.001 -53.5s-17.5 -47.333 -17.5 -76zM166.005 941.999
c118 38.667 220.668 57.9961 308.001 57.9961c49.333 0 93.666 -6.83301 132.999 -20.5s74.5 -35 105.5 -64s55 -68.667 72 -119s25.5 -110.166 25.5 -179.499v-617h-92l-20 66c-24 -19.333 -62.667 -36.833 -116 -52.5s-105.666 -23.5 -156.999 -23.5
c-96 0 -172.667 25 -230 75s-86 123 -86 219c0 30.667 4.83301 59.167 14.5 85.5s26.334 51.833 50.001 76.5s53.667 45.834 90 63.501s82.833 31.667 139.5 42s121.334 15.5 194.001 15.5h88v32c-0.666992 109.333 -19.834 186 -57.501 230s-90.834 66 -159.501 66
c-10 0 -20.833 -0.5 -32.5 -1.5s-21.834 -2 -30.501 -3s-20.5 -3 -35.5 -6s-26 -5 -33 -6s-19.5 -3.66699 -37.5 -8s-29.333 -7.16602 -34 -8.49902s-17.5 -4.66602 -38.5 -9.99902l-35.5 -9z" />
    <glyph glyph-name="Aogonek" unicode="&#x104;" horiz-adv-x="1081" 
d="M909 0l94 -0.00195312c-28.667 -8.66699 -60.667 -36.167 -96 -82.5s-53 -86.166 -53 -119.499c0 -34.667 26.667 -52 80 -52c38 0 68 6.66699 90 20l15 -80c-40.667 -17.333 -82.667 -26 -126 -26c-46.667 0 -85.167 10.833 -115.5 32.5s-45.5 53.5 -45.5 95.5
c0 38.667 13.5 77.334 40.5 116.001s65.833 70.667 116.5 96zM769 419.998l-219 754l-227 -754h446zM897 -0.00195312l-97 328h-507l-100 -328h-139l400 1284h191l382 -1284h-130z" />
    <glyph glyph-name="aogonek" unicode="&#x105;" horiz-adv-x="953" 
d="M724 0l94 -0.00195312c-28.667 -8.66699 -60.667 -36.167 -96 -82.5s-53 -86.166 -53 -119.499c0 -34.667 26.667 -52 80 -52c38 0 68 6.66699 90 20l15 -80c-40.667 -17.333 -82.667 -26 -126 -26c-46.667 0 -85.167 10.833 -115.5 32.5s-45.5 53.5 -45.5 95.5
c0 38.667 13.5 77.334 40.5 116.001s65.833 70.667 116.5 96zM229 277.998c0 -124 72.0039 -186.001 216.004 -186.001c42.667 0 86.167 6.33301 130.5 19s80.833 28.334 109.5 47.001v315h-56c-32 0 -61.333 -0.833008 -88 -2.5s-56.334 -4.5 -89.001 -8.5
s-61.334 -10.667 -86.001 -20s-47.834 -20.833 -69.501 -34.5s-38.334 -31.5 -50.001 -53.5s-17.5 -47.333 -17.5 -76zM166.004 941.997c118 38.667 220.668 57.9961 308.001 57.9961c49.333 0 93.666 -6.83301 132.999 -20.5s74.5 -35 105.5 -64s55 -68.667 72 -119
s25.5 -110.166 25.5 -179.499v-617h-92l-20 66c-24 -19.333 -62.667 -36.833 -116 -52.5s-105.666 -23.5 -156.999 -23.5c-96 0 -172.667 25 -230 75s-86 123 -86 219c0 30.667 4.83301 59.167 14.5 85.5s26.334 51.833 50.001 76.5s53.667 45.834 90 63.501
s82.833 31.667 139.5 42s121.334 15.5 194.001 15.5h88v32c-0.666992 109.333 -19.834 186 -57.501 230s-90.834 66 -159.501 66c-10 0 -20.833 -0.5 -32.5 -1.5s-21.834 -2 -30.501 -3s-20.5 -3 -35.5 -6s-26 -5 -33 -6s-19.5 -3.66699 -37.5 -8
s-29.333 -7.16602 -34 -8.49902s-17.5 -4.66602 -38.5 -9.99902l-35.5 -9z" />
    <glyph glyph-name="Cacute" unicode="&#x106;" horiz-adv-x="1014" 
d="M467 1513l245 340.999l106 -80l-97 -109c-14 -17.333 -37.667 -42.666 -71 -75.999l-90 -88l-40 -37zM246 637.999c0 -184 32.6689 -320.332 98.002 -408.999s152.666 -133 261.999 -133c93.333 0 185.666 21.667 276.999 65l40 -97
c-103.333 -49.333 -211.666 -74 -324.999 -74c-68.667 0 -131.667 13 -189 39s-107.833 64.833 -151.5 116.5s-77.834 119.667 -102.501 204s-37 181.5 -37 291.5c0 233.333 37.833 401.666 113.5 504.999s193.834 155 354.501 155c104.667 0 208 -25 310 -75v-242h-109v173
c-57.333 25.333 -120.666 38 -189.999 38c-60 0 -110.333 -7.83301 -151 -23.5s-76.834 -43.667 -108.501 -84s-54.834 -97.5 -69.501 -171.5s-22 -166.667 -22 -278z" />
    <glyph glyph-name="cacute" unicode="&#x107;" horiz-adv-x="864" 
d="M400 1212l245 340.999l106 -80l-97 -109c-14 -17.333 -37.667 -42.666 -71 -75.999l-90 -88l-40 -37zM750 169.999l47.998 -91.002c-81.333 -59.333 -178.333 -89 -291 -89c-116.667 0 -212.334 43.667 -287.001 131s-112 212 -112 374c0 336.667 129.333 505 388 505
c90.667 0 178.334 -20 263.001 -60v-258l-102 -10v200c-44 17.333 -98.333 26 -163 26c-49.333 0 -91.166 -9.66699 -125.499 -29s-61 -47.666 -80 -84.999s-32.5 -79.5 -40.5 -126.5s-12 -101.833 -12 -164.5c0 -127.333 25.833 -225.666 77.5 -294.999
s120.834 -104 207.501 -104c78 0 154.333 25.333 229 76z" />
    <glyph glyph-name="Ccircumflex" unicode="&#x108;" horiz-adv-x="1014" 
d="M521 1702l-213 -238l-86 80c103.333 115.333 185.333 202.333 246 261h105c60.667 -58.667 142.667 -145.667 246 -261l-86 -80zM246 638c0 -184 32.6689 -320.332 98.002 -408.999s152.666 -133 261.999 -133c93.333 0 185.666 21.667 276.999 65l40 -97
c-103.333 -49.333 -211.666 -74 -324.999 -74c-68.667 0 -131.667 13 -189 39s-107.833 64.833 -151.5 116.5s-77.834 119.667 -102.501 204s-37 181.5 -37 291.5c0 233.333 37.833 401.666 113.5 504.999s193.834 155 354.501 155c104.667 0 208 -25 310 -75v-242h-109v173
c-57.333 25.333 -120.666 38 -189.999 38c-60 0 -110.333 -7.83301 -151 -23.5s-76.834 -43.667 -108.501 -84s-54.834 -97.5 -69.501 -171.5s-22 -166.667 -22 -278z" />
    <glyph glyph-name="ccircumflex" unicode="&#x109;" horiz-adv-x="864" 
d="M453 1401l-213 -238l-86 80c103.333 115.333 185.333 202.333 246 261h105c60.667 -58.667 142.667 -145.667 246 -261l-86 -80zM750 170l47.998 -91.002c-81.333 -59.333 -178.333 -89 -291 -89c-116.667 0 -212.334 43.667 -287.001 131s-112 212 -112 374
c0 336.667 129.333 505 388 505c90.667 0 178.334 -20 263.001 -60v-258l-102 -10v200c-44 17.333 -98.333 26 -163 26c-49.333 0 -91.166 -9.66699 -125.499 -29s-61 -47.666 -80 -84.999s-32.5 -79.5 -40.5 -126.5s-12 -101.833 -12 -164.5
c0 -127.333 25.833 -225.666 77.5 -294.999s120.834 -104 207.501 -104c78 0 154.333 25.333 229 76z" />
    <glyph glyph-name="Cdotaccent" unicode="&#x10a;" horiz-adv-x="1014" 
d="M601 1666v-202h-160v202h160zM246 638c0 -184 32.6689 -320.332 98.002 -408.999s152.666 -133 261.999 -133c93.333 0 185.666 21.667 276.999 65l40 -97c-103.333 -49.333 -211.666 -74 -324.999 -74c-68.667 0 -131.667 13 -189 39s-107.833 64.833 -151.5 116.5
s-77.834 119.667 -102.501 204s-37 181.5 -37 291.5c0 233.333 37.833 401.666 113.5 504.999s193.834 155 354.501 155c104.667 0 208 -25 310 -75v-242h-109v173c-57.333 25.333 -120.666 38 -189.999 38c-60 0 -110.333 -7.83301 -151 -23.5
s-76.834 -43.667 -108.501 -84s-54.834 -97.5 -69.501 -171.5s-22 -166.667 -22 -278z" />
    <glyph glyph-name="cdotaccent" unicode="&#x10b;" horiz-adv-x="864" 
d="M533 1365v-202h-160v202h160zM750 170l47.998 -91.002c-81.333 -59.333 -178.333 -89 -291 -89c-116.667 0 -212.334 43.667 -287.001 131s-112 212 -112 374c0 336.667 129.333 505 388 505c90.667 0 178.334 -20 263.001 -60v-258l-102 -10v200
c-44 17.333 -98.333 26 -163 26c-49.333 0 -91.166 -9.66699 -125.499 -29s-61 -47.666 -80 -84.999s-32.5 -79.5 -40.5 -126.5s-12 -101.833 -12 -164.5c0 -127.333 25.833 -225.666 77.5 -294.999s120.834 -104 207.501 -104c78 0 154.333 25.333 229 76z" />
    <glyph glyph-name="Ccaron" unicode="&#x10c;" horiz-adv-x="1014" 
d="M520 1577l192 257l88 -60c-58.667 -79.333 -134.667 -173 -228 -281c-16 -19.333 -33.333 -29 -52 -29c-18 0 -35 9.66699 -51 29c-93.333 108 -169.333 201.667 -228 281l88 60zM246 638c0 -184 32.6689 -320.332 98.002 -408.999s152.666 -133 261.999 -133
c93.333 0 185.666 21.667 276.999 65l40 -97c-103.333 -49.333 -211.666 -74 -324.999 -74c-68.667 0 -131.667 13 -189 39s-107.833 64.833 -151.5 116.5s-77.834 119.667 -102.501 204s-37 181.5 -37 291.5c0 233.333 37.833 401.666 113.5 504.999
s193.834 155 354.501 155c104.667 0 208 -25 310 -75v-242h-109v173c-57.333 25.333 -120.666 38 -189.999 38c-60 0 -110.333 -7.83301 -151 -23.5s-76.834 -43.667 -108.501 -84s-54.834 -97.5 -69.501 -171.5s-22 -166.667 -22 -278z" />
    <glyph glyph-name="ccaron" unicode="&#x10d;" horiz-adv-x="864" 
d="M452 1276l192 257l88 -60c-58.667 -79.333 -134.667 -173 -228 -281c-16 -19.333 -33.333 -29 -52 -29c-18 0 -35 9.66699 -51 29c-93.333 108 -169.333 201.667 -228 281l88 60zM750 170l47.998 -91.002c-81.333 -59.333 -178.333 -89 -291 -89
c-116.667 0 -212.334 43.667 -287.001 131s-112 212 -112 374c0 336.667 129.333 505 388 505c90.667 0 178.334 -20 263.001 -60v-258l-102 -10v200c-44 17.333 -98.333 26 -163 26c-49.333 0 -91.166 -9.66699 -125.499 -29s-61 -47.666 -80 -84.999
s-32.5 -79.5 -40.5 -126.5s-12 -101.833 -12 -164.5c0 -127.333 25.833 -225.666 77.5 -294.999s120.834 -104 207.501 -104c78 0 154.333 25.333 229 76z" />
    <glyph glyph-name="Dcaron" unicode="&#x10e;" horiz-adv-x="1099" 
d="M564 1577l192 257l88 -60c-58.667 -79.333 -134.667 -173 -228 -281c-16 -19.333 -33.333 -29 -52 -29c-18 0 -35 9.66699 -51 29c-93.333 108 -169.333 201.667 -228 281l88 60zM433 0l-284.002 -0.000976562v1284h273c76 0 142.333 -5 199 -15
s105.834 -26.667 147.501 -50s76 -51.333 103 -84s48.667 -74.167 65 -124.5s27.833 -105.166 34.5 -164.499s10 -129.333 10 -210c0 -62 -1.83301 -116.667 -5.5 -164s-10.5 -94 -20.5 -140s-23.667 -85.333 -41 -118s-39.666 -63.167 -66.999 -91.5
s-60.166 -51 -98.499 -68s-83.833 -30.333 -136.5 -40s-112.334 -14.5 -179.001 -14.5zM421.998 1184l-144.997 0.00195312v-1084h156c42.667 0 81.167 2.16699 115.5 6.5s65.166 10.333 92.499 18s51.333 18.5 72 32.5s38.5 28.833 53.5 44.5s27.667 35.5 38 59.5
s18.666 47.833 24.999 71.5s11.166 52.667 14.499 87s5.66602 67.666 6.99902 99.999s2 71.166 2 116.499c0 70.667 -2 130.167 -6 178.5s-11.5 94.333 -22.5 138s-26.333 79 -46 106s-45.667 50.5 -78 70.5s-71.166 34.167 -116.499 42.5s-99.333 12.5 -162 12.5z" />
    <glyph glyph-name="dcaron" unicode="&#x10f;" horiz-adv-x="1010" 
d="M1335 1187c0 -60 -11.333 -114 -34 -162s-56.667 -98.333 -102 -151l-47 53c54 83.333 82.667 157 86 221h-95v210h192v-171zM742 1358h128.001v-1358h-104l-10 50c-74.667 -40 -155.334 -60 -242.001 -60c-61.333 0 -116 9.16699 -164 27.5s-90.5 47 -127.5 86
s-65.333 91.333 -85 157s-29.5 143.167 -29.5 232.5c0 70 6.66699 133.5 20 190.5s31.5 104.833 54.5 143.5s50.5 71.167 82.5 97.5s66.333 45.5 103 57.5s75.334 18 116.001 18c45.333 0 87.666 -5.33301 126.999 -16s83 -31 131 -61v435zM742.001 137l-0.00195312 672
c-54.667 31.333 -100.167 53.5 -136.5 66.5s-71.5 19.5 -105.5 19.5c-81.333 0 -145.666 -33.833 -192.999 -101.5s-71 -168.5 -71 -302.5c0 -263.333 98.667 -395 296 -395h28c62.667 0 123.334 13.667 182.001 41z" />
    <glyph glyph-name="Dcroat" unicode="&#x110;" horiz-adv-x="1099" 
d="M422 1184l-144.997 -0.000976562v-472h203v-103h-203v-505h156c42.667 0 81.167 2.16699 115.5 6.5s65.166 10.333 92.499 18s51.333 18.5 72 32.5s38.5 28.667 53.5 44s27.667 34.833 38 58.5s18.666 47.334 24.999 71.001s11.166 52.5 14.499 86.5
s5.66602 67.167 6.99902 99.5s2 70.833 2 115.5c0 70.667 -2 130.167 -6 178.5s-11.5 94.333 -22.5 138s-26.333 79 -46 106s-45.667 50.5 -78 70.5s-71.166 34.167 -116.499 42.5s-99.333 12.5 -162 12.5zM0.00292969 608.999l-0.00195312 102.999h149v572h273
c76 0 142.333 -5 199 -15s105.834 -26.667 147.501 -50s76 -51.333 103 -84s48.667 -74.167 65 -124.5s27.833 -105.166 34.5 -164.499s10 -129.333 10 -210c0 -62 -1.83301 -116.667 -5.5 -164s-10.5 -94 -20.5 -140s-23.667 -85.333 -41 -118
s-39.666 -63.167 -66.999 -91.5s-60.166 -51 -98.499 -68s-83.833 -30.333 -136.5 -40s-112.334 -14.5 -179.001 -14.5h-284v609h-149z" />
    <glyph glyph-name="dcroat" unicode="&#x111;" horiz-adv-x="1010" 
d="M742 137l-0.00195312 672c-54.667 31.333 -100.167 53.5 -136.5 66.5s-71.5 19.5 -105.5 19.5c-81.333 0 -145.666 -33.833 -192.999 -101.5s-71 -168.5 -71 -302.5c0 -263.333 98.667 -395 296 -395h28c62.667 0 123.334 13.667 182.001 41zM741.998 1358h128.001v-163
h140v-88h-140v-1107h-104l-10 50c-74.667 -40 -155.334 -60 -242.001 -60c-61.333 0 -116 9.16699 -164 27.5s-90.5 47 -127.5 86s-65.333 91.333 -85 157s-29.5 143.167 -29.5 232.5c0 70 6.66699 133.5 20 190.5s31.5 104.833 54.5 143.5s50.5 71.167 82.5 97.5
s66.333 45.5 103 57.5s75.334 18 116.001 18c45.333 0 87.666 -5.33301 126.999 -16s83 -31 131 -61v184h-212v88h212v163z" />
    <glyph glyph-name="Emacron" unicode="&#x112;" horiz-adv-x="921" 
d="M254 1464v106h480v-106h-480zM277 626v-526h545l16 -100h-689v1284h685l-22 -100h-535v-462h501v-96h-501z" />
    <glyph glyph-name="emacron" unicode="&#x113;" horiz-adv-x="964" 
d="M245 1163v106h480v-106h-480zM508 895c-84 0 -148.333 -29.168 -193 -87.501s-71 -141.166 -79 -248.499h507v50c0 87.333 -21.167 156.833 -63.5 208.5s-99.5 77.5 -171.5 77.5zM525 95.999c102.667 0 196.001 26.668 280.001 80.001l39 -101
c-45.333 -28 -96 -49.167 -152 -63.5s-109.333 -21.5 -160 -21.5c-134.667 0 -239 40.667 -313 122s-111 209.333 -111 384c0 167.333 36 293.166 108 377.499s169 126.5 291 126.5c110 0 196.667 -36 260 -108s95 -168 95 -288c0 -27.333 -2.66699 -72.333 -8 -135h-618
c0.666992 -59.333 6.66699 -111.5 18 -156.5s25.666 -81 42.999 -108s38.833 -48.833 64.5 -65.5s51.5 -28 77.5 -34s54.667 -9 86 -9z" />
    <glyph glyph-name="Ebreve" unicode="&#x114;" horiz-adv-x="921" 
d="M685 1689l77.001 -76c-88.667 -99.333 -178.334 -149 -269.001 -149c-90 0 -179.333 49.667 -268 149l77 76c55.333 -76.667 118 -115 188 -115c70.667 0 135.667 38.333 195 115zM277.001 626v-526h545l16 -100h-689v1284h685l-22 -100h-535v-462h501v-96h-501z" />
    <glyph glyph-name="ebreve" unicode="&#x115;" horiz-adv-x="964" 
d="M676 1388l77.001 -76c-88.667 -99.333 -178.334 -149 -269.001 -149c-90 0 -179.333 49.667 -268 149l77 76c55.333 -76.667 118 -115 188 -115c70.667 0 135.667 38.333 195 115zM508.001 895c-84 0 -148.333 -29.168 -193 -87.501s-71 -141.166 -79 -248.499h507v50
c0 87.333 -21.167 156.833 -63.5 208.5s-99.5 77.5 -171.5 77.5zM525.001 95.999c102.667 0 196.001 26.668 280.001 80.001l39 -101c-45.333 -28 -96 -49.167 -152 -63.5s-109.333 -21.5 -160 -21.5c-134.667 0 -239 40.667 -313 122s-111 209.333 -111 384
c0 167.333 36 293.166 108 377.499s169 126.5 291 126.5c110 0 196.667 -36 260 -108s95 -168 95 -288c0 -27.333 -2.66699 -72.333 -8 -135h-618c0.666992 -59.333 6.66699 -111.5 18 -156.5s25.666 -81 42.999 -108s38.833 -48.833 64.5 -65.5s51.5 -28 77.5 -34
s54.667 -9 86 -9z" />
    <glyph glyph-name="Edotaccent" unicode="&#x116;" horiz-adv-x="921" 
d="M573 1666v-202h-160v202h160zM277 626v-526h545l16 -100h-689v1284h685l-22 -100h-535v-462h501v-96h-501z" />
    <glyph glyph-name="edotaccent" unicode="&#x117;" horiz-adv-x="964" 
d="M565 1365v-202h-160v202h160zM508 895c-84 0 -148.333 -29.168 -193 -87.501s-71 -141.166 -79 -248.499h507v50c0 87.333 -21.167 156.833 -63.5 208.5s-99.5 77.5 -171.5 77.5zM525 95.999c102.667 0 196.001 26.668 280.001 80.001l39 -101
c-45.333 -28 -96 -49.167 -152 -63.5s-109.333 -21.5 -160 -21.5c-134.667 0 -239 40.667 -313 122s-111 209.333 -111 384c0 167.333 36 293.166 108 377.499s169 126.5 291 126.5c110 0 196.667 -36 260 -108s95 -168 95 -288c0 -27.333 -2.66699 -72.333 -8 -135h-618
c0.666992 -59.333 6.66699 -111.5 18 -156.5s25.666 -81 42.999 -108s38.833 -48.833 64.5 -65.5s51.5 -28 77.5 -34s54.667 -9 86 -9z" />
    <glyph glyph-name="Eogonek" unicode="&#x118;" horiz-adv-x="921" 
d="M494 11l94 -0.00195312c-28.667 -8.66699 -60.667 -36.167 -96 -82.5s-53 -86.166 -53 -119.499c0 -34.667 26.667 -52 80 -52c38 0 68 6.66699 90 20l15 -80c-40.667 -17.333 -82.667 -26 -126 -26c-46.667 0 -85.167 10.833 -115.5 32.5s-45.5 53.5 -45.5 95.5
c0 38.667 13.5 77.334 40.5 116.001s65.833 70.667 116.5 96zM277 625.998v-526h545l16 -100h-689v1284h685l-22 -100h-535v-462h501v-96h-501z" />
    <glyph glyph-name="eogonek" unicode="&#x119;" horiz-adv-x="964" 
d="M438 1l94 -0.00195312c-28.667 -8.66699 -60.667 -36.167 -96 -82.5s-53 -86.166 -53 -119.499c0 -34.667 26.667 -52 80 -52c38 0 68 6.66699 90 20l15 -80c-40.667 -17.333 -82.667 -26 -126 -26c-46.667 0 -85.167 10.833 -115.5 32.5s-45.5 53.5 -45.5 95.5
c0 38.667 13.5 77.334 40.5 116.001s65.833 70.667 116.5 96zM508 894.998c-84 0 -148.333 -29.168 -193 -87.501s-71 -141.166 -79 -248.499h507v50c0 87.333 -21.167 156.833 -63.5 208.5s-99.5 77.5 -171.5 77.5zM525 95.9971c102.667 0 196.001 26.668 280.001 80.001
l39 -101c-45.333 -28 -96 -49.167 -152 -63.5s-109.333 -21.5 -160 -21.5c-134.667 0 -239 40.667 -313 122s-111 209.333 -111 384c0 167.333 36 293.166 108 377.499s169 126.5 291 126.5c110 0 196.667 -36 260 -108s95 -168 95 -288c0 -27.333 -2.66699 -72.333 -8 -135
h-618c0.666992 -59.333 6.66699 -111.5 18 -156.5s25.666 -81 42.999 -108s38.833 -48.833 64.5 -65.5s51.5 -28 77.5 -34s54.667 -9 86 -9z" />
    <glyph glyph-name="Ecaron" unicode="&#x11a;" horiz-adv-x="921" 
d="M493 1577l192 257l88 -60c-58.667 -79.333 -134.667 -173 -228 -281c-16 -19.333 -33.333 -29 -52 -29c-18 0 -35 9.66699 -51 29c-93.333 108 -169.333 201.667 -228 281l88 60zM277 626v-526h545l16 -100h-689v1284h685l-22 -100h-535v-462h501v-96h-501z" />
    <glyph glyph-name="ecaron" unicode="&#x11b;" horiz-adv-x="964" 
d="M484 1276l192 257l88 -60c-58.667 -79.333 -134.667 -173 -228 -281c-16 -19.333 -33.333 -29 -52 -29c-18 0 -35 9.66699 -51 29c-93.333 108 -169.333 201.667 -228 281l88 60zM508 895c-84 0 -148.333 -29.168 -193 -87.501s-71 -141.166 -79 -248.499h507v50
c0 87.333 -21.167 156.833 -63.5 208.5s-99.5 77.5 -171.5 77.5zM525 95.999c102.667 0 196.001 26.668 280.001 80.001l39 -101c-45.333 -28 -96 -49.167 -152 -63.5s-109.333 -21.5 -160 -21.5c-134.667 0 -239 40.667 -313 122s-111 209.333 -111 384
c0 167.333 36 293.166 108 377.499s169 126.5 291 126.5c110 0 196.667 -36 260 -108s95 -168 95 -288c0 -27.333 -2.66699 -72.333 -8 -135h-618c0.666992 -59.333 6.66699 -111.5 18 -156.5s25.666 -81 42.999 -108s38.833 -48.833 64.5 -65.5s51.5 -28 77.5 -34
s54.667 -9 86 -9z" />
    <glyph glyph-name="Gcircumflex" unicode="&#x11c;" horiz-adv-x="1094" 
d="M537 1702l-213 -238l-86 80c103.333 115.333 185.333 202.333 246 261h105c60.667 -58.667 142.667 -145.667 246 -261l-86 -80zM964 92c-24.667 -13.333 -45.166 -23.833 -61.499 -31.5s-41.666 -18 -75.999 -31s-72 -22.833 -113 -29.5s-84.167 -10 -129.5 -10
c-172.667 0 -294.834 52.167 -366.501 156.5s-107.5 272.166 -107.5 503.499c0 230 40.667 396 122 498s203.666 153 366.999 153c118 0 228 -25 330 -75v-242h-109v173c-57.333 25.333 -127.333 38 -210 38c-48 0 -89.833 -4.33301 -125.5 -13
s-69.834 -24.667 -102.501 -48s-59.167 -54.666 -79.5 -93.999s-36.666 -91 -48.999 -155s-18.5 -139.333 -18.5 -226c0 -202.667 26 -347.167 78 -433.5s144.333 -129.5 277 -129.5c104 0 190 16.333 258 49v422h-236v98h352v-573z" />
    <glyph glyph-name="gcircumflex" unicode="&#x11d;" horiz-adv-x="1092" 
d="M574 1401l-213 -238l-86 80c103.333 115.333 185.333 202.333 246 261h105c60.667 -58.667 142.667 -145.667 246 -261l-86 -80zM521 -235c108 0 189.002 18.3311 243.002 54.998s81 80.334 81 131.001c0 38 -9.83301 66.5 -29.5 85.5s-58.834 28.5 -117.501 28.5h-379
c-48.667 -46 -73 -94 -73 -144c0 -13.333 0.833008 -24.833 2.5 -34.5s5.16699 -21.167 10.5 -34.5s14.166 -24.666 26.499 -33.999s28 -18.333 47 -27s44.667 -15.167 77 -19.5s69.5 -6.5 111.5 -6.5zM742.002 976.998h287v-94h-223c34.667 -26 61.334 -58 80.001 -96
s28 -75.667 28 -113c0 -90.667 -34 -162.834 -102 -216.501s-157.333 -80.5 -268 -80.5c-76 0 -144.667 12.333 -206 37c-44 -71.333 -66 -124.666 -66 -159.999c0 -16 2.66699 -31.5 8 -46.5s10.666 -25.833 15.999 -32.5l7 -10h379c105.333 0 178.833 -16.333 220.5 -49
s62.5 -85 62.5 -157c0 -27.333 -4.16699 -54 -12.5 -80s-23.166 -52.5 -44.499 -79.5s-48.333 -50.667 -81 -71s-75.834 -36.833 -129.501 -49.5s-114.5 -19 -182.5 -19c-63.333 0 -119.5 5.83301 -168.5 17.5s-87.5 26 -115.5 43s-50.833 37.167 -68.5 60.5
s-29.5 45 -35.5 65s-9 40.333 -9 61c0 37.333 12.5 74.666 37.5 111.999s49.5 63 73.5 77c-22 14.667 -39.333 35.334 -52 62.001s-19 53 -19 79c0 35.333 7.66699 68.666 23 99.999s42 74 80 128c-74 62 -111 136.333 -111 223c0 104.667 36.167 182.834 108.5 234.501
s165.833 77.5 280.5 77.5c30 0 65 -3.83301 105 -11.5s72.667 -11.5 98 -11.5zM545.002 904.998c-92 0 -159.499 -19.668 -202.499 -59.001s-64.5 -91.666 -64.5 -156.999c0 -69.333 22.667 -122.333 68 -159s108.333 -55 189 -55c85.333 0 150.333 17 195 51
s67 84.667 67 152c0 65.333 -21.333 119.5 -64 162.5s-105.334 64.5 -188.001 64.5z" />
    <glyph glyph-name="Gbreve" unicode="&#x11e;" horiz-adv-x="1094" 
d="M728 1689l77.001 -76c-88.667 -99.333 -178.334 -149 -269.001 -149c-90 0 -179.333 49.667 -268 149l77 76c55.333 -76.667 118 -115 188 -115c70.667 0 135.667 38.333 195 115zM964.001 92c-24.667 -13.333 -45.166 -23.833 -61.499 -31.5s-41.666 -18 -75.999 -31
s-72 -22.833 -113 -29.5s-84.167 -10 -129.5 -10c-172.667 0 -294.834 52.167 -366.501 156.5s-107.5 272.166 -107.5 503.499c0 230 40.667 396 122 498s203.666 153 366.999 153c118 0 228 -25 330 -75v-242h-109v173c-57.333 25.333 -127.333 38 -210 38
c-48 0 -89.833 -4.33301 -125.5 -13s-69.834 -24.667 -102.501 -48s-59.167 -54.666 -79.5 -93.999s-36.666 -91 -48.999 -155s-18.5 -139.333 -18.5 -226c0 -202.667 26 -347.167 78 -433.5s144.333 -129.5 277 -129.5c104 0 190 16.333 258 49v422h-236v98h352v-573z" />
    <glyph glyph-name="gbreve" unicode="&#x11f;" horiz-adv-x="1092" 
d="M765 1388l77.001 -76c-88.667 -99.333 -178.334 -149 -269.001 -149c-90 0 -179.333 49.667 -268 149l77 76c55.333 -76.667 118 -115 188 -115c70.667 0 135.667 38.333 195 115zM521.001 -235c108 0 189.002 18.3311 243.002 54.998s81 80.334 81 131.001
c0 38 -9.83301 66.5 -29.5 85.5s-58.834 28.5 -117.501 28.5h-379c-48.667 -46 -73 -94 -73 -144c0 -13.333 0.833008 -24.833 2.5 -34.5s5.16699 -21.167 10.5 -34.5s14.166 -24.666 26.499 -33.999s28 -18.333 47 -27s44.667 -15.167 77 -19.5s69.5 -6.5 111.5 -6.5z
M742.003 976.998h287v-94h-223c34.667 -26 61.334 -58 80.001 -96s28 -75.667 28 -113c0 -90.667 -34 -162.834 -102 -216.501s-157.333 -80.5 -268 -80.5c-76 0 -144.667 12.333 -206 37c-44 -71.333 -66 -124.666 -66 -159.999c0 -16 2.66699 -31.5 8 -46.5
s10.666 -25.833 15.999 -32.5l7 -10h379c105.333 0 178.833 -16.333 220.5 -49s62.5 -85 62.5 -157c0 -27.333 -4.16699 -54 -12.5 -80s-23.166 -52.5 -44.499 -79.5s-48.333 -50.667 -81 -71s-75.834 -36.833 -129.501 -49.5s-114.5 -19 -182.5 -19
c-63.333 0 -119.5 5.83301 -168.5 17.5s-87.5 26 -115.5 43s-50.833 37.167 -68.5 60.5s-29.5 45 -35.5 65s-9 40.333 -9 61c0 37.333 12.5 74.666 37.5 111.999s49.5 63 73.5 77c-22 14.667 -39.333 35.334 -52 62.001s-19 53 -19 79c0 35.333 7.66699 68.666 23 99.999
s42 74 80 128c-74 62 -111 136.333 -111 223c0 104.667 36.167 182.834 108.5 234.501s165.833 77.5 280.5 77.5c30 0 65 -3.83301 105 -11.5s72.667 -11.5 98 -11.5zM545.003 904.998c-92 0 -159.499 -19.668 -202.499 -59.001s-64.5 -91.666 -64.5 -156.999
c0 -69.333 22.667 -122.333 68 -159s108.333 -55 189 -55c85.333 0 150.333 17 195 51s67 84.667 67 152c0 65.333 -21.333 119.5 -64 162.5s-105.334 64.5 -188.001 64.5z" />
    <glyph glyph-name="Gdotaccent" unicode="&#x120;" horiz-adv-x="1094" 
d="M617 1666v-202h-160v202h160zM964 92c-24.667 -13.333 -45.166 -23.833 -61.499 -31.5s-41.666 -18 -75.999 -31s-72 -22.833 -113 -29.5s-84.167 -10 -129.5 -10c-172.667 0 -294.834 52.167 -366.501 156.5s-107.5 272.166 -107.5 503.499c0 230 40.667 396 122 498
s203.666 153 366.999 153c118 0 228 -25 330 -75v-242h-109v173c-57.333 25.333 -127.333 38 -210 38c-48 0 -89.833 -4.33301 -125.5 -13s-69.834 -24.667 -102.501 -48s-59.167 -54.666 -79.5 -93.999s-36.666 -91 -48.999 -155s-18.5 -139.333 -18.5 -226
c0 -202.667 26 -347.167 78 -433.5s144.333 -129.5 277 -129.5c104 0 190 16.333 258 49v422h-236v98h352v-573z" />
    <glyph glyph-name="gdotaccent" unicode="&#x121;" horiz-adv-x="1092" 
d="M653 1365v-202h-160v202h160zM521 -235c108 0 189.002 18.3311 243.002 54.998s81 80.334 81 131.001c0 38 -9.83301 66.5 -29.5 85.5s-58.834 28.5 -117.501 28.5h-379c-48.667 -46 -73 -94 -73 -144c0 -13.333 0.833008 -24.833 2.5 -34.5s5.16699 -21.167 10.5 -34.5
s14.166 -24.666 26.499 -33.999s28 -18.333 47 -27s44.667 -15.167 77 -19.5s69.5 -6.5 111.5 -6.5zM742.002 976.998h287v-94h-223c34.667 -26 61.334 -58 80.001 -96s28 -75.667 28 -113c0 -90.667 -34 -162.834 -102 -216.501s-157.333 -80.5 -268 -80.5
c-76 0 -144.667 12.333 -206 37c-44 -71.333 -66 -124.666 -66 -159.999c0 -16 2.66699 -31.5 8 -46.5s10.666 -25.833 15.999 -32.5l7 -10h379c105.333 0 178.833 -16.333 220.5 -49s62.5 -85 62.5 -157c0 -27.333 -4.16699 -54 -12.5 -80s-23.166 -52.5 -44.499 -79.5
s-48.333 -50.667 -81 -71s-75.834 -36.833 -129.501 -49.5s-114.5 -19 -182.5 -19c-63.333 0 -119.5 5.83301 -168.5 17.5s-87.5 26 -115.5 43s-50.833 37.167 -68.5 60.5s-29.5 45 -35.5 65s-9 40.333 -9 61c0 37.333 12.5 74.666 37.5 111.999s49.5 63 73.5 77
c-22 14.667 -39.333 35.334 -52 62.001s-19 53 -19 79c0 35.333 7.66699 68.666 23 99.999s42 74 80 128c-74 62 -111 136.333 -111 223c0 104.667 36.167 182.834 108.5 234.501s165.833 77.5 280.5 77.5c30 0 65 -3.83301 105 -11.5s72.667 -11.5 98 -11.5z
M545.002 904.998c-92 0 -159.499 -19.668 -202.499 -59.001s-64.5 -91.666 -64.5 -156.999c0 -69.333 22.667 -122.333 68 -159s108.333 -55 189 -55c85.333 0 150.333 17 195 51s67 84.667 67 152c0 65.333 -21.333 119.5 -64 162.5s-105.334 64.5 -188.001 64.5z" />
    <glyph glyph-name="Gcommaaccent" unicode="&#x122;" horiz-adv-x="1094" 
d="M661 -344c0 -60 -11.333 -114 -34 -162s-56.667 -98.333 -102 -151l-47 53c54 83.333 82.667 157 86 221h-95v210h192v-171zM964 92c-24.667 -13.333 -45.166 -23.833 -61.499 -31.5s-41.666 -18 -75.999 -31s-72 -22.833 -113 -29.5s-84.167 -10 -129.5 -10
c-172.667 0 -294.834 52.167 -366.501 156.5s-107.5 272.166 -107.5 503.499c0 230 40.667 396 122 498s203.666 153 366.999 153c118 0 228 -25 330 -75v-242h-109v173c-57.333 25.333 -127.333 38 -210 38c-48 0 -89.833 -4.33301 -125.5 -13
s-69.834 -24.667 -102.501 -48s-59.167 -54.666 -79.5 -93.999s-36.666 -91 -48.999 -155s-18.5 -139.333 -18.5 -226c0 -202.667 26 -347.167 78 -433.5s144.333 -129.5 277 -129.5c104 0 190 16.333 258 49v422h-236v98h352v-573z" />
    <glyph glyph-name="gcommaaccent" unicode="&#x123;" horiz-adv-x="1092" 
d="M413 1298c0 60 11.333 114 34 162s56.667 98.333 102 151l47 -53c-54 -83.333 -82.667 -157 -86 -221h95v-210h-192v171zM521 -235c108 0 189.002 18.3311 243.002 54.998s81 80.334 81 131.001c0 38 -9.83301 66.5 -29.5 85.5s-58.834 28.5 -117.501 28.5h-379
c-48.667 -46 -73 -94 -73 -144c0 -13.333 0.833008 -24.833 2.5 -34.5s5.16699 -21.167 10.5 -34.5s14.166 -24.666 26.499 -33.999s28 -18.333 47 -27s44.667 -15.167 77 -19.5s69.5 -6.5 111.5 -6.5zM742.002 976.998h287v-94h-223c34.667 -26 61.334 -58 80.001 -96
s28 -75.667 28 -113c0 -90.667 -34 -162.834 -102 -216.501s-157.333 -80.5 -268 -80.5c-76 0 -144.667 12.333 -206 37c-44 -71.333 -66 -124.666 -66 -159.999c0 -16 2.66699 -31.5 8 -46.5s10.666 -25.833 15.999 -32.5l7 -10h379c105.333 0 178.833 -16.333 220.5 -49
s62.5 -85 62.5 -157c0 -27.333 -4.16699 -54 -12.5 -80s-23.166 -52.5 -44.499 -79.5s-48.333 -50.667 -81 -71s-75.834 -36.833 -129.501 -49.5s-114.5 -19 -182.5 -19c-63.333 0 -119.5 5.83301 -168.5 17.5s-87.5 26 -115.5 43s-50.833 37.167 -68.5 60.5
s-29.5 45 -35.5 65s-9 40.333 -9 61c0 37.333 12.5 74.666 37.5 111.999s49.5 63 73.5 77c-22 14.667 -39.333 35.334 -52 62.001s-19 53 -19 79c0 35.333 7.66699 68.666 23 99.999s42 74 80 128c-74 62 -111 136.333 -111 223c0 104.667 36.167 182.834 108.5 234.501
s165.833 77.5 280.5 77.5c30 0 65 -3.83301 105 -11.5s72.667 -11.5 98 -11.5zM545.002 904.998c-92 0 -159.499 -19.668 -202.499 -59.001s-64.5 -91.666 -64.5 -156.999c0 -69.333 22.667 -122.333 68 -159s108.333 -55 189 -55c85.333 0 150.333 17 195 51
s67 84.667 67 152c0 65.333 -21.333 119.5 -64 162.5s-105.334 64.5 -188.001 64.5z" />
    <glyph glyph-name="Hcircumflex" unicode="&#x124;" horiz-adv-x="1134" 
d="M567 1702l-213 -238l-86 80c103.333 115.333 185.333 202.333 246 261h105c60.667 -58.667 142.667 -145.667 246 -261l-86 -80zM857 1284h128v-1284h-128v602h-580v-602h-128v1284h128v-581h580v581z" />
    <glyph glyph-name="hcircumflex" unicode="&#x125;" horiz-adv-x="972" 
d="M493 1759l-213 -238l-86 80c103.333 115.333 185.333 202.333 246 261h105c60.667 -58.667 142.667 -145.667 246 -261l-86 -80zM268 800v-800h-128v1358h128v-447c107.333 59.333 207 89 299 89c94 0 163.667 -26.833 209 -80.5s68 -139.167 68 -256.5v-663h-128v669
c0 80.667 -11.667 138.5 -35 173.5s-64 52.5 -122 52.5c-76.667 0 -173.667 -31.667 -291 -95z" />
    <glyph glyph-name="Hbar" unicode="&#x126;" horiz-adv-x="1134" 
d="M41 896v88h108v300h128v-300h580v300h128v-300h112v-88h-112v-896h-128v602h-580v-602h-128v896h-108zM857 896h-580v-193h580v193z" />
    <glyph glyph-name="hbar" unicode="&#x127;" horiz-adv-x="991" 
d="M-31 1100v95h190v163h128v-163h212v-95h-212v-189c107.333 59.333 207 89 299 89c94 0 163.667 -26.833 209 -80.5s68 -139.167 68 -256.5v-663h-128v669c0 80.667 -11.667 138.5 -35 173.5s-64 52.5 -122 52.5c-76.667 0 -173.667 -31.667 -291 -95v-800h-128v1100h-190
z" />
    <glyph glyph-name="Itilde" unicode="&#x128;" horiz-adv-x="730" 
d="M684 1623c-26 -56 -51.833 -96.001 -77.5 -120.001s-56.167 -36 -91.5 -36c-40.667 0 -100.667 18 -180 54c-55.333 26 -92.333 39 -111 39c-17.333 0 -33 -7.16699 -47 -21.5s-30.333 -39.166 -49 -74.499l-81 46h3c29.333 61.333 55.833 104.333 79.5 129
s51.5 37 83.5 37c32.667 0 95 -19.667 187 -59c62 -24 99.667 -36 113 -36c16 0 30.333 6.16699 43 18.5s28.667 34.833 48 67.5zM432 1184v-1084h188v-100h-510v100h194v1084h-194v100h506v-100h-184z" />
    <glyph glyph-name="itilde" unicode="&#x129;" horiz-adv-x="673" 
d="M678 1322c-26 -56 -51.833 -96.001 -77.5 -120.001s-56.167 -36 -91.5 -36c-40.667 0 -100.667 18 -180 54c-55.333 26 -92.333 39 -111 39c-17.333 0 -33 -7.16699 -47 -21.5s-30.333 -39.166 -49 -74.499l-81 46h3c29.333 61.333 55.833 104.333 79.5 129
s51.5 37 83.5 37c32.667 0 95 -19.667 187 -59c62 -24 99.667 -36 113 -36c16 0 30.333 6.16699 43 18.5s28.667 34.833 48 67.5zM111 894.999v90h320v-895h192v-90h-512v90h192v805h-192z" />
    <glyph glyph-name="Imacron" unicode="&#x12a;" horiz-adv-x="730" 
d="M125 1464v106h480v-106h-480zM432 1184v-1084h188v-100h-510v100h194v1084h-194v100h506v-100h-184z" />
    <glyph glyph-name="imacron" unicode="&#x12b;" horiz-adv-x="673" 
d="M119 1163v106h480v-106h-480zM111 895v90h320v-895h192v-90h-512v90h192v805h-192z" />
    <glyph glyph-name="Ibreve" unicode="&#x12c;" horiz-adv-x="730" 
d="M556 1689l77.001 -76c-88.667 -99.333 -178.334 -149 -269.001 -149c-90 0 -179.333 49.667 -268 149l77 76c55.333 -76.667 118 -115 188 -115c70.667 0 135.667 38.333 195 115zM432.001 1184v-1084h188v-100h-510v100h194v1084h-194v100h506v-100h-184z" />
    <glyph glyph-name="ibreve" unicode="&#x12d;" horiz-adv-x="673" 
d="M550 1388l77.001 -76c-88.667 -99.333 -178.334 -149 -269.001 -149c-90 0 -179.333 49.667 -268 149l77 76c55.333 -76.667 118 -115 188 -115c70.667 0 135.667 38.333 195 115zM111.001 895v90h320v-895h192v-90h-512v90h192v805h-192z" />
    <glyph glyph-name="Iogonek" unicode="&#x12e;" horiz-adv-x="730" 
d="M318 11l94 -0.00195312c-28.667 -8.66699 -60.667 -36.167 -96 -82.5s-53 -86.166 -53 -119.499c0 -34.667 26.667 -52 80 -52c38 0 68 6.66699 90 20l15 -80c-40.667 -17.333 -82.667 -26 -126 -26c-46.667 0 -85.167 10.833 -115.5 32.5s-45.5 53.5 -45.5 95.5
c0 38.667 13.5 77.334 40.5 116.001s65.833 70.667 116.5 96zM432 1184v-1084h188v-100h-510v100h194v1084h-194v100h506v-100h-184z" />
    <glyph glyph-name="iogonek" unicode="&#x12f;" horiz-adv-x="677" 
d="M327 11l94 -0.00195312c-28.667 -8.66699 -60.667 -36.167 -96 -82.5s-53 -86.166 -53 -119.499c0 -34.667 26.667 -52 80 -52c38 0 68 6.66699 90 20l15 -80c-40.667 -17.333 -82.667 -26 -126 -26c-46.667 0 -85.167 10.833 -115.5 32.5s-45.5 53.5 -45.5 95.5
c0 38.667 13.5 77.334 40.5 116.001s65.833 70.667 116.5 96zM283 1264c0 28 8.66699 50.3311 26 66.998s39 25 65 25c27.333 0 49.166 -7.66699 65.499 -23s24.5 -37.666 24.5 -66.999s-8.16699 -51.666 -24.5 -66.999s-38.166 -23 -65.499 -23
c-26.667 0 -48.5 7.83301 -65.5 23.5s-25.5 37.167 -25.5 64.5zM118 894.996v90h320v-895h192v-90h-512v90h192v805h-192z" />
    <glyph glyph-name="Idotaccent" unicode="&#x130;" horiz-adv-x="730" 
d="M445 1666v-202h-160v202h160zM432 1184v-1084h188v-100h-510v100h194v1084h-194v100h506v-100h-184z" />
    <glyph glyph-name="dotlessi" unicode="&#x131;" horiz-adv-x="673" 
d="M111 895v90h320v-895h192v-90h-512v90h192v805h-192z" />
    <glyph glyph-name="IJ" unicode="&#x132;" horiz-adv-x="1373" 
d="M1224 1284l-0.000976562 -1193c0 -118 -22.5 -201.333 -67.5 -250s-112.833 -73 -203.5 -73c-61.333 0 -120 10.667 -176 32l15 101c52.667 -18.667 103.334 -28 152.001 -28c56 0 95.333 16.833 118 50.5s34 89.5 34 167.5v1093h-261v100h389zM431.999 1184v-1084h188
v-100h-510v100h194v1084h-194v100h506v-100h-184z" />
    <glyph glyph-name="ij" unicode="&#x133;" horiz-adv-x="1293" 
d="M875 -182c54.667 0 91.167 15.332 109.5 45.999s27.5 85.334 27.5 164.001v867h-224v90h352v-967c0 -108.667 -21.667 -188 -65 -238s-108.666 -75 -195.999 -75c-66 0 -122 6.66699 -168 20l16 109c43.333 -10.667 92.666 -16 147.999 -16zM983 1264
c0 28 8.66699 50.3311 26 66.998s39 25 65 25c27.333 0 49.166 -7.66699 65.499 -23s24.5 -37.666 24.5 -66.999s-8.16699 -51.666 -24.5 -66.999s-38.166 -23 -65.499 -23c-26.667 0 -48.5 7.83301 -65.5 23.5s-25.5 37.167 -25.5 64.5zM283 1264
c0 28 8.66699 50.3311 26 66.998s39 25 65 25c27.333 0 49.166 -7.66699 65.499 -23s24.5 -37.666 24.5 -66.999s-8.16699 -51.666 -24.5 -66.999s-38.166 -23 -65.499 -23c-26.667 0 -48.5 7.83301 -65.5 23.5s-25.5 37.167 -25.5 64.5zM118 894.995v90h320v-895h192v-90
h-512v90h192v805h-192z" />
    <glyph glyph-name="Jcircumflex" unicode="&#x134;" horiz-adv-x="643" 
d="M271 1702l-213 -238l-86 80c103.333 115.333 185.333 202.333 246 261h105c60.667 -58.667 142.667 -145.667 246 -261l-86 -80zM494 1284l-0.000976562 -1193c0 -118 -22.5 -201.333 -67.5 -250s-112.833 -73 -203.5 -73c-61.333 0 -120 10.667 -176 32l15 101
c52.667 -18.667 103.334 -28 152.001 -28c56 0 95.333 16.833 118 50.5s34 89.5 34 167.5v1093h-261v100h389z" />
    <glyph glyph-name="jcircumflex" unicode="&#x135;" horiz-adv-x="620" 
d="M253 1401l-213 -238l-86 80c103.333 115.333 185.333 202.333 246 261h105c60.667 -58.667 142.667 -145.667 246 -261l-86 -80zM202 -182c54.667 0 91.167 15.332 109.5 45.999s27.5 85.334 27.5 164.001v867h-224v90h352v-967c0 -108.667 -21.667 -188 -65 -238
s-108.666 -75 -195.999 -75c-66 0 -122 6.66699 -168 20l16 109c43.333 -10.667 92.666 -16 147.999 -16z" />
    <glyph glyph-name="Kcommaaccent" unicode="&#x136;" horiz-adv-x="1032" 
d="M699 -334c0 -60 -11.333 -114 -34 -162s-56.667 -98.333 -102 -151l-47 53c54 83.333 82.667 157 86 221h-95v210h192v-171zM277 0h-128v1284h128v-675l155 169l393 506h150l-425 -563l451 -721h-141l-407 652l-176 -172v-480z" />
    <glyph glyph-name="kcommaaccent" unicode="&#x137;" horiz-adv-x="937" 
d="M655 -334c0 -60 -11.333 -114 -34 -162s-56.667 -98.333 -102 -151l-47 53c54 83.333 82.667 157 86 221h-95v210h192v-171zM140 0v1358h128v-864l451 491h153l-416 -463l452 -522h-148l-179.5 203l-144.5 167l-51 59l-26 29l-91 -81v-377h-128z" />
    <glyph glyph-name="kgreenlandic" unicode="&#x138;" horiz-adv-x="953" 
d="M140 0v985h128v-504l451 504h166l-428 -481l464 -504h-161l-179.5 197l-144.5 161l-51 58l-26 29l-91 -81v-364h-128z" />
    <glyph glyph-name="Lacute" unicode="&#x139;" horiz-adv-x="825" 
d="M415 1513l245 340.999l106 -80l-97 -109c-14 -17.333 -37.667 -42.666 -71 -75.999l-90 -88l-40 -37zM277 1284v-1184h492l17 -100h-637v1284h128z" />
    <glyph glyph-name="lacute" unicode="&#x13a;" horiz-adv-x="682" 
d="M298 1570l245 340.999l106 -80l-97 -109c-14 -17.333 -37.667 -42.666 -71 -75.999l-90 -88l-40 -37zM72 1358h349v-1268h211v-90h-562v90h223v1177h-221v91z" />
    <glyph glyph-name="Lcommaaccent" unicode="&#x13b;" horiz-adv-x="825" 
d="M591 -334c0 -60 -11.333 -114 -34 -162s-56.667 -98.333 -102 -151l-47 53c54 83.333 82.667 157 86 221h-95v210h192v-171zM277 1284v-1184h492l17 -100h-637v1284h128z" />
    <glyph glyph-name="lcommaaccent" unicode="&#x13c;" horiz-adv-x="682" 
d="M475 -334c0 -60 -11.333 -114 -34 -162s-56.667 -98.333 -102 -151l-47 53c54 83.333 82.667 157 86 221h-95v210h192v-171zM72 1358h349v-1268h211v-90h-562v90h223v1177h-221v91z" />
    <glyph glyph-name="Lcaron" unicode="&#x13d;" horiz-adv-x="825" 
d="M1251 1130c0 -60 -11.333 -114 -34 -162s-56.667 -98.333 -102 -151l-47 53c54 83.333 82.667 157 86 221h-95v210h192v-171zM277 1284v-1184h492l17 -100h-637v1284h128z" />
    <glyph glyph-name="lcaron" unicode="&#x13e;" horiz-adv-x="682" 
d="M1097 1187c0 -60 -11.333 -114 -34 -162s-56.667 -98.333 -102 -151l-47 53c54 83.333 82.667 157 86 221h-95v210h192v-171zM72 1358h349v-1268h211v-90h-562v90h223v1177h-221v91z" />
    <glyph glyph-name="Ldot" unicode="&#x13f;" horiz-adv-x="825" 
d="M547 746v-192h-160v192h160zM277 1284v-1184h492l17 -100h-637v1284h128z" />
    <glyph glyph-name="ldot" unicode="&#x140;" horiz-adv-x="1134" 
d="M1057 746v-192h-160v192h160zM72 1358h349v-1268h211v-90h-562v90h223v1177h-221v91z" />
    <glyph glyph-name="Lslash" unicode="&#x141;" horiz-adv-x="825" 
d="M606 1000l52 -80l-381 -297v-523h492l17 -100h-637v523l-136 -105l-53 80l189 147v639h128v-540z" />
    <glyph glyph-name="lslash" unicode="&#x142;" horiz-adv-x="744" 
d="M134 1358h349v-548l243 190l58 -77l-301 -235v-598h211v-90h-562v90h223v499l-216 -169l-58 78l274 213v556h-221v91z" />
    <glyph glyph-name="Nacute" unicode="&#x143;" horiz-adv-x="1193" 
d="M543 1513l245 340.999l106 -80l-97 -109c-14 -17.333 -37.667 -42.666 -71 -75.999l-90 -88l-40 -37zM928 1284h116v-1284h-126l-647 1081v-1081h-122v1284h136l643 -1065v1065z" />
    <glyph glyph-name="nacute" unicode="&#x144;" horiz-adv-x="985" 
d="M446 1212l245 340.999l106 -80l-97 -109c-14 -17.333 -37.667 -42.666 -71 -75.999l-90 -88l-40 -37zM268 821.999l0.000976562 -822h-128v985h105l9 -64c65.333 30.667 120 51.5 164 62.5s91.333 16.5 142 16.5c101.333 0 176.166 -27.667 224.499 -83
s72.5 -140 72.5 -254v-663h-128v668c0 81.333 -12.833 139.5 -38.5 174.5s-71.5 52.5 -137.5 52.5c-101.333 0 -196.333 -24.333 -285 -73z" />
    <glyph glyph-name="Ncommaaccent" unicode="&#x145;" horiz-adv-x="1193" 
d="M721 -334c0 -60 -11.333 -114 -34 -162s-56.667 -98.333 -102 -151l-47 53c54 83.333 82.667 157 86 221h-95v210h192v-171zM928 1284h116v-1284h-126l-647 1081v-1081h-122v1284h136l643 -1065v1065z" />
    <glyph glyph-name="ncommaaccent" unicode="&#x146;" horiz-adv-x="985" 
d="M622 -334c0 -60 -11.333 -114 -34 -162s-56.667 -98.333 -102 -151l-47 53c54 83.333 82.667 157 86 221h-95v210h192v-171zM268 822l0.000976562 -822h-128v985h105l9 -64c65.333 30.667 120 51.5 164 62.5s91.333 16.5 142 16.5c101.333 0 176.166 -27.667 224.499 -83
s72.5 -140 72.5 -254v-663h-128v668c0 81.333 -12.833 139.5 -38.5 174.5s-71.5 52.5 -137.5 52.5c-101.333 0 -196.333 -24.333 -285 -73z" />
    <glyph glyph-name="Ncaron" unicode="&#x147;" horiz-adv-x="1193" 
d="M596 1577l192 257l88 -60c-58.667 -79.333 -134.667 -173 -228 -281c-16 -19.333 -33.333 -29 -52 -29c-18 0 -35 9.66699 -51 29c-93.333 108 -169.333 201.667 -228 281l88 60zM928 1284h116v-1284h-126l-647 1081v-1081h-122v1284h136l643 -1065v1065z" />
    <glyph glyph-name="ncaron" unicode="&#x148;" horiz-adv-x="985" 
d="M498 1276l192 257l88 -60c-58.667 -79.333 -134.667 -173 -228 -281c-16 -19.333 -33.333 -29 -52 -29c-18 0 -35 9.66699 -51 29c-93.333 108 -169.333 201.667 -228 281l88 60zM268 822l0.000976562 -822h-128v985h105l9 -64c65.333 30.667 120 51.5 164 62.5
s91.333 16.5 142 16.5c101.333 0 176.166 -27.667 224.499 -83s72.5 -140 72.5 -254v-663h-128v668c0 81.333 -12.833 139.5 -38.5 174.5s-71.5 52.5 -137.5 52.5c-101.333 0 -196.333 -24.333 -285 -73z" />
    <glyph glyph-name="napostrophe" unicode="&#x149;" horiz-adv-x="985" 
d="M334 1406c0 -60 -11.333 -114 -34 -162s-56.667 -98.333 -102 -151l-47 53c54 83.333 82.667 157 86 221h-95v210h192v-171zM268 822l0.000976562 -822h-128v985h105l9 -64c65.333 30.667 120 51.5 164 62.5s91.333 16.5 142 16.5c101.333 0 176.166 -27.667 224.499 -83
s72.5 -140 72.5 -254v-663h-128v668c0 81.333 -12.833 139.5 -38.5 174.5s-71.5 52.5 -137.5 52.5c-101.333 0 -196.333 -24.333 -285 -73z" />
    <glyph glyph-name="Eng" unicode="&#x14a;" horiz-adv-x="1193" 
d="M1044 100c0 -50.667 -5.33008 -95.333 -15.9971 -134s-26.5 -70.5 -47.5 -95.5s-44 -45.667 -69 -62s-55 -28.666 -90 -36.999s-68.5 -14 -100.5 -17s-68.333 -4.5 -109 -4.5l-2 107c37.333 0 68.166 1 92.499 3s49.166 6 74.499 12s45.333 14.833 60 26.5
s28.167 27.167 40.5 46.5s21.166 43.666 26.499 72.999s8 64 8 104l-641 959v-1081h-122v1284h136l643 -967v967h116v-1184z" />
    <glyph glyph-name="eng" unicode="&#x14b;" horiz-adv-x="978" 
d="M722 108l0.00195312 559.997c0 81.333 -12.833 139.5 -38.5 174.5s-71.5 52.5 -137.5 52.5c-101.333 0 -196.333 -24.333 -285 -73v-822h-128v985h105l9 -64c65.333 30.667 120 51.5 164 62.5s91.333 16.5 142 16.5c101.333 0 176.166 -27.667 224.499 -83
s72.5 -140 72.5 -254v-535c0 -81.333 -9.66699 -149.666 -29 -204.999s-48.333 -98.166 -87 -128.499s-82.667 -51.666 -132 -63.999s-108.333 -18.5 -177 -18.5l1 104c42.667 0 78.667 2.33301 108 7s56.666 13.167 81.999 25.5s45.333 29.333 60 51s26 49.667 34 84
s12 75.833 12 124.5z" />
    <glyph glyph-name="Omacron" unicode="&#x14c;" horiz-adv-x="1128" 
d="M324 1464v106h480v-106h-480zM564 1301c68.667 0 128.83 -9.5 180.497 -28.5s94.5 -45.833 128.5 -80.5s61.333 -79.5 82 -134.5s35.334 -115.333 44.001 -181s13 -141.834 13 -228.501c0 -87.333 -4 -163.666 -12 -228.999s-22 -125.833 -42 -181.5
s-46.833 -101 -80.5 -136s-76.5 -62.333 -128.5 -82s-113.667 -29.5 -185 -29.5s-133 9.83301 -185 29.5s-94.833 47 -128.5 82s-60.5 80.333 -80.5 136s-34 116.167 -42 181.5s-12 141.666 -12 228.999c0 86.667 4.33301 162.834 13 228.501s23.334 126 44.001 181
s48 99.833 82 134.5s76.833 61.5 128.5 80.5s111.834 28.5 180.501 28.5zM563.996 96c121.333 0 205 42.167 251 126.5s69 225.166 69 422.499c0 198 -23.167 339.167 -69.5 423.5s-129.833 126.5 -250.5 126.5s-204.167 -42.167 -250.5 -126.5s-69.5 -225.5 -69.5 -423.5
c0 -197.333 23 -338.166 69 -422.499s129.667 -126.5 251 -126.5z" />
    <glyph glyph-name="omacron" unicode="&#x14d;" 
d="M252 1163v106h480v-106h-480zM492 -10c-130 0 -226.502 43.833 -289.502 131.5s-94.5 212.167 -94.5 373.5c0 168.667 30.833 295 92.5 379s158.834 126 291.501 126s229.834 -42 291.501 -126s92.5 -210.333 92.5 -379c0 -161.333 -31.5 -285.833 -94.5 -373.5
s-159.5 -131.5 -289.5 -131.5zM491.998 895c-38.667 0 -72.6709 -6.5 -102.004 -19.5s-53.666 -30.833 -72.999 -53.5s-35.166 -51 -47.499 -85s-21 -70.667 -26 -110s-7.5 -83.333 -7.5 -132c0 -62.667 4 -117.167 12 -163.5s21.5 -87.833 40.5 -124.5
s45.5 -64.334 79.5 -83.001s75.333 -28 124 -28s90 9.33301 124 28s60.5 46.334 79.5 83.001s32.5 78.167 40.5 124.5s12 100.833 12 163.5c0 48.667 -2.5 92.667 -7.5 132s-13.667 76 -26 110s-28.166 62.333 -47.499 85s-43.666 40.5 -72.999 53.5s-63.333 19.5 -102 19.5
z" />
    <glyph glyph-name="Obreve" unicode="&#x14e;" horiz-adv-x="1128" 
d="M756 1689l77.001 -76c-88.667 -99.333 -178.334 -149 -269.001 -149c-90 0 -179.333 49.667 -268 149l77 76c55.333 -76.667 118 -115 188 -115c70.667 0 135.667 38.333 195 115zM564.001 1301c68.667 0 128.83 -9.5 180.497 -28.5s94.5 -45.833 128.5 -80.5
s61.333 -79.5 82 -134.5s35.334 -115.333 44.001 -181s13 -141.834 13 -228.501c0 -87.333 -4 -163.666 -12 -228.999s-22 -125.833 -42 -181.5s-46.833 -101 -80.5 -136s-76.5 -62.333 -128.5 -82s-113.667 -29.5 -185 -29.5s-133 9.83301 -185 29.5s-94.833 47 -128.5 82
s-60.5 80.333 -80.5 136s-34 116.167 -42 181.5s-12 141.666 -12 228.999c0 86.667 4.33301 162.834 13 228.501s23.334 126 44.001 181s48 99.833 82 134.5s76.833 61.5 128.5 80.5s111.834 28.5 180.501 28.5zM563.997 96c121.333 0 205 42.167 251 126.5
s69 225.166 69 422.499c0 198 -23.167 339.167 -69.5 423.5s-129.833 126.5 -250.5 126.5s-204.167 -42.167 -250.5 -126.5s-69.5 -225.5 -69.5 -423.5c0 -197.333 23 -338.166 69 -422.499s129.667 -126.5 251 -126.5z" />
    <glyph glyph-name="obreve" unicode="&#x14f;" 
d="M684 1388l77.001 -76c-88.667 -99.333 -178.334 -149 -269.001 -149c-90 0 -179.333 49.667 -268 149l77 76c55.333 -76.667 118 -115 188 -115c70.667 0 135.667 38.333 195 115zM492.001 -10c-130 0 -226.502 43.833 -289.502 131.5s-94.5 212.167 -94.5 373.5
c0 168.667 30.833 295 92.5 379s158.834 126 291.501 126s229.834 -42 291.501 -126s92.5 -210.333 92.5 -379c0 -161.333 -31.5 -285.833 -94.5 -373.5s-159.5 -131.5 -289.5 -131.5zM491.999 895c-38.667 0 -72.6709 -6.5 -102.004 -19.5s-53.666 -30.833 -72.999 -53.5
s-35.166 -51 -47.499 -85s-21 -70.667 -26 -110s-7.5 -83.333 -7.5 -132c0 -62.667 4 -117.167 12 -163.5s21.5 -87.833 40.5 -124.5s45.5 -64.334 79.5 -83.001s75.333 -28 124 -28s90 9.33301 124 28s60.5 46.334 79.5 83.001s32.5 78.167 40.5 124.5s12 100.833 12 163.5
c0 48.667 -2.5 92.667 -7.5 132s-13.667 76 -26 110s-28.166 62.333 -47.499 85s-43.666 40.5 -72.999 53.5s-63.333 19.5 -102 19.5z" />
    <glyph glyph-name="Ohungarumlaut" unicode="&#x150;" horiz-adv-x="1128" 
d="M658 1513l246 340.999l106 -80l-98 -109c-14 -17.333 -37.667 -42.666 -71 -75.999l-89 -88l-40 -37zM363 1513l245 340.999l106 -80l-97 -109c-14 -17.333 -37.667 -42.666 -71 -75.999l-90 -88l-40 -37zM564 1301c68.667 0 128.83 -9.5 180.497 -28.5
s94.5 -45.833 128.5 -80.5s61.333 -79.5 82 -134.5s35.334 -115.333 44.001 -181s13 -141.834 13 -228.501c0 -87.333 -4 -163.666 -12 -228.999s-22 -125.833 -42 -181.5s-46.833 -101 -80.5 -136s-76.5 -62.333 -128.5 -82s-113.667 -29.5 -185 -29.5
s-133 9.83301 -185 29.5s-94.833 47 -128.5 82s-60.5 80.333 -80.5 136s-34 116.167 -42 181.5s-12 141.666 -12 228.999c0 86.667 4.33301 162.834 13 228.501s23.334 126 44.001 181s48 99.833 82 134.5s76.833 61.5 128.5 80.5s111.834 28.5 180.501 28.5z
M563.996 95.998c121.333 0 205 42.167 251 126.5s69 225.166 69 422.499c0 198 -23.167 339.167 -69.5 423.5s-129.833 126.5 -250.5 126.5s-204.167 -42.167 -250.5 -126.5s-69.5 -225.5 -69.5 -423.5c0 -197.333 23 -338.166 69 -422.499s129.667 -126.5 251 -126.5z" />
    <glyph glyph-name="ohungarumlaut" unicode="&#x151;" 
d="M586 1212l246 340.999l106 -80l-98 -109c-14 -17.333 -37.667 -42.666 -71 -75.999l-89 -88l-40 -37zM291 1212l245 340.999l106 -80l-97 -109c-14 -17.333 -37.667 -42.666 -71 -75.999l-90 -88l-40 -37zM492 -10.002c-130 0 -226.502 43.833 -289.502 131.5
s-94.5 212.167 -94.5 373.5c0 168.667 30.833 295 92.5 379s158.834 126 291.501 126s229.834 -42 291.501 -126s92.5 -210.333 92.5 -379c0 -161.333 -31.5 -285.833 -94.5 -373.5s-159.5 -131.5 -289.5 -131.5zM491.998 894.998c-38.667 0 -72.6709 -6.5 -102.004 -19.5
s-53.666 -30.833 -72.999 -53.5s-35.166 -51 -47.499 -85s-21 -70.667 -26 -110s-7.5 -83.333 -7.5 -132c0 -62.667 4 -117.167 12 -163.5s21.5 -87.833 40.5 -124.5s45.5 -64.334 79.5 -83.001s75.333 -28 124 -28s90 9.33301 124 28s60.5 46.334 79.5 83.001
s32.5 78.167 40.5 124.5s12 100.833 12 163.5c0 48.667 -2.5 92.667 -7.5 132s-13.667 76 -26 110s-28.166 62.333 -47.499 85s-43.666 40.5 -72.999 53.5s-63.333 19.5 -102 19.5z" />
    <glyph glyph-name="OE" unicode="&#x152;" horiz-adv-x="1656" 
d="M1012 626l-0.000976562 -522.002h545l16 -104h-1009c-71.333 0 -133 9.33301 -185 28s-94.833 45.167 -128.5 79.5s-60.5 78.833 -80.5 133.5s-34 114.334 -42 179.001s-12 140.667 -12 228c0 86.667 4.33301 162.334 13 227.001s23.334 123.5 44.001 176.5
s48.167 96.167 82.5 129.5s77 58.833 128 76.5s111.167 26.5 180.5 26.5h1005l-22 -100h-535v-462h501v-96h-501zM884.999 1185l-321 -1c-121.333 0 -205 -40.667 -251 -122s-69 -220.333 -69 -417c0 -196 22.833 -335.167 68.5 -417.5s129.5 -123.5 251.5 -123.5l320 1z
" />
    <glyph glyph-name="oe" unicode="&#x153;" horiz-adv-x="1604" 
d="M1148 895c-84 0 -148.333 -29.168 -193 -87.501s-71 -141.166 -79 -248.499h507v50c0 87.333 -21.167 156.833 -63.5 208.5s-99.5 77.5 -171.5 77.5zM492 894.999c-38.667 0 -72.6709 -6.5 -102.004 -19.5s-53.666 -30.833 -72.999 -53.5s-35.166 -51 -47.499 -85
s-21 -70.667 -26 -110s-7.5 -83.333 -7.5 -132c0 -62.667 4 -117.167 12 -163.5s21.5 -87.833 40.5 -124.5s45.5 -64.334 79.5 -83.001s75.333 -28 124 -28s90 9.33301 124 28s60.5 46.334 79.5 83.001s32.5 78.167 40.5 124.5s12 100.833 12 163.5
c0 48.667 -2.5 92.667 -7.5 132s-13.667 76 -26 110s-28.166 62.333 -47.499 85s-43.666 40.5 -72.999 53.5s-63.333 19.5 -102 19.5zM1165 95.999c102.667 0 195.999 26.667 279.999 80l39 -101c-45.333 -28 -96 -49.167 -152 -63.5s-109.333 -21.5 -160 -21.5
c-80 0 -150.5 17.333 -211.5 52s-109.5 84.667 -145.5 150c-68 -134.667 -175.667 -202 -323 -202c-130 0 -226.5 43.833 -289.5 131.5s-94.5 212.167 -94.5 373.5c0 168.667 30.833 295 92.5 379s158.834 126 291.501 126c154 0 262.667 -64.667 326 -194
c35.333 62.667 81.333 110.667 138 144s120.334 50 191.001 50c110 0 196.667 -36 260 -108s95 -168 95 -288c0 -27.333 -2.66699 -72.333 -8 -135h-618c0.666992 -59.333 6.66699 -111.5 18 -156.5s25.666 -81 42.999 -108s38.833 -48.833 64.5 -65.5s51.5 -28 77.5 -34
s54.667 -9 86 -9z" />
    <glyph glyph-name="Racute" unicode="&#x154;" horiz-adv-x="1053" 
d="M509 1513l245 340.999l106 -80l-97 -109c-14 -17.333 -37.667 -42.666 -71 -75.999l-90 -88l-40 -37zM789 919.999c0 34.667 -2.83301 65.3301 -8.5 91.9971s-13.334 49.334 -23.001 68.001s-23.667 34.334 -42 47.001s-36.666 22.834 -54.999 30.501
s-42.833 13.5 -73.5 17.5s-59.667 6.5 -87 7.5s-62 1.5 -104 1.5h-119v-522h87c58 0 106.333 1.16699 145 3.5s75 7 109 14s61 16.333 81 28s37.167 27.167 51.5 46.5s24.333 42.333 30 69s8.5 59 8.5 97zM975 40.9951l-104.997 -65.999c-138 228 -244.667 427.333 -320 598
c-48 -4 -102.333 -6 -163 -6h-110v-567h-128v1284h253c61.333 0 113.666 -1.66699 156.999 -5s85.666 -9.5 126.999 -18.5s75.333 -22 102 -39s50.167 -38.667 70.5 -65s35.166 -59 44.499 -98s14 -84.5 14 -136.5c0 -98 -20.167 -172.833 -60.5 -224.5
s-102.833 -87.167 -187.5 -106.5c27.333 -62 66.5 -138.833 117.5 -230.5s95.167 -167.834 132.5 -228.501z" />
    <glyph glyph-name="racute" unicode="&#x155;" horiz-adv-x="651" 
d="M296 1212l245 340.999l106 -80l-97 -109c-14 -17.333 -37.667 -42.666 -71 -75.999l-90 -88l-40 -37zM273 898.999c39.333 26.667 89.168 49.667 149.501 69s115.833 30 166.5 32v-107c-58 0 -116.833 -8.83301 -176.5 -26.5s-105.834 -38.5 -138.501 -62.5v-804h-128
v985h122z" />
    <glyph glyph-name="Rcommaaccent" unicode="&#x156;" horiz-adv-x="1053" 
d="M686 -359c0 -60 -11.333 -114 -34 -162s-56.667 -98.333 -102 -151l-47 53c54 83.333 82.667 157 86 221h-95v210h192v-171zM789 920c0 34.667 -2.83301 65.3301 -8.5 91.9971s-13.334 49.334 -23.001 68.001s-23.667 34.334 -42 47.001s-36.666 22.834 -54.999 30.501
s-42.833 13.5 -73.5 17.5s-59.667 6.5 -87 7.5s-62 1.5 -104 1.5h-119v-522h87c58 0 106.333 1.16699 145 3.5s75 7 109 14s61 16.333 81 28s37.167 27.167 51.5 46.5s24.333 42.333 30 69s8.5 59 8.5 97zM975 40.9961l-104.997 -65.999c-138 228 -244.667 427.333 -320 598
c-48 -4 -102.333 -6 -163 -6h-110v-567h-128v1284h253c61.333 0 113.666 -1.66699 156.999 -5s85.666 -9.5 126.999 -18.5s75.333 -22 102 -39s50.167 -38.667 70.5 -65s35.166 -59 44.499 -98s14 -84.5 14 -136.5c0 -98 -20.167 -172.833 -60.5 -224.5
s-102.833 -87.167 -187.5 -106.5c27.333 -62 66.5 -138.833 117.5 -230.5s95.167 -167.834 132.5 -228.501z" />
    <glyph glyph-name="rcommaaccent" unicode="&#x157;" horiz-adv-x="651" 
d="M473 -334c0 -60 -11.333 -114 -34 -162s-56.667 -98.333 -102 -151l-47 53c54 83.333 82.667 157 86 221h-95v210h192v-171zM273 899c39.333 26.667 89.168 49.667 149.501 69s115.833 30 166.5 32v-107c-58 0 -116.833 -8.83301 -176.5 -26.5
s-105.834 -38.5 -138.501 -62.5v-804h-128v985h122z" />
    <glyph glyph-name="Rcaron" unicode="&#x158;" horiz-adv-x="1053" 
d="M562 1577l192 257l88 -60c-58.667 -79.333 -134.667 -173 -228 -281c-16 -19.333 -33.333 -29 -52 -29c-18 0 -35 9.66699 -51 29c-93.333 108 -169.333 201.667 -228 281l88 60zM789 920c0 34.667 -2.83301 65.3301 -8.5 91.9971s-13.334 49.334 -23.001 68.001
s-23.667 34.334 -42 47.001s-36.666 22.834 -54.999 30.501s-42.833 13.5 -73.5 17.5s-59.667 6.5 -87 7.5s-62 1.5 -104 1.5h-119v-522h87c58 0 106.333 1.16699 145 3.5s75 7 109 14s61 16.333 81 28s37.167 27.167 51.5 46.5s24.333 42.333 30 69s8.5 59 8.5 97z
M975 40.9961l-104.997 -65.999c-138 228 -244.667 427.333 -320 598c-48 -4 -102.333 -6 -163 -6h-110v-567h-128v1284h253c61.333 0 113.666 -1.66699 156.999 -5s85.666 -9.5 126.999 -18.5s75.333 -22 102 -39s50.167 -38.667 70.5 -65s35.166 -59 44.499 -98
s14 -84.5 14 -136.5c0 -98 -20.167 -172.833 -60.5 -224.5s-102.833 -87.167 -187.5 -106.5c27.333 -62 66.5 -138.833 117.5 -230.5s95.167 -167.834 132.5 -228.501z" />
    <glyph glyph-name="rcaron" unicode="&#x159;" horiz-adv-x="651" 
d="M348 1276l192 257l88 -60c-58.667 -79.333 -134.667 -173 -228 -281c-16 -19.333 -33.333 -29 -52 -29c-18 0 -35 9.66699 -51 29c-93.333 108 -169.333 201.667 -228 281l88 60zM273 899c39.333 26.667 89.168 49.667 149.501 69s115.833 30 166.5 32v-107
c-58 0 -116.833 -8.83301 -176.5 -26.5s-105.834 -38.5 -138.501 -62.5v-804h-128v985h122z" />
    <glyph glyph-name="Sacute" unicode="&#x15a;" horiz-adv-x="947" 
d="M436 1513l245 340.999l106 -80l-97 -109c-14 -17.333 -37.667 -42.666 -71 -75.999l-90 -88l-40 -37zM819 1137c-102.667 38.667 -204.338 58 -305.005 58c-187.333 0 -281 -74.333 -281 -223c0 -54.667 12.333 -96.834 37 -126.501s73.667 -57.834 147 -84.501l114 -41
l33 -12c29.333 -10 51.5 -17.833 66.5 -23.5s35.333 -14.667 61 -27s45.5 -23.833 59.5 -34.5s30 -25.167 48 -43.5s31.5 -37.666 40.5 -57.999s16.833 -45 23.5 -74s10 -60.5 10 -94.5c0 -116 -35.333 -205.5 -106 -268.5s-166 -94.5 -286 -94.5
c-154 0 -279.333 26 -376 78l28 105c36 -15.333 65.5 -27.333 88.5 -36s58 -17.667 105 -27s95.167 -14 144.5 -14c85.333 0 152.333 21.5 201 64.5s73 107.833 73 194.5c0 30.667 -3.66699 57.667 -11 81s-16.666 42.666 -27.999 57.999s-28.666 29.833 -51.999 43.5
s-45.666 24.834 -66.999 33.501s-50.666 19.334 -87.999 32.001l-123 41c-89.333 30 -156.833 70 -202.5 120s-68.5 118.333 -68.5 205c0 59.333 10.167 110.833 30.5 154.5s48.833 78.167 85.5 103.5s77.834 44 123.501 56s96.5 18 152.5 18c130 0 245 -20.667 345 -62z
" />
    <glyph glyph-name="sacute" unicode="&#x15b;" horiz-adv-x="838" 
d="M375 1212l245 340.999l106 -80l-97 -109c-14 -17.333 -37.667 -42.666 -71 -75.999l-90 -88l-40 -37zM150 166.999c33.333 -18.667 76.5029 -35.1709 129.503 -49.5039s103.833 -21.5 152.5 -21.5c61.333 0 110.833 13.167 148.5 39.5s56.5 69.5 56.5 129.5
c0 46.667 -10.667 81.5 -32 104.5s-54.333 41.5 -99 55.5l-150 47c-40 12.667 -72.833 25.167 -98.5 37.5s-49.5 28.333 -71.5 48s-38 44 -48 73s-15 63.833 -15 104.5c0 89.333 30.667 155.833 92 199.5s138.666 65.5 231.999 65.5s182 -19.333 266 -58l-38 -96
c-68.667 32.667 -141.667 49 -219 49c-62 0 -112.667 -13.167 -152 -39.5s-59 -68.166 -59 -125.499c0 -42.667 10.833 -72.667 32.5 -90s60.5 -35 116.5 -53l147 -47c54 -17.333 96.167 -36.166 126.5 -56.499s53.666 -47.666 69.999 -81.999s24.5 -77.833 24.5 -130.5
c0 -50 -8.66699 -93.667 -26 -131s-41.5 -66.666 -72.5 -87.999s-65.167 -37 -102.5 -47s-78.333 -15 -123 -15c-110.667 0 -220.334 26.333 -329.001 79z" />
    <glyph glyph-name="Scircumflex" unicode="&#x15c;" horiz-adv-x="947" 
d="M489 1702l-213 -238l-86 80c103.333 115.333 185.333 202.333 246 261h105c60.667 -58.667 142.667 -145.667 246 -261l-86 -80zM819 1137c-102.667 38.667 -204.338 58 -305.005 58c-187.333 0 -281 -74.333 -281 -223c0 -54.667 12.333 -96.834 37 -126.501
s73.667 -57.834 147 -84.501l114 -41l33 -12c29.333 -10 51.5 -17.833 66.5 -23.5s35.333 -14.667 61 -27s45.5 -23.833 59.5 -34.5s30 -25.167 48 -43.5s31.5 -37.666 40.5 -57.999s16.833 -45 23.5 -74s10 -60.5 10 -94.5c0 -116 -35.333 -205.5 -106 -268.5
s-166 -94.5 -286 -94.5c-154 0 -279.333 26 -376 78l28 105c36 -15.333 65.5 -27.333 88.5 -36s58 -17.667 105 -27s95.167 -14 144.5 -14c85.333 0 152.333 21.5 201 64.5s73 107.833 73 194.5c0 30.667 -3.66699 57.667 -11 81s-16.666 42.666 -27.999 57.999
s-28.666 29.833 -51.999 43.5s-45.666 24.834 -66.999 33.501s-50.666 19.334 -87.999 32.001l-123 41c-89.333 30 -156.833 70 -202.5 120s-68.5 118.333 -68.5 205c0 59.333 10.167 110.833 30.5 154.5s48.833 78.167 85.5 103.5s77.834 44 123.501 56s96.5 18 152.5 18
c130 0 245 -20.667 345 -62z" />
    <glyph glyph-name="scircumflex" unicode="&#x15d;" horiz-adv-x="838" 
d="M428 1401l-213 -238l-86 80c103.333 115.333 185.333 202.333 246 261h105c60.667 -58.667 142.667 -145.667 246 -261l-86 -80zM150 167c33.333 -18.667 76.5029 -35.1709 129.503 -49.5039s103.833 -21.5 152.5 -21.5c61.333 0 110.833 13.167 148.5 39.5
s56.5 69.5 56.5 129.5c0 46.667 -10.667 81.5 -32 104.5s-54.333 41.5 -99 55.5l-150 47c-40 12.667 -72.833 25.167 -98.5 37.5s-49.5 28.333 -71.5 48s-38 44 -48 73s-15 63.833 -15 104.5c0 89.333 30.667 155.833 92 199.5s138.666 65.5 231.999 65.5
s182 -19.333 266 -58l-38 -96c-68.667 32.667 -141.667 49 -219 49c-62 0 -112.667 -13.167 -152 -39.5s-59 -68.166 -59 -125.499c0 -42.667 10.833 -72.667 32.5 -90s60.5 -35 116.5 -53l147 -47c54 -17.333 96.167 -36.166 126.5 -56.499s53.666 -47.666 69.999 -81.999
s24.5 -77.833 24.5 -130.5c0 -50 -8.66699 -93.667 -26 -131s-41.5 -66.666 -72.5 -87.999s-65.167 -37 -102.5 -47s-78.333 -15 -123 -15c-110.667 0 -220.334 26.333 -329.001 79z" />
    <glyph glyph-name="Scedilla" unicode="&#x15e;" horiz-adv-x="947" 
d="M531 -64c58 -0.666992 103.499 -13.168 136.499 -37.501s49.5 -59.166 49.5 -104.499c0 -59.333 -17.167 -104.5 -51.5 -135.5s-78.5 -46.5 -132.5 -46.5c-44 0 -88 10 -132 30l15 80c35.333 -16 67.666 -24 96.999 -24c28 0 50.333 7.5 67 22.5s25 37.833 25 68.5
c0 10 -0.833008 19 -2.5 27s-4.83398 15 -9.50098 21s-9 11.167 -13 15.5s-10.167 8.16602 -18.5 11.499l-20.5 8c-5.33301 2 -13.666 3.83301 -24.999 5.5s-19.666 2.83398 -24.999 3.50098s-14.666 1.66699 -27.999 3s-22.333 2.33301 -27 3l1 116h104zM818.999 1137
c-102.667 38.667 -204.338 58 -305.005 58c-187.333 0 -281 -74.333 -281 -223c0 -54.667 12.333 -96.834 37 -126.501s73.667 -57.834 147 -84.501l114 -41l33 -12c29.333 -10 51.5 -17.833 66.5 -23.5s35.333 -14.667 61 -27s45.5 -23.833 59.5 -34.5s30 -25.167 48 -43.5
s31.5 -37.666 40.5 -57.999s16.833 -45 23.5 -74s10 -60.5 10 -94.5c0 -116 -35.333 -205.5 -106 -268.5s-166 -94.5 -286 -94.5c-154 0 -279.333 26 -376 78l28 105c36 -15.333 65.5 -27.333 88.5 -36s58 -17.667 105 -27s95.167 -14 144.5 -14
c85.333 0 152.333 21.5 201 64.5s73 107.833 73 194.5c0 30.667 -3.66699 57.667 -11 81s-16.666 42.666 -27.999 57.999s-28.666 29.833 -51.999 43.5s-45.666 24.834 -66.999 33.501s-50.666 19.334 -87.999 32.001l-123 41c-89.333 30 -156.833 70 -202.5 120
s-68.5 118.333 -68.5 205c0 59.333 10.167 110.833 30.5 154.5s48.833 78.167 85.5 103.5s77.834 44 123.501 56s96.5 18 152.5 18c130 0 245 -20.667 345 -62z" />
    <glyph glyph-name="scedilla" unicode="&#x15f;" horiz-adv-x="838" 
d="M469 -64c58 -0.666992 103.499 -13.168 136.499 -37.501s49.5 -59.166 49.5 -104.499c0 -59.333 -17.167 -104.5 -51.5 -135.5s-78.5 -46.5 -132.5 -46.5c-44 0 -88 10 -132 30l15 80c35.333 -16 67.666 -24 96.999 -24c28 0 50.333 7.5 67 22.5s25 37.833 25 68.5
c0 10 -0.833008 19 -2.5 27s-4.83398 15 -9.50098 21s-9 11.167 -13 15.5s-10.167 8.16602 -18.5 11.499l-20.5 8c-5.33301 2 -13.666 3.83301 -24.999 5.5s-19.666 2.83398 -24.999 3.50098s-14.666 1.66699 -27.999 3s-22.333 2.33301 -27 3l1 116h104zM149.999 166.999
c33.333 -18.667 76.5029 -35.1709 129.503 -49.5039s103.833 -21.5 152.5 -21.5c61.333 0 110.833 13.167 148.5 39.5s56.5 69.5 56.5 129.5c0 46.667 -10.667 81.5 -32 104.5s-54.333 41.5 -99 55.5l-150 47c-40 12.667 -72.833 25.167 -98.5 37.5s-49.5 28.333 -71.5 48
s-38 44 -48 73s-15 63.833 -15 104.5c0 89.333 30.667 155.833 92 199.5s138.666 65.5 231.999 65.5s182 -19.333 266 -58l-38 -96c-68.667 32.667 -141.667 49 -219 49c-62 0 -112.667 -13.167 -152 -39.5s-59 -68.166 -59 -125.499c0 -42.667 10.833 -72.667 32.5 -90
s60.5 -35 116.5 -53l147 -47c54 -17.333 96.167 -36.166 126.5 -56.499s53.666 -47.666 69.999 -81.999s24.5 -77.833 24.5 -130.5c0 -50 -8.66699 -93.667 -26 -131s-41.5 -66.666 -72.5 -87.999s-65.167 -37 -102.5 -47s-78.333 -15 -123 -15
c-110.667 0 -220.334 26.333 -329.001 79z" />
    <glyph glyph-name="Scaron" unicode="&#x160;" horiz-adv-x="947" 
d="M488 1577l192 257l88 -60c-58.667 -79.333 -134.667 -173 -228 -281c-16 -19.333 -33.333 -29 -52 -29c-18 0 -35 9.66699 -51 29c-93.333 108 -169.333 201.667 -228 281l88 60zM819 1137c-102.667 38.667 -204.338 58 -305.005 58c-187.333 0 -281 -74.333 -281 -223
c0 -54.667 12.333 -96.834 37 -126.501s73.667 -57.834 147 -84.501l114 -41l33 -12c29.333 -10 51.5 -17.833 66.5 -23.5s35.333 -14.667 61 -27s45.5 -23.833 59.5 -34.5s30 -25.167 48 -43.5s31.5 -37.666 40.5 -57.999s16.833 -45 23.5 -74s10 -60.5 10 -94.5
c0 -116 -35.333 -205.5 -106 -268.5s-166 -94.5 -286 -94.5c-154 0 -279.333 26 -376 78l28 105c36 -15.333 65.5 -27.333 88.5 -36s58 -17.667 105 -27s95.167 -14 144.5 -14c85.333 0 152.333 21.5 201 64.5s73 107.833 73 194.5c0 30.667 -3.66699 57.667 -11 81
s-16.666 42.666 -27.999 57.999s-28.666 29.833 -51.999 43.5s-45.666 24.834 -66.999 33.501s-50.666 19.334 -87.999 32.001l-123 41c-89.333 30 -156.833 70 -202.5 120s-68.5 118.333 -68.5 205c0 59.333 10.167 110.833 30.5 154.5s48.833 78.167 85.5 103.5
s77.834 44 123.501 56s96.5 18 152.5 18c130 0 245 -20.667 345 -62z" />
    <glyph glyph-name="scaron" unicode="&#x161;" horiz-adv-x="838" 
d="M427 1276l192 257l88 -60c-58.667 -79.333 -134.667 -173 -228 -281c-16 -19.333 -33.333 -29 -52 -29c-18 0 -35 9.66699 -51 29c-93.333 108 -169.333 201.667 -228 281l88 60zM150 167c33.333 -18.667 76.5029 -35.1709 129.503 -49.5039s103.833 -21.5 152.5 -21.5
c61.333 0 110.833 13.167 148.5 39.5s56.5 69.5 56.5 129.5c0 46.667 -10.667 81.5 -32 104.5s-54.333 41.5 -99 55.5l-150 47c-40 12.667 -72.833 25.167 -98.5 37.5s-49.5 28.333 -71.5 48s-38 44 -48 73s-15 63.833 -15 104.5c0 89.333 30.667 155.833 92 199.5
s138.666 65.5 231.999 65.5s182 -19.333 266 -58l-38 -96c-68.667 32.667 -141.667 49 -219 49c-62 0 -112.667 -13.167 -152 -39.5s-59 -68.166 -59 -125.499c0 -42.667 10.833 -72.667 32.5 -90s60.5 -35 116.5 -53l147 -47c54 -17.333 96.167 -36.166 126.5 -56.499
s53.666 -47.666 69.999 -81.999s24.5 -77.833 24.5 -130.5c0 -50 -8.66699 -93.667 -26 -131s-41.5 -66.666 -72.5 -87.999s-65.167 -37 -102.5 -47s-78.333 -15 -123 -15c-110.667 0 -220.334 26.333 -329.001 79z" />
    <glyph glyph-name="Tcaron" unicode="&#x164;" horiz-adv-x="891" 
d="M445 1577l192 257l88 -60c-58.667 -79.333 -134.667 -173 -228 -281c-16 -19.333 -33.333 -29 -52 -29c-18 0 -35 9.66699 -51 29c-93.333 108 -169.333 201.667 -228 281l88 60zM35 1184v100h821v-100h-349v-1184h-128v1184h-344z" />
    <glyph glyph-name="tcaron" unicode="&#x165;" horiz-adv-x="742" 
d="M985 1096c0 -60 -11.333 -114 -34 -162s-56.667 -98.333 -102 -151l-47 53c54 83.333 82.667 157 86 221h-95v210h192v-171zM472 -10c-53.333 1.33301 -97.1689 10.001 -131.502 26.001s-61.166 41.167 -80.499 75.5s-32.666 74.666 -39.999 120.999
s-11 104.833 -11 175.5v507h-153v90h157l25 282h99v-282h308v-90h-308v-509c0 -64 3.5 -116 10.5 -156s18.667 -69.5 35 -88.5s33.5 -31.333 51.5 -37s42 -8.5 72 -8.5c68.667 0 118.667 2.33301 150 7l5 -103c-53.333 -6.66699 -116.333 -10 -189 -10z" />
    <glyph glyph-name="Tbar" unicode="&#x166;" horiz-adv-x="891" 
d="M35 1184v100h821v-100h-349v-472h209v-103h-209v-609h-128v609h-213v103h213v472h-344z" />
    <glyph glyph-name="tbar" unicode="&#x167;" horiz-adv-x="742" 
d="M472 -10c-53.333 1.33301 -97.1689 10.001 -131.502 26.001s-61.166 41.167 -80.499 75.5s-32.666 74.666 -39.999 120.999s-11 104.833 -11 175.5v163h-137v93h137v251h-153v90h157l25 282h99v-282h308v-90h-308v-251h223v-93h-223v-165c0 -64 3.5 -116 10.5 -156
s18.667 -69.5 35 -88.5s33.5 -31.333 51.5 -37s42 -8.5 72 -8.5c68.667 0 118.667 2.33301 150 7l5 -103c-53.333 -6.66699 -116.333 -10 -189 -10z" />
    <glyph glyph-name="Utilde" unicode="&#x168;" horiz-adv-x="1080" 
d="M859 1623c-26 -56 -51.833 -96.001 -77.5 -120.001s-56.167 -36 -91.5 -36c-40.667 0 -100.667 18 -180 54c-55.333 26 -92.333 39 -111 39c-17.333 0 -33 -7.16699 -47 -21.5s-30.333 -39.166 -49 -74.499l-81 46h3c29.333 61.333 55.833 104.333 79.5 129
s51.5 37 83.5 37c32.667 0 95 -19.667 187 -59c62 -24 99.667 -36 113 -36c16 0 30.333 6.16699 43 18.5s28.667 34.833 48 67.5zM540 95.999c38.667 0 72.6709 3.66699 102.004 11s54.166 16.666 74.499 27.999s37.5 27.833 51.5 49.5s24.833 43 32.5 64
s13.667 48.833 18 83.5s7 66.5 8 95.5s1.5 66.5 1.5 112.5v744h128v-649c0 -57.333 -0.666992 -106.166 -2 -146.499s-4.16602 -83 -8.49902 -128s-10.833 -82.667 -19.5 -113s-19.834 -60.833 -33.501 -91.5s-30.834 -55.667 -51.501 -75s-45 -36.833 -73 -52.5
s-61 -27 -99 -34s-81 -10.5 -129 -10.5s-91 3.5 -129 10.5s-71 18.333 -99 34s-52.333 33.167 -73 52.5s-37.834 44.333 -51.501 75s-24.834 61.167 -33.501 91.5s-15.167 68 -19.5 113s-7.16602 87.667 -8.49902 128s-2 89.166 -2 146.499v649h128v-744
c0 -46 0.5 -83.5 1.5 -112.5s3.66699 -60.833 8 -95.5s10.333 -62.5 18 -83.5s18.5 -42.333 32.5 -64s31.167 -38.167 51.5 -49.5s45.166 -20.666 74.499 -27.999s63.333 -11 102 -11z" />
    <glyph glyph-name="utilde" unicode="&#x169;" horiz-adv-x="986" 
d="M805 1322c-26 -56 -51.833 -96.001 -77.5 -120.001s-56.167 -36 -91.5 -36c-40.667 0 -100.667 18 -180 54c-55.333 26 -92.333 39 -111 39c-17.333 0 -33 -7.16699 -47 -21.5s-30.333 -39.166 -49 -74.499l-81 46h3c29.333 61.333 55.833 104.333 79.5 129
s51.5 37 83.5 37c32.667 0 95 -19.667 187 -59c62 -24 99.667 -36 113 -36c16 0 30.333 6.16699 43 18.5s28.667 34.833 48 67.5zM717 162.999l-0.00195312 822h128v-985h-105l-9 64c-63.333 -30 -117.166 -49.833 -161.499 -59.5s-93.5 -14.5 -147.5 -14.5
c-101.333 0 -175.666 26.667 -222.999 80s-71 137 -71 251v664h128v-669c0 -80 13.167 -136.667 39.5 -170s72.833 -50 139.5 -50c33.333 0 60.5 0.833008 81.5 2.5s50.333 7.66699 88 18s75.167 25.833 112.5 46.5z" />
    <glyph glyph-name="Umacron" unicode="&#x16a;" horiz-adv-x="1080" 
d="M300 1464v106h480v-106h-480zM540 96c38.667 0 72.6709 3.66699 102.004 11s54.166 16.666 74.499 27.999s37.5 27.833 51.5 49.5s24.833 43 32.5 64s13.667 48.833 18 83.5s7 66.5 8 95.5s1.5 66.5 1.5 112.5v744h128v-649c0 -57.333 -0.666992 -106.166 -2 -146.499
s-4.16602 -83 -8.49902 -128s-10.833 -82.667 -19.5 -113s-19.834 -60.833 -33.501 -91.5s-30.834 -55.667 -51.501 -75s-45 -36.833 -73 -52.5s-61 -27 -99 -34s-81 -10.5 -129 -10.5s-91 3.5 -129 10.5s-71 18.333 -99 34s-52.333 33.167 -73 52.5
s-37.834 44.333 -51.501 75s-24.834 61.167 -33.501 91.5s-15.167 68 -19.5 113s-7.16602 87.667 -8.49902 128s-2 89.166 -2 146.499v649h128v-744c0 -46 0.5 -83.5 1.5 -112.5s3.66699 -60.833 8 -95.5s10.333 -62.5 18 -83.5s18.5 -42.333 32.5 -64
s31.167 -38.167 51.5 -49.5s45.166 -20.666 74.499 -27.999s63.333 -11 102 -11z" />
    <glyph glyph-name="umacron" unicode="&#x16b;" horiz-adv-x="986" 
d="M246 1163v106h480v-106h-480zM717 163l-0.00195312 822h128v-985h-105l-9 64c-63.333 -30 -117.166 -49.833 -161.499 -59.5s-93.5 -14.5 -147.5 -14.5c-101.333 0 -175.666 26.667 -222.999 80s-71 137 -71 251v664h128v-669c0 -80 13.167 -136.667 39.5 -170
s72.833 -50 139.5 -50c33.333 0 60.5 0.833008 81.5 2.5s50.333 7.66699 88 18s75.167 25.833 112.5 46.5z" />
    <glyph glyph-name="Ubreve" unicode="&#x16c;" horiz-adv-x="1080" 
d="M732 1689l77.001 -76c-88.667 -99.333 -178.334 -149 -269.001 -149c-90 0 -179.333 49.667 -268 149l77 76c55.333 -76.667 118 -115 188 -115c70.667 0 135.667 38.333 195 115zM540.001 96c38.667 0 72.6709 3.66699 102.004 11s54.166 16.666 74.499 27.999
s37.5 27.833 51.5 49.5s24.833 43 32.5 64s13.667 48.833 18 83.5s7 66.5 8 95.5s1.5 66.5 1.5 112.5v744h128v-649c0 -57.333 -0.666992 -106.166 -2 -146.499s-4.16602 -83 -8.49902 -128s-10.833 -82.667 -19.5 -113s-19.834 -60.833 -33.501 -91.5
s-30.834 -55.667 -51.501 -75s-45 -36.833 -73 -52.5s-61 -27 -99 -34s-81 -10.5 -129 -10.5s-91 3.5 -129 10.5s-71 18.333 -99 34s-52.333 33.167 -73 52.5s-37.834 44.333 -51.501 75s-24.834 61.167 -33.501 91.5s-15.167 68 -19.5 113s-7.16602 87.667 -8.49902 128
s-2 89.166 -2 146.499v649h128v-744c0 -46 0.5 -83.5 1.5 -112.5s3.66699 -60.833 8 -95.5s10.333 -62.5 18 -83.5s18.5 -42.333 32.5 -64s31.167 -38.167 51.5 -49.5s45.166 -20.666 74.499 -27.999s63.333 -11 102 -11z" />
    <glyph glyph-name="ubreve" unicode="&#x16d;" horiz-adv-x="986" 
d="M678 1388l77.001 -76c-88.667 -99.333 -178.334 -149 -269.001 -149c-90 0 -179.333 49.667 -268 149l77 76c55.333 -76.667 118 -115 188 -115c70.667 0 135.667 38.333 195 115zM717.001 163l-0.00195312 822h128v-985h-105l-9 64
c-63.333 -30 -117.166 -49.833 -161.499 -59.5s-93.5 -14.5 -147.5 -14.5c-101.333 0 -175.666 26.667 -222.999 80s-71 137 -71 251v664h128v-669c0 -80 13.167 -136.667 39.5 -170s72.833 -50 139.5 -50c33.333 0 60.5 0.833008 81.5 2.5s50.333 7.66699 88 18
s75.167 25.833 112.5 46.5z" />
    <glyph glyph-name="Uring" unicode="&#x16e;" horiz-adv-x="1080" 
d="M677 1715c0 48.667 -12.333 87.501 -37 116.501s-58.667 43.5 -102 43.5c-42 0 -74.833 -14.167 -98.5 -42.5s-35.5 -66.833 -35.5 -115.5s11.833 -87.334 35.5 -116.001s56.5 -43 98.5 -43s75.667 14.5 101 43.5s38 66.833 38 113.5zM541 1464
c-70.667 0 -127.999 23.168 -171.999 69.501s-66 107.166 -66 182.499c0 76.667 22.5 137.834 67.5 183.501s102.5 68.5 172.5 68.5c69.333 0 125.666 -23.333 168.999 -70s65 -107.334 65 -182.001c0 -75.333 -22 -136 -66 -182s-100.333 -69 -169 -69zM540.001 96.002
c38.667 0 72.6709 3.66699 102.004 11s54.166 16.666 74.499 27.999s37.5 27.833 51.5 49.5s24.833 43 32.5 64s13.667 48.833 18 83.5s7 66.5 8 95.5s1.5 66.5 1.5 112.5v744h128v-649c0 -57.333 -0.666992 -106.166 -2 -146.499s-4.16602 -83 -8.49902 -128
s-10.833 -82.667 -19.5 -113s-19.834 -60.833 -33.501 -91.5s-30.834 -55.667 -51.501 -75s-45 -36.833 -73 -52.5s-61 -27 -99 -34s-81 -10.5 -129 -10.5s-91 3.5 -129 10.5s-71 18.333 -99 34s-52.333 33.167 -73 52.5s-37.834 44.333 -51.501 75
s-24.834 61.167 -33.501 91.5s-15.167 68 -19.5 113s-7.16602 87.667 -8.49902 128s-2 89.166 -2 146.499v649h128v-744c0 -46 0.5 -83.5 1.5 -112.5s3.66699 -60.833 8 -95.5s10.333 -62.5 18 -83.5s18.5 -42.333 32.5 -64s31.167 -38.167 51.5 -49.5
s45.166 -20.666 74.499 -27.999s63.333 -11 102 -11z" />
    <glyph glyph-name="uring" unicode="&#x16f;" horiz-adv-x="986" 
d="M624 1414c0 48.667 -12.333 87.501 -37 116.501s-58.667 43.5 -102 43.5c-42 0 -74.833 -14.167 -98.5 -42.5s-35.5 -66.833 -35.5 -115.5s11.833 -87.334 35.5 -116.001s56.5 -43 98.5 -43s75.667 14.5 101 43.5s38 66.833 38 113.5zM488 1163
c-70.667 0 -127.999 23.168 -171.999 69.501s-66 107.166 -66 182.499c0 76.667 22.5 137.834 67.5 183.501s102.5 68.5 172.5 68.5c69.333 0 125.666 -23.333 168.999 -70s65 -107.334 65 -182.001c0 -75.333 -22 -136 -66 -182s-100.333 -69 -169 -69zM717.001 163.002
l-0.00195312 822h128v-985h-105l-9 64c-63.333 -30 -117.166 -49.833 -161.499 -59.5s-93.5 -14.5 -147.5 -14.5c-101.333 0 -175.666 26.667 -222.999 80s-71 137 -71 251v664h128v-669c0 -80 13.167 -136.667 39.5 -170s72.833 -50 139.5 -50
c33.333 0 60.5 0.833008 81.5 2.5s50.333 7.66699 88 18s75.167 25.833 112.5 46.5z" />
    <glyph glyph-name="Uhungarumlaut" unicode="&#x170;" horiz-adv-x="1080" 
d="M634 1513l246 340.999l106 -80l-98 -109c-14 -17.333 -37.667 -42.666 -71 -75.999l-89 -88l-40 -37zM339 1513l245 340.999l106 -80l-97 -109c-14 -17.333 -37.667 -42.666 -71 -75.999l-90 -88l-40 -37zM540 95.998c38.667 0 72.6709 3.66699 102.004 11
s54.166 16.666 74.499 27.999s37.5 27.833 51.5 49.5s24.833 43 32.5 64s13.667 48.833 18 83.5s7 66.5 8 95.5s1.5 66.5 1.5 112.5v744h128v-649c0 -57.333 -0.666992 -106.166 -2 -146.499s-4.16602 -83 -8.49902 -128s-10.833 -82.667 -19.5 -113
s-19.834 -60.833 -33.501 -91.5s-30.834 -55.667 -51.501 -75s-45 -36.833 -73 -52.5s-61 -27 -99 -34s-81 -10.5 -129 -10.5s-91 3.5 -129 10.5s-71 18.333 -99 34s-52.333 33.167 -73 52.5s-37.834 44.333 -51.501 75s-24.834 61.167 -33.501 91.5s-15.167 68 -19.5 113
s-7.16602 87.667 -8.49902 128s-2 89.166 -2 146.499v649h128v-744c0 -46 0.5 -83.5 1.5 -112.5s3.66699 -60.833 8 -95.5s10.333 -62.5 18 -83.5s18.5 -42.333 32.5 -64s31.167 -38.167 51.5 -49.5s45.166 -20.666 74.499 -27.999s63.333 -11 102 -11z" />
    <glyph glyph-name="uhungarumlaut" unicode="&#x171;" horiz-adv-x="986" 
d="M581 1212l246 340.999l106 -80l-98 -109c-14 -17.333 -37.667 -42.666 -71 -75.999l-89 -88l-40 -37zM286 1212l245 340.999l106 -80l-97 -109c-14 -17.333 -37.667 -42.666 -71 -75.999l-90 -88l-40 -37zM717 162.998l-0.00195312 822h128v-985h-105l-9 64
c-63.333 -30 -117.166 -49.833 -161.499 -59.5s-93.5 -14.5 -147.5 -14.5c-101.333 0 -175.666 26.667 -222.999 80s-71 137 -71 251v664h128v-669c0 -80 13.167 -136.667 39.5 -170s72.833 -50 139.5 -50c33.333 0 60.5 0.833008 81.5 2.5s50.333 7.66699 88 18
s75.167 25.833 112.5 46.5z" />
    <glyph glyph-name="Uogonek" unicode="&#x172;" horiz-adv-x="1080" 
d="M493 -5l94 -0.00195312c-28.667 -8.66699 -60.667 -36.167 -96 -82.5s-53 -86.166 -53 -119.499c0 -34.667 26.667 -52 80 -52c38 0 68 6.66699 90 20l15 -80c-40.667 -17.333 -82.667 -26 -126 -26c-46.667 0 -85.167 10.833 -115.5 32.5s-45.5 53.5 -45.5 95.5
c0 38.667 13.5 77.334 40.5 116.001s65.833 70.667 116.5 96zM540 95.998c38.667 0 72.6709 3.66699 102.004 11s54.166 16.666 74.499 27.999s37.5 27.833 51.5 49.5s24.833 43 32.5 64s13.667 48.833 18 83.5s7 66.5 8 95.5s1.5 66.5 1.5 112.5v744h128v-649
c0 -57.333 -0.666992 -106.166 -2 -146.499s-4.16602 -83 -8.49902 -128s-10.833 -82.667 -19.5 -113s-19.834 -60.833 -33.501 -91.5s-30.834 -55.667 -51.501 -75s-45 -36.833 -73 -52.5s-61 -27 -99 -34s-81 -10.5 -129 -10.5s-91 3.5 -129 10.5s-71 18.333 -99 34
s-52.333 33.167 -73 52.5s-37.834 44.333 -51.501 75s-24.834 61.167 -33.501 91.5s-15.167 68 -19.5 113s-7.16602 87.667 -8.49902 128s-2 89.166 -2 146.499v649h128v-744c0 -46 0.5 -83.5 1.5 -112.5s3.66699 -60.833 8 -95.5s10.333 -62.5 18 -83.5
s18.5 -42.333 32.5 -64s31.167 -38.167 51.5 -49.5s45.166 -20.666 74.499 -27.999s63.333 -11 102 -11z" />
    <glyph glyph-name="uogonek" unicode="&#x173;" horiz-adv-x="986" 
d="M754 1l94 -0.00195312c-28.667 -8.66699 -60.667 -36.167 -96 -82.5s-53 -86.166 -53 -119.499c0 -34.667 26.667 -52 80 -52c38 0 68 6.66699 90 20l15 -80c-40.667 -17.333 -82.667 -26 -126 -26c-46.667 0 -85.167 10.833 -115.5 32.5s-45.5 53.5 -45.5 95.5
c0 38.667 13.5 77.334 40.5 116.001s65.833 70.667 116.5 96zM717 162.998l-0.00195312 822h128v-985h-105l-9 64c-63.333 -30 -117.166 -49.833 -161.499 -59.5s-93.5 -14.5 -147.5 -14.5c-101.333 0 -175.666 26.667 -222.999 80s-71 137 -71 251v664h128v-669
c0 -80 13.167 -136.667 39.5 -170s72.833 -50 139.5 -50c33.333 0 60.5 0.833008 81.5 2.5s50.333 7.66699 88 18s75.167 25.833 112.5 46.5z" />
    <glyph glyph-name="Wcircumflex" unicode="&#x174;" horiz-adv-x="1337" 
d="M681 1702l-213 -238l-86 80c103.333 115.333 185.333 202.333 246 261h105c60.667 -58.667 142.667 -145.667 246 -261l-86 -80zM390 185l233 661h115l243 -663l106 1101h118l-120 -1284h-142l-262 702l-254 -702h-141l-129 1284h118z" />
    <glyph glyph-name="wcircumflex" unicode="&#x175;" horiz-adv-x="1298" 
d="M649 1401l-213 -238l-86 80c103.333 115.333 185.333 202.333 246 261h105c60.667 -58.667 142.667 -145.667 246 -261l-86 -80zM716 763l214 -650l178 872h125l-224 -985h-140l-212 627l-211 -627h-142l-239 985h125l191 -872l217 650h118z" />
    <glyph glyph-name="Ycircumflex" unicode="&#x176;" horiz-adv-x="926" 
d="M463 1702l-213 -238l-86 80c103.333 115.333 185.333 202.333 246 261h105c60.667 -58.667 142.667 -145.667 246 -261l-86 -80zM399 586l-384 698h142l306 -580l302 580h146l-384 -696v-588h-128v586z" />
    <glyph glyph-name="ycircumflex" unicode="&#x177;" horiz-adv-x="963" 
d="M483 1401l-213 -238l-86 80c103.333 115.333 185.333 202.333 246 261h105c60.667 -58.667 142.667 -145.667 246 -261l-86 -80zM285 -390c-49.333 0 -104.331 11.6709 -164.998 35.0039l20 102l1 1c60 -18 105 -27 135 -27c10 0 19.333 1.16699 28 3.5
s16.667 6.33301 24 12s13.833 11.167 19.5 16.5s11.5 13.333 17.5 24l15 27c4 7.33301 8.5 18.166 13.5 32.499l12 33.5c3 8 7.16699 20.5 12.5 37.5l12 37.5l27 81l-405 959h137l324 -819l265 819h136l-346 -1001c-19.333 -56 -35.166 -99.833 -47.499 -131.5
s-27.333 -65.334 -45 -101.001s-34.834 -62.334 -51.501 -80.001s-36.834 -32.334 -60.501 -44.001s-49.834 -17.5 -78.501 -17.5z" />
    <glyph glyph-name="Ydieresis" unicode="&#x178;" horiz-adv-x="926" 
d="M377 1590v-126h-139v126h139zM689 1590v-126h-137v126h137zM399 586l-384 698h142l306 -580l302 580h146l-384 -696v-588h-128v586z" />
    <glyph glyph-name="Zacute" unicode="&#x179;" horiz-adv-x="927" 
d="M419 1513l245 340.999l106 -80l-97 -109c-14 -17.333 -37.667 -42.666 -71 -75.999l-90 -88l-40 -37zM841 99.999v-100h-716l-21 98l569 1086h-538v100h669l16 -108l-568 -1076h589z" />
    <glyph glyph-name="zacute" unicode="&#x17a;" horiz-adv-x="799" 
d="M369 1212l245 340.999l106 -80l-97 -109c-14 -17.333 -37.667 -42.666 -71 -75.999l-90 -88l-40 -37zM571 894.999h-441v90h570l10 -85l-450 -810h465v-90h-592l-14 96z" />
    <glyph glyph-name="Zdotaccent" unicode="&#x17b;" horiz-adv-x="927" 
d="M553 1666v-202h-160v202h160zM841 100v-100h-716l-21 98l569 1086h-538v100h669l16 -108l-568 -1076h589z" />
    <glyph glyph-name="zdotaccent" unicode="&#x17c;" horiz-adv-x="799" 
d="M502 1365v-202h-160v202h160zM571 895h-441v90h570l10 -85l-450 -810h465v-90h-592l-14 96z" />
    <glyph glyph-name="Zcaron" unicode="&#x17d;" horiz-adv-x="927" 
d="M472 1577l192 257l88 -60c-58.667 -79.333 -134.667 -173 -228 -281c-16 -19.333 -33.333 -29 -52 -29c-18 0 -35 9.66699 -51 29c-93.333 108 -169.333 201.667 -228 281l88 60zM841 100v-100h-716l-21 98l569 1086h-538v100h669l16 -108l-568 -1076h589z" />
    <glyph glyph-name="zcaron" unicode="&#x17e;" horiz-adv-x="799" 
d="M422 1276l192 257l88 -60c-58.667 -79.333 -134.667 -173 -228 -281c-16 -19.333 -33.333 -29 -52 -29c-18 0 -35 9.66699 -51 29c-93.333 108 -169.333 201.667 -228 281l88 60zM571 895h-441v90h570l10 -85l-450 -810h465v-90h-592l-14 96z" />
    <glyph glyph-name="florin" unicode="&#x192;" horiz-adv-x="997" 
d="M393 -31c-6 -47.333 -12.8311 -87.668 -20.498 -121.001s-18.834 -67.833 -33.501 -103.5s-32.5 -64.5 -53.5 -86.5s-48.167 -40 -81.5 -54s-72 -21.333 -116 -22c-4 0 -17.333 0.666992 -40 2l9 111c2 0 4.66699 -0.166992 8 -0.5s5.66602 -0.5 6.99902 -0.5
c36 0 67 10 93 30c34.667 15.333 60 41 76 77s29.667 90 41 162c22 142.667 60.333 435 115 877h-173l16 112h172c6.66699 53.333 13.667 98.833 21 136.5s18.166 77 32.499 118s31.333 74.333 51 100s45.334 47.5 77.001 65.5s68.167 28.333 109.5 31h73
c33.333 -4 73 -11.667 119 -23l-28 -114c-54 16 -100.667 24 -140 24c-36 0 -63.333 -7.16699 -82 -21.5s-35.667 -39.166 -51 -74.499c-34 -57.333 -57 -138 -69 -242h294l-18 -112h-290l-116 -871h-2z" />
    <glyph glyph-name="uni01C4" unicode="&#x1c4;" horiz-adv-x="2026" 
d="M1571 1577l192 257l88 -60c-58.667 -79.333 -134.667 -173 -228 -281c-16 -19.333 -33.333 -29 -52 -29c-18 0 -35 9.66699 -51 29c-93.333 108 -169.333 201.667 -228 281l88 60zM1940 100v-100h-716l-21 98l569 1086h-538v100h669l16 -108l-568 -1076h589zM433 0
l-284.002 -0.000976562v1284h273c76 0 142.333 -5 199 -15s105.834 -26.667 147.501 -50s76 -51.333 103 -84s48.667 -74.167 65 -124.5s27.833 -105.166 34.5 -164.499s10 -129.333 10 -210c0 -62 -1.83301 -116.667 -5.5 -164s-10.5 -94 -20.5 -140
s-23.667 -85.333 -41 -118s-39.666 -63.167 -66.999 -91.5s-60.166 -51 -98.499 -68s-83.833 -30.333 -136.5 -40s-112.334 -14.5 -179.001 -14.5zM421.998 1184l-144.997 0.00195312v-1084h156c42.667 0 81.167 2.16699 115.5 6.5s65.166 10.333 92.499 18
s51.333 18.5 72 32.5s38.5 28.833 53.5 44.5s27.667 35.5 38 59.5s18.666 47.833 24.999 71.5s11.166 52.667 14.499 87s5.66602 67.666 6.99902 99.999s2 71.166 2 116.499c0 70.667 -2 130.167 -6 178.5s-11.5 94.333 -22.5 138s-26.333 79 -46 106s-45.667 50.5 -78 70.5
s-71.166 34.167 -116.499 42.5s-99.333 12.5 -162 12.5z" />
    <glyph glyph-name="uni01C5" unicode="&#x1c5;" horiz-adv-x="1898" 
d="M1521 1276l192 257l88 -60c-58.667 -79.333 -134.667 -173 -228 -281c-16 -19.333 -33.333 -29 -52 -29c-18 0 -35 9.66699 -51 29c-93.333 108 -169.333 201.667 -228 281l88 60zM1670 895h-441v90h570l10 -85l-450 -810h465v-90h-592l-14 96zM433 0
l-284.002 -0.000976562v1284h273c76 0 142.333 -5 199 -15s105.834 -26.667 147.501 -50s76 -51.333 103 -84s48.667 -74.167 65 -124.5s27.833 -105.166 34.5 -164.499s10 -129.333 10 -210c0 -62 -1.83301 -116.667 -5.5 -164s-10.5 -94 -20.5 -140
s-23.667 -85.333 -41 -118s-39.666 -63.167 -66.999 -91.5s-60.166 -51 -98.499 -68s-83.833 -30.333 -136.5 -40s-112.334 -14.5 -179.001 -14.5zM421.998 1184l-144.997 0.00195312v-1084h156c42.667 0 81.167 2.16699 115.5 6.5s65.166 10.333 92.499 18
s51.333 18.5 72 32.5s38.5 28.833 53.5 44.5s27.667 35.5 38 59.5s18.666 47.833 24.999 71.5s11.166 52.667 14.499 87s5.66602 67.666 6.99902 99.999s2 71.166 2 116.499c0 70.667 -2 130.167 -6 178.5s-11.5 94.333 -22.5 138s-26.333 79 -46 106s-45.667 50.5 -78 70.5
s-71.166 34.167 -116.499 42.5s-99.333 12.5 -162 12.5z" />
    <glyph glyph-name="uni01C6" unicode="&#x1c6;" horiz-adv-x="1809" 
d="M1432 1276l192 257l88 -60c-58.667 -79.333 -134.667 -173 -228 -281c-16 -19.333 -33.333 -29 -52 -29c-18 0 -35 9.66699 -51 29c-93.333 108 -169.333 201.667 -228 281l88 60zM1581 895h-441v90h570l10 -85l-450 -810h465v-90h-592l-14 96zM742 1358h128.001v-1358
h-104l-10 50c-74.667 -40 -155.334 -60 -242.001 -60c-61.333 0 -116 9.16699 -164 27.5s-90.5 47 -127.5 86s-65.333 91.333 -85 157s-29.5 143.167 -29.5 232.5c0 70 6.66699 133.5 20 190.5s31.5 104.833 54.5 143.5s50.5 71.167 82.5 97.5s66.333 45.5 103 57.5
s75.334 18 116.001 18c45.333 0 87.666 -5.33301 126.999 -16s83 -31 131 -61v435zM742.001 137l-0.00195312 672c-54.667 31.333 -100.167 53.5 -136.5 66.5s-71.5 19.5 -105.5 19.5c-81.333 0 -145.666 -33.833 -192.999 -101.5s-71 -168.5 -71 -302.5
c0 -263.333 98.667 -395 296 -395h28c62.667 0 123.334 13.667 182.001 41z" />
    <glyph glyph-name="uni01C7" unicode="&#x1c7;" horiz-adv-x="1468" 
d="M1319 1284l-0.000976562 -1193c0 -118 -22.5 -201.333 -67.5 -250s-112.833 -73 -203.5 -73c-61.333 0 -120 10.667 -176 32l15 101c52.667 -18.667 103.334 -28 152.001 -28c56 0 95.333 16.833 118 50.5s34 89.5 34 167.5v1093h-261v100h389zM276.999 1284v-1184h492
l17 -100h-637v1284h128z" />
    <glyph glyph-name="uni01C8" unicode="&#x1c8;" horiz-adv-x="1445" 
d="M1027 -182c54.667 0 91.167 15.332 109.5 45.999s27.5 85.334 27.5 164.001v867h-224v90h352v-967c0 -108.667 -21.667 -188 -65 -238s-108.666 -75 -195.999 -75c-66 0 -122 6.66699 -168 20l16 109c43.333 -10.667 92.666 -16 147.999 -16zM1135 1264
c0 28 8.66699 50.3311 26 66.998s39 25 65 25c27.333 0 49.166 -7.66699 65.499 -23s24.5 -37.666 24.5 -66.999s-8.16699 -51.666 -24.5 -66.999s-38.166 -23 -65.499 -23c-26.667 0 -48.5 7.83301 -65.5 23.5s-25.5 37.167 -25.5 64.5zM277 1284v-1184h492l17 -100h-637
v1284h128z" />
    <glyph glyph-name="uni01C9" unicode="&#x1c9;" horiz-adv-x="1302" 
d="M884 -182c54.667 0 91.167 15.332 109.5 45.999s27.5 85.334 27.5 164.001v867h-224v90h352v-967c0 -108.667 -21.667 -188 -65 -238s-108.666 -75 -195.999 -75c-66 0 -122 6.66699 -168 20l16 109c43.333 -10.667 92.666 -16 147.999 -16zM992 1264
c0 28 8.66699 50.3311 26 66.998s39 25 65 25c27.333 0 49.166 -7.66699 65.499 -23s24.5 -37.666 24.5 -66.999s-8.16699 -51.666 -24.5 -66.999s-38.166 -23 -65.499 -23c-26.667 0 -48.5 7.83301 -65.5 23.5s-25.5 37.167 -25.5 64.5zM72 1358h349v-1268h211v-90h-562v90
h223v1177h-221v91z" />
    <glyph glyph-name="uni01CA" unicode="&#x1ca;" horiz-adv-x="1836" 
d="M1687 1284l-0.000976562 -1193c0 -118 -22.5 -201.333 -67.5 -250s-112.833 -73 -203.5 -73c-61.333 0 -120 10.667 -176 32l15 101c52.667 -18.667 103.334 -28 152.001 -28c56 0 95.333 16.833 118 50.5s34 89.5 34 167.5v1093h-261v100h389zM927.999 1284h116v-1284
h-126l-647 1081v-1081h-122v1284h136l643 -1065v1065z" />
    <glyph glyph-name="uni01CB" unicode="&#x1cb;" horiz-adv-x="1813" 
d="M1395 -182c54.667 0 91.167 15.332 109.5 45.999s27.5 85.334 27.5 164.001v867h-224v90h352v-967c0 -108.667 -21.667 -188 -65 -238s-108.666 -75 -195.999 -75c-66 0 -122 6.66699 -168 20l16 109c43.333 -10.667 92.666 -16 147.999 -16zM1503 1264
c0 28 8.66699 50.3311 26 66.998s39 25 65 25c27.333 0 49.166 -7.66699 65.499 -23s24.5 -37.666 24.5 -66.999s-8.16699 -51.666 -24.5 -66.999s-38.166 -23 -65.499 -23c-26.667 0 -48.5 7.83301 -65.5 23.5s-25.5 37.167 -25.5 64.5zM928 1284h116v-1284h-126l-647 1081
v-1081h-122v1284h136l643 -1065v1065z" />
    <glyph glyph-name="uni01CC" unicode="&#x1cc;" horiz-adv-x="1598" 
d="M1180 -182c54.667 0 91.167 15.332 109.5 45.999s27.5 85.334 27.5 164.001v867h-224v90h352v-967c0 -108.667 -21.667 -188 -65 -238s-108.666 -75 -195.999 -75c-66 0 -122 6.66699 -168 20l16 109c43.333 -10.667 92.666 -16 147.999 -16zM1288 1264
c0 28 8.66699 50.3311 26 66.998s39 25 65 25c27.333 0 49.166 -7.66699 65.499 -23s24.5 -37.666 24.5 -66.999s-8.16699 -51.666 -24.5 -66.999s-38.166 -23 -65.499 -23c-26.667 0 -48.5 7.83301 -65.5 23.5s-25.5 37.167 -25.5 64.5zM268 821.997l0.000976562 -822h-128
v985h105l9 -64c65.333 30.667 120 51.5 164 62.5s91.333 16.5 142 16.5c101.333 0 176.166 -27.667 224.499 -83s72.5 -140 72.5 -254v-663h-128v668c0 81.333 -12.833 139.5 -38.5 174.5s-71.5 52.5 -137.5 52.5c-101.333 0 -196.333 -24.333 -285 -73z" />
    <glyph glyph-name="uni01F1" unicode="&#x1f1;" horiz-adv-x="2026" 
d="M1940 100v-100h-716l-21 98l569 1086h-538v100h669l16 -108l-568 -1076h589zM433 0l-284.002 -0.000976562v1284h273c76 0 142.333 -5 199 -15s105.834 -26.667 147.501 -50s76 -51.333 103 -84s48.667 -74.167 65 -124.5s27.833 -105.166 34.5 -164.499
s10 -129.333 10 -210c0 -62 -1.83301 -116.667 -5.5 -164s-10.5 -94 -20.5 -140s-23.667 -85.333 -41 -118s-39.666 -63.167 -66.999 -91.5s-60.166 -51 -98.499 -68s-83.833 -30.333 -136.5 -40s-112.334 -14.5 -179.001 -14.5zM421.998 1184l-144.997 0.00195312v-1084
h156c42.667 0 81.167 2.16699 115.5 6.5s65.166 10.333 92.499 18s51.333 18.5 72 32.5s38.5 28.833 53.5 44.5s27.667 35.5 38 59.5s18.666 47.833 24.999 71.5s11.166 52.667 14.499 87s5.66602 67.666 6.99902 99.999s2 71.166 2 116.499c0 70.667 -2 130.167 -6 178.5
s-11.5 94.333 -22.5 138s-26.333 79 -46 106s-45.667 50.5 -78 70.5s-71.166 34.167 -116.499 42.5s-99.333 12.5 -162 12.5z" />
    <glyph glyph-name="uni01F2" unicode="&#x1f2;" horiz-adv-x="1898" 
d="M1670 895h-441v90h570l10 -85l-450 -810h465v-90h-592l-14 96zM433 0l-284.002 -0.000976562v1284h273c76 0 142.333 -5 199 -15s105.834 -26.667 147.501 -50s76 -51.333 103 -84s48.667 -74.167 65 -124.5s27.833 -105.166 34.5 -164.499s10 -129.333 10 -210
c0 -62 -1.83301 -116.667 -5.5 -164s-10.5 -94 -20.5 -140s-23.667 -85.333 -41 -118s-39.666 -63.167 -66.999 -91.5s-60.166 -51 -98.499 -68s-83.833 -30.333 -136.5 -40s-112.334 -14.5 -179.001 -14.5zM421.998 1184l-144.997 0.00195312v-1084h156
c42.667 0 81.167 2.16699 115.5 6.5s65.166 10.333 92.499 18s51.333 18.5 72 32.5s38.5 28.833 53.5 44.5s27.667 35.5 38 59.5s18.666 47.833 24.999 71.5s11.166 52.667 14.499 87s5.66602 67.666 6.99902 99.999s2 71.166 2 116.499c0 70.667 -2 130.167 -6 178.5
s-11.5 94.333 -22.5 138s-26.333 79 -46 106s-45.667 50.5 -78 70.5s-71.166 34.167 -116.499 42.5s-99.333 12.5 -162 12.5z" />
    <glyph glyph-name="uni01F3" unicode="&#x1f3;" horiz-adv-x="1809" 
d="M1581 895h-441v90h570l10 -85l-450 -810h465v-90h-592l-14 96zM742 1358h128.001v-1358h-104l-10 50c-74.667 -40 -155.334 -60 -242.001 -60c-61.333 0 -116 9.16699 -164 27.5s-90.5 47 -127.5 86s-65.333 91.333 -85 157s-29.5 143.167 -29.5 232.5
c0 70 6.66699 133.5 20 190.5s31.5 104.833 54.5 143.5s50.5 71.167 82.5 97.5s66.333 45.5 103 57.5s75.334 18 116.001 18c45.333 0 87.666 -5.33301 126.999 -16s83 -31 131 -61v435zM742.001 137l-0.00195312 672c-54.667 31.333 -100.167 53.5 -136.5 66.5
s-71.5 19.5 -105.5 19.5c-81.333 0 -145.666 -33.833 -192.999 -101.5s-71 -168.5 -71 -302.5c0 -263.333 98.667 -395 296 -395h28c62.667 0 123.334 13.667 182.001 41z" />
    <glyph glyph-name="uni01F4" unicode="&#x1f4;" horiz-adv-x="1094" 
d="M484 1513l245 340.999l106 -80l-97 -109c-14 -17.333 -37.667 -42.666 -71 -75.999l-90 -88l-40 -37zM964 91.999c-24.667 -13.333 -45.166 -23.833 -61.499 -31.5s-41.666 -18 -75.999 -31s-72 -22.833 -113 -29.5s-84.167 -10 -129.5 -10
c-172.667 0 -294.834 52.167 -366.501 156.5s-107.5 272.166 -107.5 503.499c0 230 40.667 396 122 498s203.666 153 366.999 153c118 0 228 -25 330 -75v-242h-109v173c-57.333 25.333 -127.333 38 -210 38c-48 0 -89.833 -4.33301 -125.5 -13
s-69.834 -24.667 -102.501 -48s-59.167 -54.666 -79.5 -93.999s-36.666 -91 -48.999 -155s-18.5 -139.333 -18.5 -226c0 -202.667 26 -347.167 78 -433.5s144.333 -129.5 277 -129.5c104 0 190 16.333 258 49v422h-236v98h352v-573z" />
    <glyph glyph-name="uni01F5" unicode="&#x1f5;" horiz-adv-x="1092" 
d="M521 1212l245 340.999l106 -80l-97 -109c-14 -17.333 -37.667 -42.666 -71 -75.999l-90 -88l-40 -37zM521 -235.001c108 0 189.002 18.3311 243.002 54.998s81 80.334 81 131.001c0 38 -9.83301 66.5 -29.5 85.5s-58.834 28.5 -117.501 28.5h-379
c-48.667 -46 -73 -94 -73 -144c0 -13.333 0.833008 -24.833 2.5 -34.5s5.16699 -21.167 10.5 -34.5s14.166 -24.666 26.499 -33.999s28 -18.333 47 -27s44.667 -15.167 77 -19.5s69.5 -6.5 111.5 -6.5zM742.002 976.997h287v-94h-223c34.667 -26 61.334 -58 80.001 -96
s28 -75.667 28 -113c0 -90.667 -34 -162.834 -102 -216.501s-157.333 -80.5 -268 -80.5c-76 0 -144.667 12.333 -206 37c-44 -71.333 -66 -124.666 -66 -159.999c0 -16 2.66699 -31.5 8 -46.5s10.666 -25.833 15.999 -32.5l7 -10h379c105.333 0 178.833 -16.333 220.5 -49
s62.5 -85 62.5 -157c0 -27.333 -4.16699 -54 -12.5 -80s-23.166 -52.5 -44.499 -79.5s-48.333 -50.667 -81 -71s-75.834 -36.833 -129.501 -49.5s-114.5 -19 -182.5 -19c-63.333 0 -119.5 5.83301 -168.5 17.5s-87.5 26 -115.5 43s-50.833 37.167 -68.5 60.5
s-29.5 45 -35.5 65s-9 40.333 -9 61c0 37.333 12.5 74.666 37.5 111.999s49.5 63 73.5 77c-22 14.667 -39.333 35.334 -52 62.001s-19 53 -19 79c0 35.333 7.66699 68.666 23 99.999s42 74 80 128c-74 62 -111 136.333 -111 223c0 104.667 36.167 182.834 108.5 234.501
s165.833 77.5 280.5 77.5c30 0 65 -3.83301 105 -11.5s72.667 -11.5 98 -11.5zM545.002 904.997c-92 0 -159.499 -19.668 -202.499 -59.001s-64.5 -91.666 -64.5 -156.999c0 -69.333 22.667 -122.333 68 -159s108.333 -55 189 -55c85.333 0 150.333 17 195 51
s67 84.667 67 152c0 65.333 -21.333 119.5 -64 162.5s-105.334 64.5 -188.001 64.5z" />
    <glyph glyph-name="uni0200" unicode="&#x200;" horiz-adv-x="1081" 
d="M744 1513l-53.001 -49.001c-101.333 88.667 -167.666 152.334 -198.999 191.001l-99 119l106 80zM441.999 1513l-53.001 -49.001c-101.333 88.667 -167.666 152.334 -198.999 191.001l-99 119l106 80zM768.998 419.998l-219 754l-227 -754h446zM896.998 -0.00195312
l-97 328h-507l-100 -328h-139l400 1284h191l382 -1284h-130z" />
    <glyph glyph-name="uni0201" unicode="&#x201;" horiz-adv-x="953" 
d="M665 1212l-53.001 -49.001c-101.333 88.667 -167.666 152.334 -198.999 191.001l-99 119l106 80zM362.999 1212l-53.001 -49.001c-101.333 88.667 -167.666 152.334 -198.999 191.001l-99 119l106 80zM228.998 277.998c0 -124 72.0039 -186.001 216.004 -186.001
c42.667 0 86.167 6.33301 130.5 19s80.833 28.334 109.5 47.001v315h-56c-32 0 -61.333 -0.833008 -88 -2.5s-56.334 -4.5 -89.001 -8.5s-61.334 -10.667 -86.001 -20s-47.834 -20.833 -69.501 -34.5s-38.334 -31.5 -50.001 -53.5s-17.5 -47.333 -17.5 -76zM166.002 941.997
c118 38.667 220.668 57.9961 308.001 57.9961c49.333 0 93.666 -6.83301 132.999 -20.5s74.5 -35 105.5 -64s55 -68.667 72 -119s25.5 -110.166 25.5 -179.499v-617h-92l-20 66c-24 -19.333 -62.667 -36.833 -116 -52.5s-105.666 -23.5 -156.999 -23.5
c-96 0 -172.667 25 -230 75s-86 123 -86 219c0 30.667 4.83301 59.167 14.5 85.5s26.334 51.833 50.001 76.5s53.667 45.834 90 63.501s82.833 31.667 139.5 42s121.334 15.5 194.001 15.5h88v32c-0.666992 109.333 -19.834 186 -57.501 230s-90.834 66 -159.501 66
c-10 0 -20.833 -0.5 -32.5 -1.5s-21.834 -2 -30.501 -3s-20.5 -3 -35.5 -6s-26 -5 -33 -6s-19.5 -3.66699 -37.5 -8s-29.333 -7.16602 -34 -8.49902s-17.5 -4.66602 -38.5 -9.99902l-35.5 -9z" />
    <glyph glyph-name="uni0202" unicode="&#x202;" horiz-adv-x="1081" 
d="M349 1464l-77 75c89.333 100 178.666 150 267.999 150c90.667 0 180.334 -50 269.001 -150l-77 -75c-55.333 76.667 -118 115 -188 115c-70.667 0 -135.667 -38.333 -195 -115zM769 420l-219 754l-227 -754h446zM897 0l-97 328h-507l-100 -328h-139l400 1284h191
l382 -1284h-130z" />
    <glyph glyph-name="uni0203" unicode="&#x203;" horiz-adv-x="953" 
d="M269 1163l-77 75c89.333 100 178.666 150 267.999 150c90.667 0 180.334 -50 269.001 -150l-77 -75c-55.333 76.667 -118 115 -188 115c-70.667 0 -135.667 -38.333 -195 -115zM229 278c0 -124 72.0039 -186.001 216.004 -186.001c42.667 0 86.167 6.33301 130.5 19
s80.833 28.334 109.5 47.001v315h-56c-32 0 -61.333 -0.833008 -88 -2.5s-56.334 -4.5 -89.001 -8.5s-61.334 -10.667 -86.001 -20s-47.834 -20.833 -69.501 -34.5s-38.334 -31.5 -50.001 -53.5s-17.5 -47.333 -17.5 -76zM166.004 941.999
c118 38.667 220.668 57.9961 308.001 57.9961c49.333 0 93.666 -6.83301 132.999 -20.5s74.5 -35 105.5 -64s55 -68.667 72 -119s25.5 -110.166 25.5 -179.499v-617h-92l-20 66c-24 -19.333 -62.667 -36.833 -116 -52.5s-105.666 -23.5 -156.999 -23.5
c-96 0 -172.667 25 -230 75s-86 123 -86 219c0 30.667 4.83301 59.167 14.5 85.5s26.334 51.833 50.001 76.5s53.667 45.834 90 63.501s82.833 31.667 139.5 42s121.334 15.5 194.001 15.5h88v32c-0.666992 109.333 -19.834 186 -57.501 230s-90.834 66 -159.501 66
c-10 0 -20.833 -0.5 -32.5 -1.5s-21.834 -2 -30.501 -3s-20.5 -3 -35.5 -6s-26 -5 -33 -6s-19.5 -3.66699 -37.5 -8s-29.333 -7.16602 -34 -8.49902s-17.5 -4.66602 -38.5 -9.99902l-35.5 -9z" />
    <glyph glyph-name="uni0204" unicode="&#x204;" horiz-adv-x="921" 
d="M697 1513l-53.001 -49.001c-101.333 88.667 -167.666 152.334 -198.999 191.001l-99 119l106 80zM394.999 1513l-53.001 -49.001c-101.333 88.667 -167.666 152.334 -198.999 191.001l-99 119l106 80zM276.998 625.998v-526h545l16 -100h-689v1284h685l-22 -100h-535
v-462h501v-96h-501z" />
    <glyph glyph-name="uni0205" unicode="&#x205;" horiz-adv-x="964" 
d="M689 1212l-53.001 -49.001c-101.333 88.667 -167.666 152.334 -198.999 191.001l-99 119l106 80zM386.999 1212l-53.001 -49.001c-101.333 88.667 -167.666 152.334 -198.999 191.001l-99 119l106 80zM507.998 894.998c-84 0 -148.333 -29.168 -193 -87.501
s-71 -141.166 -79 -248.499h507v50c0 87.333 -21.167 156.833 -63.5 208.5s-99.5 77.5 -171.5 77.5zM524.998 95.9971c102.667 0 196.001 26.668 280.001 80.001l39 -101c-45.333 -28 -96 -49.167 -152 -63.5s-109.333 -21.5 -160 -21.5c-134.667 0 -239 40.667 -313 122
s-111 209.333 -111 384c0 167.333 36 293.166 108 377.499s169 126.5 291 126.5c110 0 196.667 -36 260 -108s95 -168 95 -288c0 -27.333 -2.66699 -72.333 -8 -135h-618c0.666992 -59.333 6.66699 -111.5 18 -156.5s25.666 -81 42.999 -108s38.833 -48.833 64.5 -65.5
s51.5 -28 77.5 -34s54.667 -9 86 -9z" />
    <glyph glyph-name="uni0206" unicode="&#x206;" horiz-adv-x="921" 
d="M302 1464l-77 75c89.333 100 178.666 150 267.999 150c90.667 0 180.334 -50 269.001 -150l-77 -75c-55.333 76.667 -118 115 -188 115c-70.667 0 -135.667 -38.333 -195 -115zM277 626v-526h545l16 -100h-689v1284h685l-22 -100h-535v-462h501v-96h-501z" />
    <glyph glyph-name="uni0207" unicode="&#x207;" horiz-adv-x="964" 
d="M293 1163l-77 75c89.333 100 178.666 150 267.999 150c90.667 0 180.334 -50 269.001 -150l-77 -75c-55.333 76.667 -118 115 -188 115c-70.667 0 -135.667 -38.333 -195 -115zM508 895c-84 0 -148.333 -29.168 -193 -87.501s-71 -141.166 -79 -248.499h507v50
c0 87.333 -21.167 156.833 -63.5 208.5s-99.5 77.5 -171.5 77.5zM525 95.999c102.667 0 196.001 26.668 280.001 80.001l39 -101c-45.333 -28 -96 -49.167 -152 -63.5s-109.333 -21.5 -160 -21.5c-134.667 0 -239 40.667 -313 122s-111 209.333 -111 384
c0 167.333 36 293.166 108 377.499s169 126.5 291 126.5c110 0 196.667 -36 260 -108s95 -168 95 -288c0 -27.333 -2.66699 -72.333 -8 -135h-618c0.666992 -59.333 6.66699 -111.5 18 -156.5s25.666 -81 42.999 -108s38.833 -48.833 64.5 -65.5s51.5 -28 77.5 -34
s54.667 -9 86 -9z" />
    <glyph glyph-name="uni0208" unicode="&#x208;" horiz-adv-x="730" 
d="M569 1513l-53.001 -49.001c-101.333 88.667 -167.666 152.334 -198.999 191.001l-99 119l106 80zM266.999 1513l-53.001 -49.001c-101.333 88.667 -167.666 152.334 -198.999 191.001l-99 119l106 80zM431.998 1184v-1084h188v-100h-510v100h194v1084h-194v100h506v-100
h-184z" />
    <glyph glyph-name="uni0209" unicode="&#x209;" horiz-adv-x="673" 
d="M563 1212l-53.001 -49.001c-101.333 88.667 -167.666 152.334 -198.999 191.001l-99 119l106 80zM260.999 1212l-53.001 -49.001c-101.333 88.667 -167.666 152.334 -198.999 191.001l-99 119l106 80zM110.998 894.998v90h320v-895h192v-90h-512v90h192v805h-192z" />
    <glyph glyph-name="uni020A" unicode="&#x20a;" horiz-adv-x="730" 
d="M173 1464l-77 75c89.333 100 178.666 150 267.999 150c90.667 0 180.334 -50 269.001 -150l-77 -75c-55.333 76.667 -118 115 -188 115c-70.667 0 -135.667 -38.333 -195 -115zM432 1184v-1084h188v-100h-510v100h194v1084h-194v100h506v-100h-184z" />
    <glyph glyph-name="uni020B" unicode="&#x20b;" horiz-adv-x="673" 
d="M167 1163l-77 75c89.333 100 178.666 150 267.999 150c90.667 0 180.334 -50 269.001 -150l-77 -75c-55.333 76.667 -118 115 -188 115c-70.667 0 -135.667 -38.333 -195 -115zM111 895v90h320v-895h192v-90h-512v90h192v805h-192z" />
    <glyph glyph-name="uni020C" unicode="&#x20c;" horiz-adv-x="1128" 
d="M768 1513l-53.001 -49.001c-101.333 88.667 -167.666 152.334 -198.999 191.001l-99 119l106 80zM465.999 1513l-53.001 -49.001c-101.333 88.667 -167.666 152.334 -198.999 191.001l-99 119l106 80zM563.998 1301c68.667 0 128.83 -9.5 180.497 -28.5
s94.5 -45.833 128.5 -80.5s61.333 -79.5 82 -134.5s35.334 -115.333 44.001 -181s13 -141.834 13 -228.501c0 -87.333 -4 -163.666 -12 -228.999s-22 -125.833 -42 -181.5s-46.833 -101 -80.5 -136s-76.5 -62.333 -128.5 -82s-113.667 -29.5 -185 -29.5
s-133 9.83301 -185 29.5s-94.833 47 -128.5 82s-60.5 80.333 -80.5 136s-34 116.167 -42 181.5s-12 141.666 -12 228.999c0 86.667 4.33301 162.834 13 228.501s23.334 126 44.001 181s48 99.833 82 134.5s76.833 61.5 128.5 80.5s111.834 28.5 180.501 28.5z
M563.994 95.998c121.333 0 205 42.167 251 126.5s69 225.166 69 422.499c0 198 -23.167 339.167 -69.5 423.5s-129.833 126.5 -250.5 126.5s-204.167 -42.167 -250.5 -126.5s-69.5 -225.5 -69.5 -423.5c0 -197.333 23 -338.166 69 -422.499s129.667 -126.5 251 -126.5z" />
    <glyph glyph-name="uni020D" unicode="&#x20d;" 
d="M696 1212l-53.001 -49.001c-101.333 88.667 -167.666 152.334 -198.999 191.001l-99 119l106 80zM393.999 1212l-53.001 -49.001c-101.333 88.667 -167.666 152.334 -198.999 191.001l-99 119l106 80zM491.998 -10.002c-130 0 -226.502 43.833 -289.502 131.5
s-94.5 212.167 -94.5 373.5c0 168.667 30.833 295 92.5 379s158.834 126 291.501 126s229.834 -42 291.501 -126s92.5 -210.333 92.5 -379c0 -161.333 -31.5 -285.833 -94.5 -373.5s-159.5 -131.5 -289.5 -131.5zM491.996 894.998c-38.667 0 -72.6709 -6.5 -102.004 -19.5
s-53.666 -30.833 -72.999 -53.5s-35.166 -51 -47.499 -85s-21 -70.667 -26 -110s-7.5 -83.333 -7.5 -132c0 -62.667 4 -117.167 12 -163.5s21.5 -87.833 40.5 -124.5s45.5 -64.334 79.5 -83.001s75.333 -28 124 -28s90 9.33301 124 28s60.5 46.334 79.5 83.001
s32.5 78.167 40.5 124.5s12 100.833 12 163.5c0 48.667 -2.5 92.667 -7.5 132s-13.667 76 -26 110s-28.166 62.333 -47.499 85s-43.666 40.5 -72.999 53.5s-63.333 19.5 -102 19.5z" />
    <glyph glyph-name="uni020E" unicode="&#x20e;" horiz-adv-x="1128" 
d="M373 1464l-77 75c89.333 100 178.666 150 267.999 150c90.667 0 180.334 -50 269.001 -150l-77 -75c-55.333 76.667 -118 115 -188 115c-70.667 0 -135.667 -38.333 -195 -115zM564 1301c68.667 0 128.83 -9.5 180.497 -28.5s94.5 -45.833 128.5 -80.5
s61.333 -79.5 82 -134.5s35.334 -115.333 44.001 -181s13 -141.834 13 -228.501c0 -87.333 -4 -163.666 -12 -228.999s-22 -125.833 -42 -181.5s-46.833 -101 -80.5 -136s-76.5 -62.333 -128.5 -82s-113.667 -29.5 -185 -29.5s-133 9.83301 -185 29.5s-94.833 47 -128.5 82
s-60.5 80.333 -80.5 136s-34 116.167 -42 181.5s-12 141.666 -12 228.999c0 86.667 4.33301 162.834 13 228.501s23.334 126 44.001 181s48 99.833 82 134.5s76.833 61.5 128.5 80.5s111.834 28.5 180.501 28.5zM563.996 96c121.333 0 205 42.167 251 126.5
s69 225.166 69 422.499c0 198 -23.167 339.167 -69.5 423.5s-129.833 126.5 -250.5 126.5s-204.167 -42.167 -250.5 -126.5s-69.5 -225.5 -69.5 -423.5c0 -197.333 23 -338.166 69 -422.499s129.667 -126.5 251 -126.5z" />
    </font>
</defs>
</svg>
